<svg xmlns="http://www.w3.org/2000/svg" width="530" height="467"
     viewBox="0 0 530 467">
    <defs>
        <linearGradient id="linear-gradient" x1="0.758" y1="16.144" x2="2.083" y2="15.015"
                        gradientUnits="objectBoundingBox">
            <stop offset="0" stop-color="#5a9fd4"/>
            <stop offset="1" stop-color="#306998"/>
        </linearGradient>
        <linearGradient id="linear-gradient-2" x1="2.241" y1="13.881" x2="1.769" y2="14.539"
                        gradientUnits="objectBoundingBox">
            <stop offset="0" stop-color="#ffd43b"/>
            <stop offset="1" stop-color="#ffe873"/>
        </linearGradient>
    </defs>
    <rect id="272" data-name="Rechteck 272" width="530" height="467" rx="12" fill="rgba(0,0,0,0.05)"/>
    <path id="Pfad_37" data-name="Pfad 37"
          d="M175.076,311.007a6.358,6.358,0,0,0-.783-3.2,6.116,6.116,0,0,0-2.318-2.258q-12.792-7.378-25.59-14.741a6.282,6.282,0,0,0-6.808.067c-3.4,2-20.39,11.739-25.454,14.672A5.915,5.915,0,0,0,111.018,311v29.667a6.386,6.386,0,0,0,.749,3.137,6.1,6.1,0,0,0,2.351,2.322c5.065,2.933,22.062,12.67,25.456,14.672a6.283,6.283,0,0,0,6.81.067q12.791-7.384,25.594-14.743a6.1,6.1,0,0,0,2.353-2.319,6.394,6.394,0,0,0,.749-3.138V311.006"
          transform="translate(0 -267)" fill="#5c8dbc"/>
    <path id="Pfad_38" data-name="Pfad 38"
          d="M143.147,325.742l-31.38,18.068a6.1,6.1,0,0,0,2.353,2.32c5.065,2.933,22.062,12.67,25.456,14.672a6.283,6.283,0,0,0,6.81.067q12.793-7.384,25.593-14.743a6.1,6.1,0,0,0,2.353-2.319l-31.185-18.065"
          transform="translate(0 -267)" fill="#1a4674"/>
    <path id="Pfad_39" data-name="Pfad 39" d="M133.851,331.094a10.591,10.591,0,0,0,18.427-.061l-9.133-5.29-9.294,5.351"
          transform="translate(0 -267)" fill="#1a4674"/>
    <path id="Pfad_40" data-name="Pfad 40"
          d="M175.077,311.007a6.358,6.358,0,0,0-.783-3.2l-31.147,17.935,31.184,18.065a6.394,6.394,0,0,0,.749-3.138V311.006"
          transform="translate(0 -267)" fill="#1b598e"/>
    <path id="Pfad_41" data-name="Pfad 41"
          d="M173.362,327.033h-2.437v2.437h-2.437v-2.437h-2.437V324.6h2.437v-2.437h2.437V324.6h2.437v2.437m-8.892,0h-2.437v2.437H159.6v-2.437h-2.437V324.6H159.6v-2.437h2.437V324.6h2.439v2.437"
          transform="translate(0 -267)" fill="#fff"/>
    <path id="Pfad_42" data-name="Pfad 42"
          d="M152.28,331.033a10.593,10.593,0,1,1-.069-10.509l9.259-5.332a21.274,21.274,0,1,0,.055,21.2l-9.245-5.357"
          transform="translate(0 -267)" fill="#fff"/>
    <path id="Pfad_55" data-name="Pfad 55" d="M32.005,467.061,26.19,401.839h63.9l-5.824,65.212L58.1,474.3Z"
          transform="translate(0 -267)" fill="#e44d26"/>
    <path id="Pfad_56" data-name="Pfad 56" d="M58.139,468.761,79.283,462.9l4.975-55.726H58.139Z"
          transform="translate(0 -267)" fill="#f16529"/>
    <path id="Pfad_57" data-name="Pfad 57"
          d="M58.139,431.362H47.553l-.731-8.19H58.139v-8H38.08l.192,2.146,1.966,22.044h17.9Zm0,20.775-.035.01-8.913-2.407-.569-6.379H40.591l1.121,12.56,16.39,4.551.037-.01Z"
          transform="translate(0 -267)" fill="#ebebeb"/>
    <path id="Pfad_58" data-name="Pfad 58"
          d="M58.111,431.362v8h9.848l-.928,10.374-8.922,2.408v8.323l16.4-4.545.121-1.35,1.88-21.059.195-2.148H58.111Zm0-16.191v8H77.433l.16-1.8.365-4.056.191-2.146Z"
          transform="translate(0 -267)" fill="#fff"/>
    <path id="Path_277" data-name="Path 277" d="M201.377,467.061l-5.815-65.222h63.9l-5.821,65.211-26.17,7.255Zm0,0"
          transform="translate(0 -267)" fill="#d4b830"/>
    <path id="Path_278" data-name="Path 278" d="M227.513,468.76l21.143-5.862,4.974-55.726H227.513Zm0,0"
          transform="translate(0 -267)" fill="#fdd83c"/>
    <g id="Group_315" data-name="Group 315" transform="translate(0 -267)">
        <path id="Path_279" data-name="Path 279"
              d="M249.368,430.8H238.093V422.61h11.986l.71-8H229.732V438.8h10.906l-.963,10.374-9.942,1.81v8.339l17.419-3.964Zm-24.006-16.191H207.5l.742,8h9.091v27.221l-4.455-.652-.57-6.38h-8.03l1.12,12.56c19.964,3.963.076,0,19.964,3.963Z"
              fill="#fff"/>
    </g>
    <path id="Pfad_64" data-name="Pfad 64"
          d="M48,1.988a49.054,49.054,0,0,0-8.208.7C32.518,3.972,31.2,6.66,31.2,11.618v6.546H48.376v2.182H24.752a10.725,10.725,0,0,0-10.73,8.71,32.1,32.1,0,0,0,0,17.457c1.221,5.086,4.137,8.708,9.129,8.708h5.906V47.373A10.915,10.915,0,0,1,39.788,36.7H56.945a8.654,8.654,0,0,0,8.588-8.728V11.618c0-4.656-3.927-8.153-8.588-8.93a53.655,53.655,0,0,0-8.95-.7ZM38.706,7.253a3.274,3.274,0,1,1-3.223,3.284A3.274,3.274,0,0,1,38.706,7.253Z"
          transform="translate(341.857 20.852)" fill="url(#linear-gradient)"/>
    <path id="Pfad_65" data-name="Pfad 65"
          d="M75.721,28.38v7.628A11.017,11.017,0,0,1,64.99,46.9H47.833a8.762,8.762,0,0,0-8.588,8.729V71.984c0,4.654,4.047,7.393,8.588,8.728a28.75,28.75,0,0,0,17.157,0c4.324-1.253,8.588-3.772,8.588-8.728V65.437H56.422V63.254H82.167c4.992,0,6.853-3.482,8.589-8.708,1.793-5.381,1.716-10.555,0-17.457-1.234-4.97-3.59-8.71-8.589-8.71H75.721ZM66.07,69.8a3.274,3.274,0,1,1-3.223,3.264A3.241,3.241,0,0,1,66.07,69.8Z"
          transform="translate(333.811 12.819)" fill="url(#linear-gradient-2)"/>
    <path id="Path_280" data-name="Path 280"
          d="M221.932,544.522a4.272,4.272,0,0,0,.249,1.249,15.345,15.345,0,0,0,3.325,5.978,39.409,39.409,0,0,0,7.373,6.469c2.306,1.658,4.659,3.278,6.974,4.924.4.282.773.607,1.2.954-.371.2-.68.377-1,.54a53.569,53.569,0,0,0-8.7,5.391,17.8,17.8,0,0,0-4.327,4.378c-1.794,2.834-2.429,5.853-1.092,9.076a5.358,5.358,0,0,0,1.827,2.356,2.7,2.7,0,0,0,.9.463c.816.192,1.648.318,2.475.47h2.341a14.561,14.561,0,0,0,7.074-2.587,15.522,15.522,0,0,0,6.533-9.328,16.465,16.465,0,0,0-.1-8.607q-.119-.4-.273-.783c-.1-.257-.218-.507-.357-.827l5.306-3.051.079.068c-.1.316-.2.63-.286.949a21.49,21.49,0,0,0-.9,7.036,13.5,13.5,0,0,0,2.36,7.057,3.423,3.423,0,0,0,5.359.058,12.36,12.36,0,0,0,1.226-1.939c.865-1.787,1.666-3.6,2.493-5.41l.144-.33c-.059.855-.129,1.606-.161,2.358a8.986,8.986,0,0,0,.421,3.457,2.388,2.388,0,0,0,2.022,1.8,2.542,2.542,0,0,0,1.9-.691,8.014,8.014,0,0,0,2.077-2.469c1.467-2.694,2.973-5.372,4.3-8.134,1.438-2.987,2.7-6.062,4.032-9.1l.221-.539c.316,1.24.536,2.455.941,3.6a34.066,34.066,0,0,0,1.688,3.9,1.167,1.167,0,0,1-.15,1.488c-1.741,2.1-3.452,4.224-5.164,6.346a14.25,14.25,0,0,0-1.072,1.457,2.855,2.855,0,0,0-.37,1.053,1.34,1.34,0,0,0,1.067,1.521,7.451,7.451,0,0,0,2.09.149,12.24,12.24,0,0,0,6.479-2.436,6.792,6.792,0,0,0,2.68-7.331,17.032,17.032,0,0,0-.731-2.372.876.876,0,0,1,.1-.924,75.516,75.516,0,0,0,5.264-8.928,1.836,1.836,0,0,1,.236-.372,23.185,23.185,0,0,0,2.662,7.557c-.7.678-1.4,1.293-2.031,1.971a13.587,13.587,0,0,0-3.218,5.088,6.012,6.012,0,0,0-.357,2.628,2.214,2.214,0,0,0,2.734,2.01,12.426,12.426,0,0,0,7.418-4.572,6.012,6.012,0,0,0,.849-5.489c-.145-.531-.317-1.053-.5-1.662.734-.228,1.449-.5,2.189-.67a19.4,19.4,0,0,1,11.346.664,8.563,8.563,0,0,1,4.944,4.3,4.959,4.959,0,0,1-1.892,6.73,4.222,4.222,0,0,0-.681.467.671.671,0,0,0-.158.517c.016.095.267.214.411.212a3.762,3.762,0,0,0,2.092-.865,6.443,6.443,0,0,0,2.967-4.49l.049-.145-.06-1.255c-.024-.073.018-.144.012-.2a9.864,9.864,0,0,0-4.023-6.7,14.674,14.674,0,0,0-8.681-2.923,19.6,19.6,0,0,0-7.536,1.16c-.692.251-1.378.548-2.074.828-.093-.169-.194-.331-.276-.5a14.1,14.1,0,0,1-1.773-4.546,10.163,10.163,0,0,1-.019-3.56c.272-1.134.627-2.248.962-3.366a.82.82,0,0,0-.5-1.158,2.2,2.2,0,0,0-.607-.2,9.343,9.343,0,0,0-3.991.3,1.143,1.143,0,0,0-.9.907c-.059.294-.178.576-.262.866a21.658,21.658,0,0,1-1.137,3.585c-1.384,2.882-2.965,5.656-4.582,8.409-.175.3-.36.589-.58.949a12.441,12.441,0,0,1-1.357-3.505,10.757,10.757,0,0,1-.019-4.228c.262-1.046.6-2.074.918-3.106a.719.719,0,0,0-.364-1.007,2.143,2.143,0,0,0-.732-.284,8.984,8.984,0,0,0-4.132.338,1.116,1.116,0,0,0-.767.839,32.354,32.354,0,0,1-1.226,3.793c-2.141,4.908-4.343,9.791-6.543,14.673-.459,1.019-1,2-1.515,3a6.957,6.957,0,0,1-.486.709.579.579,0,0,1-.181-.368,10.158,10.158,0,0,1,.049-1.88q.551-2.752,1.218-5.478c.363-1.5.785-2.99,1.187-4.481a1.406,1.406,0,0,0-.221-1.386,2.072,2.072,0,0,0-2.609-.316l-.33.187.064-.532a8.3,8.3,0,0,0-.124-3.4,2.708,2.708,0,0,0-2.845-2.163,6.109,6.109,0,0,0-2.016.384,15.249,15.249,0,0,0-6.4,5.06,2,2,0,0,1-.584.5c-2.233,1.238-4.472,2.46-6.711,3.687l-2.491,1.366c-.668-.637-1.276-1.3-1.965-1.86-2.1-1.716-4.243-3.39-6.362-5.087a25.077,25.077,0,0,1-5.09-5.062,9.062,9.062,0,0,1-1.767-4.935,11.583,11.583,0,0,1,1.77-6.453,24.755,24.755,0,0,1,5.874-6.426,54.418,54.418,0,0,1,7.723-5.123,58.254,58.254,0,0,1,11.847-5.228,32.736,32.736,0,0,1,13.087-1.489,13.452,13.452,0,0,1,5.037,1.462,5.2,5.2,0,0,1,2.646,2.868,7.17,7.17,0,0,1,.125,4.016,15.331,15.331,0,0,1-4.009,6.984,27.094,27.094,0,0,1-11.075,7.016,30.466,30.466,0,0,1-7.536,1.607,14.192,14.192,0,0,1-6.162-.742,8.017,8.017,0,0,1-3.395-2.3c-.165-.193-.377-.4-.685-.221a.585.585,0,0,0-.254.756,7.4,7.4,0,0,0,.588,1.418,8.08,8.08,0,0,0,2.688,2.545,13.152,13.152,0,0,0,6.683,1.834,33.621,33.621,0,0,0,10.537-1.343,25.85,25.85,0,0,0,12.644-7.628,19.422,19.422,0,0,0,5.341-11.131,10.771,10.771,0,0,0-1.006-6.13,11.082,11.082,0,0,0-4.835-4.727,20.467,20.467,0,0,0-9.519-2.473h-3.324a34.427,34.427,0,0,0-11.686,2.527,80.276,80.276,0,0,0-8.39,3.629A54.224,54.224,0,0,0,228.13,531.9a23.874,23.874,0,0,0-5.273,8.33q-.5,1.424-.857,2.891m21.483,27.791a12.266,12.266,0,0,1-4.37,8.488,9.931,9.931,0,0,1-4.989,2.5,3.665,3.665,0,0,1-2.079-.145,2.122,2.122,0,0,1-1.195-2.172,7.856,7.856,0,0,1,1.174-4,14.306,14.306,0,0,1,3.659-4.018,56.068,56.068,0,0,1,7.152-4.819l.188-.077a12.552,12.552,0,0,1,.46,4.243ZM262.9,555.961a25.96,25.96,0,0,1-.729,3.264A96.2,96.2,0,0,1,258.092,570a18.6,18.6,0,0,1-1.06,1.865,1.3,1.3,0,0,1-.218.258c-.446.441-.869.417-1.094-.159a12.151,12.151,0,0,1-.563-2.1,11.11,11.11,0,0,1-.1-1.464,18.348,18.348,0,0,1,2.883-9.554,8.932,8.932,0,0,1,2.773-3.12,4.835,4.835,0,0,1,1.231-.545c.656-.184,1.059.119.95.776Zm13.245,16.876,4.761-5.559C281.1,569.343,277.593,573.464,276.143,572.837Zm15.2-3.741c-.336.193-.7.332-1.048.51-.316.164-.42,0-.429-.273a1.84,1.84,0,0,1,.072-.556A11.968,11.968,0,0,1,293.529,563l.123-.063a5.1,5.1,0,0,1-2.3,6.16Z"
          transform="translate(96.013 -267.001)" fill="#cb6699" fill-rule="evenodd"/>
    <g id="Gruppe_310" data-name="Gruppe 310" transform="translate(0 -267)">
        <path id="Pfad_49" data-name="Pfad 49" d="M116.691,467.06l-5.815-65.221h63.9l-5.824,65.211L142.785,474.3Z"
              fill="#1572b6"/>
        <path id="Pfad_50" data-name="Pfad 50" d="M142.824,468.759l21.145-5.86,4.974-55.726H142.824Z" fill="#33a9dc"/>
        <path id="Pfad_51" data-name="Pfad 51"
              d="M142.824,430.8H153.41l.731-8.191H142.824v-8h20.059l-.192,2.146L160.724,438.8h-17.9Z" fill="#fff"/>
        <path id="Pfad_52" data-name="Pfad 52"
              d="M142.872,451.575l-.035.01-8.909-2.4-.57-6.38H125.33l1.12,12.56,16.385,4.548.036-.01Z" fill="#ebebeb"/>
        <path id="Pfad_53" data-name="Pfad 53"
              d="M152.729,438.462l-.964,10.712-8.921,2.413v8.322l16.4-4.545.12-1.352,1.392-15.547Z" fill="#fff"/>
        <path id="Pfad_54" data-name="Pfad 54"
              d="M142.852,414.611v8H123.53l-.16-1.8-.364-4.055-.194-2.145h20.04Zm-.027,16.191v8h-8.8l-.16-1.8-.365-4.055-.188-2.145Z"
              fill="#ebebeb"/>
    </g>
    <path id="Pfad_43" data-name="Pfad 43"
          d="M90.209,310.984a6.243,6.243,0,0,0-.789-3.2,6.028,6.028,0,0,0-2.307-2.248q-12.78-7.366-25.58-14.733a6.3,6.3,0,0,0-6.8.059c-3.392,1.992-20.393,11.735-25.442,14.674a5.9,5.9,0,0,0-3.1,5.463v29.663a6.467,6.467,0,0,0,.749,3.136,6.184,6.184,0,0,0,2.347,2.327c5.069,2.939,22.05,12.662,25.442,14.674a6.258,6.258,0,0,0,6.8.059q12.78-7.4,25.58-14.733a5.919,5.919,0,0,0,2.347-2.327,6.467,6.467,0,0,0,.749-3.136Z"
          transform="translate(0 -267)" fill="#9a4993"/>
    <path id="Pfad_44" data-name="Pfad 44"
          d="M58.279,325.717,26.9,343.784a6.184,6.184,0,0,0,2.347,2.327c5.069,2.939,22.05,12.662,25.442,14.673a6.257,6.257,0,0,0,6.8.059q12.78-7.4,25.58-14.733a5.919,5.919,0,0,0,2.347-2.327Z"
          transform="translate(0 -267)" fill="#6a1577"/>
    <path id="Pfad_45" data-name="Pfad 45" d="M48.989,331.062A10.58,10.58,0,0,0,67.41,331l-9.132-5.286Z"
          transform="translate(0 -267)" fill="#6a1577"/>
    <path id="Pfad_46" data-name="Pfad 46"
          d="M90.212,310.984a6.244,6.244,0,0,0-.789-3.2L58.279,325.717,89.46,343.783a6.467,6.467,0,0,0,.75-3.136Z"
          transform="translate(0 -267)" fill="#813084"/>
    <g id="Gruppe_34" data-name="Gruppe 34" transform="translate(0 -267)">
        <path id="Pfad_47" data-name="Pfad 47"
              d="M67.41,331a10.6,10.6,0,1,1-.079-10.492l9.25-5.325a21.241,21.241,0,1,0,.079,21.162Zm11.7-10.216H77v10.2h2.11Zm4.674,0h-2.11v10.2h2.11Z"
              fill="#fff"/>
        <path id="Pfad_48" data-name="Pfad 48" d="M85.5,322.5H75.3v2.11H85.5Zm0,4.654H75.3v2.11H85.5Z" fill="#fff"/>
    </g>
    <g id="Gruppe_36" data-name="Gruppe 36" transform="translate(-208.23 -155.465)">
        <path id="Vereinigungsmenge_28" data-name="Vereinigungsmenge 28"
              d="M339.63,576.241V562.409s5.99,9.553,29.266,9.222,29.266-9.222,29.266-9.222v13.832c0,5.815-13.1,10.529-29.266,10.529S339.63,582.056,339.63,576.241Zm0-21.057V541.352s5.99,9.552,29.266,9.222,29.266-9.222,29.266-9.222v13.832c0,5.815-13.1,10.529-29.266,10.529S339.63,561,339.63,555.184Zm17.648-11.869a58.168,58.168,0,0,1-9.392-1.911A20.98,20.98,0,0,1,341.7,538.6c-1.349-.994-2.089-2.077-2.089-3.205V522.91a1.423,1.423,0,0,1,.006-.16c.084-1.188.978-2.312,2.517-3.33a23.584,23.584,0,0,1,6.359-2.679,60.621,60.621,0,0,1,9.218-1.786,96.18,96.18,0,0,1,22.343,0,60.664,60.664,0,0,1,9.217,1.786,23.627,23.627,0,0,1,6.359,2.679c1.541,1.018,2.437,2.142,2.523,3.33a2.658,2.658,0,0,1,.005.282V535.3c.041,1.16-.7,2.271-2.078,3.29a20.938,20.938,0,0,1-6.179,2.81,58.116,58.116,0,0,1-9.39,1.911,95.935,95.935,0,0,1-23.235,0Z"
              fill="#002b4f"/>
        <g id="Gruppe_35" data-name="Gruppe 35">
            <path id="Pfad_69" data-name="Pfad 69"
                  d="M370.676,572.881a3.852,3.852,0,0,0-1.421,2.39c-.151,1.443.151,6.008.151,6.008l-1.378-.581a33.04,33.04,0,0,0-.6-5.068,7.048,7.048,0,0,0-.726-1.95,6.1,6.1,0,0,0,.87-2.5c.194-1.529.42-4.511.42-4.511s.252,1.048.51,2.1a18.724,18.724,0,0,0,.75,2.587,3.963,3.963,0,0,0,1.424,1.525Z"
                  fill="#b8c4c2"/>
            <path id="Pfad_68" data-name="Pfad 68"
                  d="M367.983,518.531a12.541,12.541,0,0,1-.775,3.313c-.492.8-12.459,11.184-12.895,24.5s11.5,28.4,12.662,27.364c1.012-1.68,1.157-6.558,1.157-6.558l.137-16.317V524.878Z"
                  fill="#10aa50"/>
            <path id="Pfad_67" data-name="Pfad 67"
                  d="M367.977,518.561A23.948,23.948,0,0,0,370,522.644c3.306,3.921,12.342,14.612,12.066,27.271-.288,13.269-10.781,23.058-11.572,23.134s-1.951-3.4-2.448-5.263-.067-49.225-.067-49.225Z"
                  fill="#12924f"/>
        </g>
    </g>
    <g id="Gruppe_121" data-name="Gruppe 121" transform="translate(0 -267)">
        <path id="Pfad_138" data-name="Pfad 138"
              d="M259.947,311.007a6.358,6.358,0,0,0-.783-3.2,6.116,6.116,0,0,0-2.318-2.258q-12.792-7.378-25.59-14.741a6.282,6.282,0,0,0-6.808.067c-3.4,2-20.39,11.739-25.454,14.672a5.915,5.915,0,0,0-3.1,5.457v29.667a6.386,6.386,0,0,0,.749,3.137,6.1,6.1,0,0,0,2.351,2.322c5.065,2.933,22.062,12.67,25.456,14.672a6.283,6.283,0,0,0,6.81.067q12.791-7.384,25.594-14.742a6.1,6.1,0,0,0,2.353-2.319,6.394,6.394,0,0,0,.749-3.138V311.007"
              fill="#a9b9cb"/>
        <path id="Pfad_139" data-name="Pfad 139"
              d="M228.018,325.742l-31.38,18.068a6.1,6.1,0,0,0,2.353,2.32c5.065,2.933,22.062,12.67,25.456,14.672a6.283,6.283,0,0,0,6.81.067q12.793-7.384,25.593-14.743a6.1,6.1,0,0,0,2.353-2.319l-31.185-18.065"
              fill="#7f8b99"/>
        <path id="Pfad_140" data-name="Pfad 140"
              d="M218.722,331.094a10.591,10.591,0,0,0,18.427-.061l-9.133-5.29-9.294,5.351" fill="#7f8b99"/>
        <path id="Pfad_141" data-name="Pfad 141"
              d="M259.948,311.007a6.358,6.358,0,0,0-.783-3.2l-31.147,17.935L259.2,343.807a6.394,6.394,0,0,0,.749-3.138V311.006"
              fill="#7f8b99"/>
        <path id="Pfad_142" data-name="Pfad 142"
              d="M237.151,331.033a10.593,10.593,0,1,1-.069-10.509l9.259-5.332a21.274,21.274,0,1,0,.055,21.2l-9.245-5.357"
              fill="#fff"/>
    </g>
    <path id="Pfad_165" data-name="Pfad 165"
          d="M201.1,530.7a1.148,1.148,0,0,1,.04.3v15.55a1.134,1.134,0,0,1-.57.984l-13.056,7.517v14.9a1.137,1.137,0,0,1-.567.984L159.7,586.619a1.213,1.213,0,0,1-.2.082c-.026.009-.05.024-.077.031a1.14,1.14,0,0,1-.581,0c-.031-.009-.06-.026-.089-.037a1.176,1.176,0,0,1-.187-.077l-27.245-15.686a1.136,1.136,0,0,1-.57-.984V523.284a1.159,1.159,0,0,1,.04-.3c.009-.033.028-.062.04-.1a1.117,1.117,0,0,1,.072-.176,1.059,1.059,0,0,1,.078-.1,1.151,1.151,0,0,1,.1-.132,1.094,1.094,0,0,1,.112-.085.921.921,0,0,1,.125-.091l13.625-7.848a1.137,1.137,0,0,1,1.134,0L159.7,522.3a1.4,1.4,0,0,1,.125.1.563.563,0,0,1,.211.218,1.043,1.043,0,0,1,.077.1,1.182,1.182,0,0,1,.074.176,1.047,1.047,0,0,1,.04.1,1.148,1.148,0,0,1,.04.3V552.43l11.353-6.537v-14.9a1.146,1.146,0,0,1,.04-.295c.01-.034.028-.064.04-.1a1.276,1.276,0,0,1,.074-.176.949.949,0,0,1,.077-.1,1.166,1.166,0,0,1,.1-.132,1.1,1.1,0,0,1,.111-.085,1.149,1.149,0,0,1,.125-.1l13.629-7.838a1.136,1.136,0,0,1,1.134,0l13.624,7.844a1.25,1.25,0,0,1,.128.1c.035.028.077.054.109.085a1.329,1.329,0,0,1,.1.133.859.859,0,0,1,.077.1,1.124,1.124,0,0,1,.074.176.809.809,0,0,1,.04.1Zm-2.232,15.194V532.958l-4.767,2.747-6.587,3.79V552.43l11.355-6.537Zm-13.621,23.4V556.348l-6.479,3.7-18.5,10.557v13.067Zm-52.229-44.043v44.043L158,583.671V570.6l-13.047-7.381h-.006l-.23-.176a1.085,1.085,0,0,1-.094-.119,1.217,1.217,0,0,1-.085-.111.9.9,0,0,1-.06-.142.843.843,0,0,1-.054-.128,1.085,1.085,0,0,1-.023-.166.984.984,0,0,1-.017-.128V531.785l-6.592-3.794-4.768-2.742Zm12.49-8.5-11.352,6.536,11.348,6.534,11.35-6.535-11.349-6.533Zm5.9,40.777L158,553.734V525.248l-4.768,2.745-6.583,3.792v28.489Zm34.972-33.064-11.35,6.534,11.35,6.534,11.348-6.535Zm-1.133,15.034-6.589-3.79-4.768-2.745v12.933l6.585,3.791,4.772,2.746Zm-26.119,29.149,16.648-9.5,8.322-4.749-11.341-6.53L159.7,555.379l-11.9,6.852Z"
          transform="translate(196.922 -154.321)" fill="#ff2d20" fill-rule="evenodd"/>
    <g id="Gruppe_302" data-name="Gruppe 302" transform="translate(0 -267)">
        <g id="Gruppe_300" data-name="Gruppe 300">
            <path id="Pfad_177" data-name="Pfad 177"
                  d="M77.788,514.3l-9.662,16.735L58.462,514.3H26.288l41.837,72.465L109.962,514.3Z" fill="#41b883"/>
        </g>
        <g id="Gruppe_301" data-name="Gruppe 301">
            <path id="Pfad_178" data-name="Pfad 178"
                  d="M77.787,514.3l-9.662,16.735L58.463,514.3H43.022l25.1,43.478L93.227,514.3Z" fill="#34495e"/>
        </g>
    </g>
    <g id="Gruppe_303" data-name="Gruppe 303" transform="translate(0 -267)">
        <path id="Pfad_179" data-name="Pfad 179"
              d="M297.861,345.52s-2.75,1.6,1.959,2.14a41.208,41.208,0,0,0,14.908-.63,26.128,26.128,0,0,0,3.964,1.933c-14.1,6.039-31.9-.35-20.831-3.443Zm-1.723-7.882s-3.085,2.284,1.628,2.772A58.166,58.166,0,0,0,317,339.483a8.5,8.5,0,0,0,2.96,1.806c-17.04,4.984-36.019.392-23.827-3.655Z"
              fill="#0074bd"/>
        <path id="Pfad_180" data-name="Pfad 180"
              d="M310.656,324.262c3.475,4-.911,7.6-.911,7.6s8.819-4.552,4.77-10.254c-3.783-5.315-6.683-7.955,9.018-17.062,0,0-24.647,6.155-12.877,19.716Z"
              fill="#ea2d2e"/>
        <path id="Pfad_181" data-name="Pfad 181"
              d="M329.3,351.35s2.036,1.679-2.243,2.976c-8.134,2.464-33.862,3.207-41.007.1-2.567-1.118,2.249-2.668,3.764-2.995a9.836,9.836,0,0,1,2.482-.28c-2.857-2.011-18.465,3.951-7.927,5.661,28.737,4.658,52.384-2.1,44.931-5.462Zm-30.116-21.881s-13.085,3.108-4.633,4.238c3.569.478,10.681.368,17.311-.188,5.416-.455,10.851-1.427,10.851-1.427a23.1,23.1,0,0,0-3.29,1.761c-13.291,3.5-38.96,1.868-31.569-1.706a24.738,24.738,0,0,1,11.331-2.678Zm23.474,13.121c13.509-7.018,7.263-13.763,2.9-12.854a10.122,10.122,0,0,0-1.544.415,2.455,2.455,0,0,1,1.154-.89c8.625-3.031,15.257,8.942-2.782,13.685a1.225,1.225,0,0,0,.272-.356Z"
              fill="#0074bd"/>
        <path id="Pfad_182" data-name="Pfad 182"
              d="M314.515,289.839s7.48,7.485-7.1,18.99c-11.69,9.232-2.665,14.5,0,20.511-6.824-6.156-11.83-11.576-8.472-16.621,4.929-7.4,18.592-10.993,15.572-22.88Z"
              fill="#ea2d2e"/>
        <path id="Pfad_183" data-name="Pfad 183"
              d="M300.512,361.613c12.964.829,32.878-.461,33.349-6.6,0,0-.906,2.326-10.715,4.171a106.531,106.531,0,0,1-32.813.5s1.658,1.373,10.179,1.921Z"
              fill="#0074bd"/>
    </g>
    <g id="Gruppe_307" data-name="Gruppe 307" transform="translate(0 -267)">
        <g id="html5">
            <path id="Pfad_55-2" data-name="Pfad 55"
                  d="M370.747,467.061l-5.815-65.222h63.9l-5.824,65.212L396.842,474.3Z" fill="#6c7db7"/>
            <path id="Pfad_56-2" data-name="Pfad 56" d="M396.881,468.76l21.144-5.862L423,407.172H396.881Z"
                  fill="#9a9fc5"/>
        </g>
        <path id="Differenzmenge_5" data-name="Differenzmenge 5"
              d="M388.537,458.557l-8.044-2.379-3.656-41.012h40.087L414.75,439.5H386.987l1.55,19.061Zm-2.95-35.146.753,8.2h21.185l.74-8.2Z"
              fill="#ebebeb"/>
        <path id="Schnittmenge_5" data-name="Schnittmenge 5"
              d="M396.881,439.495v-7.889h10.644l.74-8.2H396.881v-8.24h20.044l-2.175,24.329Z" fill="#fff"/>
    </g>
    <g id="Gruppe_309" data-name="Gruppe 309" transform="translate(0 -267)">
        <path id="path13" d="M286.062,467.062l-5.815-65.222h63.9l-5.821,65.211-26.17,7.254Zm0,0" fill="#27609e"/>
        <path id="path15" d="M312.2,468.76,333.34,462.9l4.974-55.726H312.2Zm0,0" fill="#3c84d2"/>
        <path id="path18"
              d="M334.053,430.8H322.778V422.61h11.986l.71-8H314.417V438.8h10.906l-.963,10.374-9.942,1.81v8.339l17.419-3.964Z"
              fill="#fff"/>
        <g id="Gruppe_308" data-name="Gruppe 308">
            <path id="Vereinigungsmenge_31" data-name="Vereinigungsmenge 31"
                  d="M294.516,414.611l3.42,41.7,7.965,2.155-3.353-43.855Z" fill="#ebebeb"/>
            <path id="Pfad_200" data-name="Pfad 200" d="M309.9,414.611v8H287.724l-.494-8Z" fill="#ebebeb"/>
        </g>
    </g>
    <g id="Layer_2" data-name="Layer 2" transform="translate(224.329 361.167)">
        <g id="logos" transform="translate(-0.104 -0.081)">
            <path id="Path_292" data-name="Path 292"
                  d="M62.864,3.961a30.109,30.109,0,0,1-3.7,6.474A34.478,34.478,0,1,0,11,59.74l1.281,1.138A34.442,34.442,0,0,0,68.84,36.973C69.837,28.293,67.2,17.194,62.864,3.961ZM15.978,60.025a2.931,2.931,0,1,1-.427-4.127A3,3,0,0,1,15.978,60.025ZM62.651,49.708c-8.467,11.312-26.68,7.47-38.277,8.04,0,0-2.063.142-4.127.427,0,0,.783-.356,1.779-.711,8.182-2.846,12.024-3.415,17-5.976,9.32-4.767,18.641-15.225,20.49-26.04C55.963,35.835,45.148,44.8,35.33,48.428,28.571,50.918,16.4,53.337,16.4,53.337l-.5-.285C7.654,49,7.369,31.068,22.452,25.3c6.617-2.561,12.878-1.138,20.064-2.846,7.613-1.779,16.435-7.47,19.992-14.941C66.493,19.542,71.331,38.183,62.651,49.708Z"
                  transform="translate(0.104 0.081)" fill="#6db33f"/>
        </g>
    </g>
    <g id="react_icon_130845" transform="translate(203.831 225.986)">
        <circle id="Ellipse_25" data-name="Ellipse 25" cx="7.5" cy="7.5" r="7.5" transform="translate(47 47)"
                fill="#61dafb"/>
        <path id="Path_293" data-name="Path 293"
              d="M124.971,140.914c10.424-18.766,12.658-36.712,4.99-40.085s-22.336,9.1-32.762,27.868-12.664,36.714-5,40.093,22.332-9.093,32.761-27.857Zm-26.125.019c10.429,18.764,25.1,31.235,32.76,27.856s5.427-21.328-5-40.093-25.094-31.241-32.762-27.867-5.434,21.319,4.99,40.085Zm13.068,7.532c21.483,0,38.9-6.76,38.892-15.1s-17.414-15.09-38.9-15.091S73,125.035,73,133.37s17.414,15.094,38.9,15.1Z"
              transform="translate(-57.481 -78.961)" fill="none" stroke="#61dafb" stroke-width="4"/>
    </g>
    <g id="Group_327" data-name="Group 327" transform="translate(98.851 219.004)">
        <path id="Path_294" data-name="Path 294"
              d="M65.8,30h0L31.9,42.091l5.171,44.83L65.8,102.835h0L94.538,86.921l5.171-44.83Z" fill="#dd0031"/>
        <path id="Path_295" data-name="Path 295" d="M125,30V74.939h0v27.9h0l28.733-15.914,5.171-44.83Z"
              transform="translate(-59.195)" fill="#c3002f"/>
        <path id="Path_296" data-name="Path 296"
              d="M88,52.1,66.8,99.625h7.9l4.261-10.634h17.99l4.261,10.634h7.9L88,52.1Zm6.191,30.336H81.8L88,67.541Z"
              transform="translate(-22.19 -14.052)" fill="#fff"/>
    </g>
    <g id="Layer_x0020_3" transform="translate(26.185 341.908)">
        <path id="Path_297" data-name="Path 297"
              d="M71.3,71.063c.486-4.045.34-4.638,3.353-3.983l.765.067a17.429,17.429,0,0,0,7.128-1.2c3.833-1.778,6.105-4.748,2.326-3.967-8.621,1.778-9.213-1.141-9.213-1.141,9.1-13.506,12.908-30.651,9.624-34.848C76.327,14.544,60.82,19.958,60.561,20.1l-.083.015a30.729,30.729,0,0,0-5.751-.6,14.206,14.206,0,0,0-9.107,2.726s-27.664-11.4-26.377,14.333c.274,5.474,7.846,41.418,16.877,30.561,3.3-3.97,6.491-7.327,6.491-7.327a8.373,8.373,0,0,0,5.469,1.4l.154-.131a6,6,0,0,0,.062,1.546c-2.326,2.6-1.643,3.056-6.294,4.013-4.706.97-1.941,2.7-.137,3.148,2.188.547,7.251,1.322,10.672-3.466l-.136.546c.913.73.851,5.248.98,8.476s.346,6.24,1,8.016,1.434,6.35,7.547,5.04c5.109-1.095,9.015-2.671,9.371-17.329"
              transform="translate(-15.909 -0.515)" stroke="#000" stroke-width="1"/>
        <path id="Path_298" data-name="Path 298"
              d="M84.873,61.979c-8.621,1.778-9.214-1.141-9.214-1.141,9.1-13.507,12.908-30.652,9.624-34.849C76.324,14.543,60.816,19.956,60.557,20.1l-.083.015a30.745,30.745,0,0,0-5.752-.6,14.206,14.206,0,0,0-9.106,2.725s-27.665-11.4-26.378,14.334c.274,5.474,7.846,41.418,16.877,30.561,3.3-3.97,6.49-7.327,6.49-7.327a8.373,8.373,0,0,0,5.469,1.4l.154-.131a6.028,6.028,0,0,0,.062,1.546c-2.327,2.6-1.643,3.056-6.294,4.013-4.706.97-1.942,2.7-.136,3.148,2.188.547,7.251,1.322,10.672-3.466l-.136.546c.912.73,1.552,4.749,1.444,8.393s-.179,6.145.539,8.1,1.434,6.35,7.548,5.04c5.109-1.095,7.757-3.932,8.125-8.665.261-3.365.853-2.867.89-5.875l.474-1.424c.547-4.561.087-6.032,3.235-5.348l.765.067a17.43,17.43,0,0,0,7.128-1.2c3.832-1.778,6.1-4.748,2.326-3.967Z"
              transform="translate(-15.905 -0.514)" fill="#336791"/>
        <path id="Path_299" data-name="Path 299"
              d="M215.484,286.484c-.237,8.487.06,17.032.89,19.109s2.609,6.117,8.724,4.807c5.109-1.1,6.967-3.215,7.774-7.893.594-3.442,1.739-13,1.886-14.959"
              transform="translate(-178.486 -222.405)" fill="none" stroke="#fff" stroke-linecap="round"
              stroke-linejoin="round" stroke-width="1"/>
        <path id="Path_300" data-name="Path 300"
              d="M45.278,26.278s-27.684-11.315-26.4,14.416c.274,5.474,7.846,41.419,16.878,30.562,3.3-3.97,6.285-7.085,6.285-7.085"
              transform="translate(-15.609 -4.743)" fill="none" stroke="#fff" stroke-linecap="round"
              stroke-linejoin="round" stroke-width="1"/>
        <path id="Path_301" data-name="Path 301"
              d="M260.154,19.47c-.958.3,15.4-5.98,24.7,5.9,3.284,4.2-.522,21.342-9.624,34.849"
              transform="translate(-215.532)" fill="none" stroke="#fff" stroke-linecap="round" stroke-linejoin="round"
              stroke-width="1"/>
        <path id="Path_302" data-name="Path 302"
              d="M169,64.146s.593,2.92,9.215,1.14c3.777-.78,1.5,2.189-2.327,3.969-3.144,1.459-10.193,1.833-10.309-.183-.3-5.2,3.71-3.622,3.421-4.926-.261-1.174-2.053-2.326-3.238-5.2-1.035-2.508-14.191-21.741,3.648-18.885.654-.135-4.653-16.968-21.347-17.242s-16.143,20.526-16.143,20.526"
              transform="translate(-109.311 -3.928)" fill="none" stroke="#fff" stroke-linecap="round"
              stroke-linejoin="bevel" stroke-width="1"/>
        <path id="Path_303" data-name="Path 303"
              d="M145.6,269.718c-2.327,2.6-1.643,3.056-6.294,4.013-4.706.97-1.941,2.7-.137,3.148,2.188.548,7.251,1.323,10.672-3.467,1.042-1.458-.006-3.785-1.437-4.379A2.113,2.113,0,0,0,145.6,269.718Z"
              transform="translate(-113.27 -207.721)" fill="none" stroke="#fff" stroke-linecap="round"
              stroke-linejoin="round" stroke-width="1"/>
        <path id="Path_304" data-name="Path 304"
              d="M140.107,149.6c-.234-1.528.5-3.347,1.292-5.475,1.186-3.192,3.924-6.385,1.734-16.512-1.632-7.546-12.58-1.57-12.586-.547a51.362,51.362,0,0,1-.183,10.035c-.885,6.327,4.026,11.677,9.68,11.13"
              transform="translate(-107.935 -87.649)" fill="none" stroke="#fff" stroke-linecap="round"
              stroke-linejoin="round" stroke-width="1"/>
        <path id="Path_305" data-name="Path 305"
              d="M172.5,139.547c-.049.349.64,1.282,1.538,1.407a1.657,1.657,0,0,0,1.714-.953c.049-.349-.64-.734-1.539-.86s-1.666.057-1.713.406Z"
              transform="translate(-142.937 -100.283)" fill="#fff" stroke="#fff" stroke-width="1"/>
        <path id="Path_306" data-name="Path 306"
              d="M316.2,135.391c.049.349-.64,1.282-1.538,1.407a1.658,1.658,0,0,1-1.715-.953c-.047-.349.641-.734,1.539-.86s1.666.057,1.714.406Z"
              transform="translate(-259.31 -96.839)" fill="#fff" stroke="#fff" stroke-width="1"/>
        <path id="Path_307" data-name="Path 307"
              d="M341.413,123.432c.148,2.741-.59,4.608-.684,7.527-.138,4.242,2.022,9.1-1.232,13.957"
              transform="translate(-281.31 -87.299)" fill="none" stroke="#fff" stroke-linecap="round"
              stroke-linejoin="round" stroke-width="1"/>
        <path id="Path_308" data-name="Path 308" d="M0,60.232" transform="translate(0 -34.93)" fill="none" stroke="#fff"
              stroke-linecap="round" stroke-linejoin="round" stroke-width="1"/>
    </g>
</svg>
