<svg width="530" height="573" viewBox="0 0 530 573" fill="none" xmlns="http://www.w3.org/2000/svg">
    <rect width="530" height="573" rx="17" fill="black" fill-opacity="0.2"/>
    <path d="M174.891 48.171C174.915 47.0541 174.645 45.9504 174.108 44.971C173.552 44.0239 172.751 43.2439 171.79 42.713C163.262 37.7943 154.732 32.8807 146.2 27.972C145.179 27.3277 143.993 26.9914 142.786 27.0032C141.578 27.0151 140.4 27.3747 139.392 28.039C135.992 30.039 119.002 39.778 113.938 42.711C112.961 43.2372 112.152 44.0276 111.603 44.9918C111.053 45.9561 110.787 47.0553 110.833 48.164V77.831C110.81 78.9235 111.068 80.0036 111.582 80.968C112.137 81.9435 112.95 82.747 113.933 83.29C118.998 86.223 135.995 95.96 139.389 97.962C140.397 98.6266 141.576 98.9863 142.784 98.9982C143.992 99.0101 145.177 98.6736 146.199 98.029C154.726 93.1063 163.257 88.192 171.793 83.286C172.775 82.7442 173.59 81.9417 174.146 80.967C174.66 80.0022 174.917 78.9218 174.895 77.829V48.17" fill="#5C8DBC"/>
    <path d="M142.962 62.906L111.582 80.974C112.138 81.9491 112.952 82.7519 113.935 83.294C119 86.227 135.997 95.964 139.391 97.966C140.4 98.6306 141.578 98.9903 142.786 99.0022C143.994 99.0141 145.18 98.6776 146.201 98.033C154.73 93.1103 163.261 88.196 171.794 83.29C172.777 82.7482 173.591 81.9457 174.147 80.971L142.962 62.906Z" fill="#1A4674"/>
    <path d="M133.666 68.258C134.595 69.8845 135.939 71.2356 137.561 72.1732C139.183 73.1109 141.024 73.6016 142.897 73.5954C144.771 73.5892 146.609 73.0863 148.224 72.1379C149.84 71.1895 151.175 69.8296 152.093 68.197L142.96 62.907L133.666 68.258Z" fill="#1A4674"/>
    <path d="M174.892 48.1712C174.917 47.0542 174.647 45.9505 174.109 44.9712L142.962 62.9062L174.146 80.9712C174.66 80.0064 174.918 78.926 174.895 77.8332V48.1702" fill="#1B598E"/>
    <path d="M173.177 64.1971H170.74V66.6342H168.303V64.1971H165.866V61.7642H168.303V59.3271H170.74V61.7642H173.177V64.2011M164.285 64.2011H161.848V66.6382H159.415V64.2011H156.978V61.7642H159.415V59.3271H161.852V61.7642H164.291V64.2011" fill="white"/>
    <path d="M152.095 68.1971C150.949 70.2331 149.163 71.8332 147.014 72.7487C144.865 73.6642 142.473 73.8436 140.212 73.2589C137.95 72.6743 135.945 71.3585 134.509 69.5162C133.072 67.674 132.285 65.4086 132.27 63.0726C132.255 60.7366 133.012 58.4611 134.424 56.6001C135.836 54.7391 137.823 53.3971 140.077 52.7828C142.331 52.1686 144.725 52.3165 146.886 53.2037C149.047 54.0908 150.854 55.6674 152.026 57.6881L161.285 52.3561C158.939 48.2986 155.319 45.1293 150.987 43.3405C146.655 41.5517 141.854 41.2434 137.328 42.4637C132.803 43.6839 128.808 46.3643 125.962 50.0886C123.117 53.8128 121.581 58.3724 121.593 63.0592C121.605 67.746 123.165 72.2975 126.03 76.007C128.894 79.7164 132.904 82.376 137.435 83.5728C141.967 84.7695 146.766 84.4364 151.089 82.6251C155.412 80.8138 159.015 77.6258 161.34 73.5561L152.095 68.1991" fill="white"/>
    <path d="M31.8199 204.225L26.0049 139.003H89.9049L84.0809 204.215L57.9149 211.464L31.8199 204.225Z" fill="#E44D26"/>
    <path d="M57.9541 205.925L79.0981 200.064L84.0731 144.338H57.9541V205.925Z" fill="#F16529"/>
    <path d="M57.954 168.526H47.368L46.637 160.336H57.954V152.336H37.895L38.087 154.482L40.053 176.526H57.953L57.954 168.526ZM57.954 189.301L57.919 189.311L49.006 186.904L48.437 180.525H40.406L41.527 193.085L57.917 197.636L57.954 197.626V189.301Z" fill="#EBEBEB"/>
    <path d="M57.9258 168.526V176.526H67.7738L66.8458 186.9L57.9238 189.308V197.631L74.3238 193.086L74.4448 191.736L76.3248 170.677L76.5198 168.529H57.9258V168.526ZM57.9258 152.335V160.335H77.2478L77.4078 158.535L77.7728 154.479L77.9638 152.333L57.9258 152.335Z" fill="white"/>
    <path d="M201.192 204.225L195.377 139.003H259.277L253.456 204.214L227.286 211.469L201.192 204.225Z" fill="#D4B830"/>
    <path d="M227.328 205.924L248.471 200.062L253.445 144.336H227.328V205.924Z" fill="#FDD83C"/>
    <path d="M249.183 167.964H237.908V159.774H249.894L250.604 151.774H229.547V175.964H240.453L239.49 186.338L229.548 188.148V196.487L246.967 192.523L249.183 167.964ZM225.177 151.773H207.315L208.057 159.773H217.148V186.994L212.693 186.342L212.123 179.962H204.093L205.213 192.522C225.177 196.485 205.289 192.522 225.177 196.485V151.773Z" fill="white"/>
    <path d="M394.097 27.0011C391.346 27.0039 388.601 27.2381 385.889 27.7011C378.615 28.9851 377.297 31.6731 377.297 36.6311V43.1771H394.473V45.3591H370.849C368.321 45.313 365.858 46.1617 363.894 47.7554C361.931 49.3491 360.594 51.5853 360.119 54.0691C358.507 59.7764 358.507 65.8188 360.119 71.5261C361.34 76.6121 364.256 80.2341 369.248 80.2341H375.154V72.3861C375.216 69.565 376.369 66.8776 378.369 64.8877C380.37 62.8977 383.064 61.76 385.885 61.7131H403.042C404.179 61.7045 405.304 61.4718 406.351 61.0284C407.398 60.585 408.347 59.9396 409.145 59.129C409.943 58.3184 410.573 57.3586 410.999 56.3044C411.425 55.2502 411.64 54.1223 411.63 52.9851V36.6311C411.63 31.9751 407.703 28.4781 403.042 27.7011C400.084 27.2182 397.09 26.984 394.092 27.0011H394.097ZM384.803 32.2661C385.452 32.256 386.09 32.4391 386.635 32.7922C387.18 33.1454 387.607 33.6525 387.863 34.2492C388.119 34.8459 388.192 35.5052 388.072 36.1433C387.952 36.7815 387.646 37.3696 387.191 37.833C386.736 38.2964 386.154 38.6141 385.518 38.7457C384.882 38.8774 384.222 38.817 383.62 38.5723C383.019 38.3276 382.504 37.9096 382.141 37.3715C381.777 36.8334 381.582 36.1994 381.58 35.5501C381.577 34.6888 381.914 33.8612 382.517 33.2465C383.121 32.6317 383.942 32.2795 384.803 32.2661Z" fill="url(#paint0_linear_148_838)"/>
    <path d="M413.772 45.3601V52.9881C413.741 55.8395 412.605 58.5675 410.604 60.5988C408.603 62.6301 405.892 63.8063 403.041 63.8801H385.884C383.597 63.9256 381.417 64.8642 379.812 66.4954C378.208 68.1266 377.305 70.3209 377.296 72.6091V88.9641C377.296 93.6181 381.343 96.3571 385.884 97.6921C391.47 99.4384 397.456 99.4384 403.041 97.6921C407.365 96.4391 411.629 93.9201 411.629 88.9641V82.4171H394.473V80.2341H420.218C425.21 80.2341 427.071 76.7521 428.807 71.5261C430.6 66.1451 430.523 60.9711 428.807 54.0691C427.573 49.0991 425.217 45.3591 420.218 45.3591L413.772 45.3601ZM404.121 86.7801C404.771 86.77 405.41 86.9536 405.955 87.3076C406.5 87.6616 406.928 88.1699 407.183 88.7678C407.439 89.3657 407.51 90.026 407.389 90.6647C407.268 91.3034 406.959 91.8915 406.502 92.3541C406.045 92.8167 405.461 93.1329 404.824 93.2622C404.187 93.3916 403.526 93.3284 402.925 93.0806C402.324 92.8329 401.81 92.4118 401.449 91.871C401.088 91.3302 400.896 90.6942 400.898 90.0441C400.895 89.6181 400.976 89.1956 401.137 88.8009C401.297 88.4062 401.534 88.047 401.833 87.7439C402.132 87.4407 402.489 87.1996 402.881 87.0342C403.274 86.8688 403.695 86.7825 404.121 86.7801Z" fill="url(#paint1_linear_148_838)"/>
    <path fill-rule="evenodd" clip-rule="evenodd" d="M317.76 281.685C317.78 282.111 317.864 282.532 318.009 282.934C318.653 285.151 319.79 287.195 321.334 288.912C323.512 291.367 325.989 293.54 328.707 295.381C331.013 297.039 333.366 298.659 335.681 300.305C336.081 300.587 336.454 300.912 336.881 301.259C336.51 301.459 336.201 301.636 335.881 301.799C332.815 303.314 329.902 305.119 327.181 307.19C325.495 308.387 324.031 309.868 322.854 311.568C321.06 314.402 320.425 317.421 321.762 320.644C322.136 321.586 322.769 322.403 323.589 323C323.857 323.21 324.162 323.367 324.489 323.463C325.305 323.655 326.137 323.781 326.964 323.933H329.305C331.849 323.706 334.288 322.814 336.379 321.346C339.66 319.177 341.995 315.843 342.912 312.018C343.642 309.191 343.608 306.22 342.812 303.411C342.732 303.144 342.641 302.883 342.539 302.628C342.439 302.371 342.321 302.121 342.182 301.801L347.488 298.75L347.567 298.818C347.467 299.134 347.367 299.448 347.281 299.767C346.593 302.046 346.289 304.424 346.381 306.803C346.491 309.33 347.309 311.775 348.741 313.86C349.057 314.267 349.461 314.597 349.922 314.826C350.384 315.055 350.891 315.176 351.406 315.182C351.921 315.188 352.431 315.077 352.898 314.858C353.364 314.639 353.775 314.318 354.1 313.918C354.568 313.311 354.978 312.662 355.326 311.979C356.191 310.192 356.992 308.379 357.819 306.569L357.963 306.239C357.904 307.094 357.834 307.845 357.802 308.597C357.715 309.766 357.858 310.94 358.223 312.054C358.338 312.523 358.593 312.947 358.954 313.268C359.315 313.59 359.765 313.794 360.245 313.854C360.592 313.875 360.94 313.824 361.266 313.706C361.593 313.587 361.892 313.402 362.145 313.163C362.997 312.489 363.704 311.649 364.222 310.694C365.689 308 367.195 305.322 368.522 302.56C369.96 299.573 371.222 296.498 372.554 293.46L372.775 292.921C373.091 294.161 373.311 295.376 373.716 296.521C374.197 297.855 374.76 299.157 375.404 300.421C375.557 300.647 375.626 300.92 375.598 301.192C375.571 301.464 375.449 301.718 375.254 301.909C373.513 304.009 371.802 306.133 370.09 308.255C369.702 308.717 369.344 309.204 369.018 309.712C368.826 310.035 368.701 310.393 368.648 310.765C368.595 311.107 368.676 311.457 368.875 311.74C369.074 312.024 369.375 312.219 369.715 312.286C370.401 312.434 371.105 312.484 371.805 312.435C374.154 312.263 376.403 311.417 378.284 309.999C379.43 309.201 380.302 308.069 380.782 306.757C381.262 305.445 381.325 304.017 380.964 302.668C380.778 301.861 380.534 301.068 380.233 300.296C380.161 300.148 380.132 299.983 380.15 299.82C380.168 299.656 380.231 299.501 380.333 299.372C382.29 296.52 384.049 293.537 385.597 290.444C385.66 290.311 385.739 290.186 385.833 290.072C386.275 292.726 387.176 295.284 388.495 297.629C387.795 298.307 387.095 298.922 386.464 299.6C385.024 301.034 383.924 302.773 383.246 304.688C382.933 305.526 382.811 306.424 382.889 307.316C382.909 307.639 383 307.953 383.156 308.237C383.311 308.521 383.526 308.767 383.787 308.959C384.047 309.15 384.347 309.283 384.664 309.346C384.981 309.409 385.309 309.403 385.623 309.326C388.566 308.747 391.201 307.123 393.041 304.754C393.613 303.975 393.989 303.069 394.137 302.113C394.285 301.158 394.2 300.181 393.89 299.265C393.745 298.734 393.573 298.212 393.39 297.603C394.124 297.375 394.839 297.103 395.579 296.933C399.342 296.017 403.294 296.248 406.925 297.597C409.078 298.318 410.856 299.865 411.869 301.897C412.506 303.041 412.665 304.391 412.31 305.652C411.956 306.913 411.117 307.982 409.977 308.627C409.735 308.76 409.507 308.916 409.296 309.094C409.235 309.165 409.19 309.247 409.162 309.336C409.135 309.425 409.127 309.519 409.138 309.611C409.154 309.706 409.405 309.825 409.549 309.823C410.318 309.756 411.049 309.454 411.641 308.958C412.43 308.468 413.103 307.813 413.616 307.038C414.128 306.263 414.466 305.386 414.608 304.468L414.657 304.323L414.597 303.068C414.573 302.995 414.615 302.924 414.609 302.868C414.43 301.536 413.981 300.255 413.289 299.103C412.597 297.95 411.677 296.952 410.586 296.168C408.078 294.292 405.036 293.268 401.905 293.245C399.341 293.135 396.781 293.529 394.369 294.405C393.677 294.656 392.991 294.953 392.295 295.233C392.202 295.064 392.101 294.902 392.019 294.733C391.168 293.332 390.568 291.794 390.246 290.187C390.03 289.011 390.024 287.805 390.227 286.627C390.499 285.493 390.854 284.379 391.189 283.261C391.243 283.154 391.273 283.036 391.277 282.915C391.281 282.795 391.258 282.675 391.21 282.565C391.163 282.454 391.091 282.355 391.001 282.276C390.911 282.196 390.804 282.137 390.689 282.103C390.497 282.007 390.293 281.94 390.082 281.903C388.745 281.713 387.384 281.816 386.091 282.203C385.867 282.247 385.663 282.357 385.502 282.519C385.342 282.681 385.233 282.886 385.191 283.11C385.132 283.404 385.013 283.686 384.929 283.976C384.654 285.202 384.274 286.401 383.792 287.561C382.408 290.443 380.827 293.217 379.21 295.97C379.035 296.27 378.85 296.559 378.63 296.919C378.003 295.826 377.545 294.644 377.273 293.414C376.987 292.02 376.98 290.583 377.254 289.186C377.516 288.14 377.854 287.112 378.172 286.08C378.22 285.991 378.248 285.893 378.255 285.792C378.263 285.691 378.249 285.59 378.215 285.495C378.18 285.4 378.126 285.313 378.056 285.241C377.986 285.168 377.901 285.111 377.808 285.073C377.583 284.934 377.335 284.838 377.076 284.789C375.691 284.578 374.276 284.694 372.944 285.127C372.752 285.185 372.58 285.294 372.445 285.441C372.311 285.589 372.218 285.77 372.177 285.966C371.846 287.254 371.437 288.521 370.951 289.759C368.81 294.667 366.608 299.55 364.408 304.432C363.949 305.451 363.408 306.432 362.893 307.432C362.746 307.678 362.583 307.915 362.407 308.141C362.304 308.045 362.239 307.914 362.226 307.773C362.184 307.146 362.2 306.517 362.275 305.893C362.642 304.058 363.048 302.232 363.493 300.415C363.856 298.915 364.278 297.425 364.68 295.934C364.768 295.704 364.793 295.455 364.755 295.211C364.716 294.968 364.614 294.739 364.459 294.548C364.128 294.202 363.686 293.981 363.211 293.923C362.735 293.866 362.254 293.975 361.85 294.232L361.52 294.419L361.584 293.887C361.778 292.757 361.735 291.6 361.46 290.487C361.329 289.842 360.968 289.268 360.445 288.87C359.921 288.471 359.271 288.278 358.615 288.324C357.926 288.337 357.244 288.467 356.599 288.708C354.045 289.782 351.833 291.531 350.199 293.768C350.038 293.971 349.84 294.141 349.615 294.268C347.382 295.506 345.143 296.728 342.904 297.955L340.413 299.321C339.745 298.684 339.137 298.021 338.448 297.461C336.348 295.745 334.205 294.071 332.086 292.374C330.155 290.939 328.441 289.235 326.996 287.312C325.933 285.877 325.319 284.16 325.229 282.377C325.171 280.099 325.787 277.854 326.999 275.924C328.562 273.452 330.551 271.276 332.873 269.498C335.297 267.574 337.88 265.86 340.596 264.375C344.338 262.197 348.312 260.444 352.443 259.147C356.659 257.769 361.112 257.263 365.53 257.658C367.288 257.81 369 258.307 370.567 259.12C371.788 259.696 372.737 260.725 373.213 261.988C373.636 263.287 373.68 264.681 373.338 266.004C372.648 268.648 371.264 271.059 369.329 272.988C366.267 276.198 362.464 278.607 358.254 280.004C355.82 280.856 353.288 281.396 350.718 281.611C348.634 281.821 346.53 281.568 344.556 280.869C343.244 280.41 342.074 279.617 341.161 278.569C340.996 278.376 340.784 278.169 340.476 278.348C340.346 278.418 340.247 278.536 340.2 278.676C340.153 278.816 340.161 278.969 340.222 279.104C340.368 279.596 340.565 280.071 340.81 280.522C341.497 281.567 342.417 282.438 343.498 283.067C345.521 284.265 347.829 284.898 350.181 284.901C353.742 285.014 357.299 284.561 360.718 283.558C365.584 282.299 369.978 279.648 373.362 275.93C376.305 272.899 378.18 268.991 378.703 264.799C378.977 262.701 378.627 260.569 377.697 258.669C376.617 256.628 374.927 254.975 372.862 253.942C369.937 252.356 366.67 251.507 363.343 251.469H360.019C356.006 251.623 352.051 252.479 348.333 253.996C345.469 255.045 342.668 256.257 339.943 257.625C333.962 260.432 328.545 264.308 323.958 269.063C321.64 271.443 319.844 274.28 318.685 277.393C318.351 278.342 318.066 279.306 317.828 280.284M339.311 308.075C339.187 309.71 338.736 311.304 337.985 312.762C337.235 314.22 336.2 315.512 334.941 316.563C333.551 317.856 331.82 318.724 329.952 319.063C329.259 319.217 328.537 319.166 327.873 318.918C327.471 318.727 327.14 318.414 326.925 318.025C326.711 317.635 326.624 317.188 326.678 316.746C326.702 315.331 327.107 313.949 327.852 312.746C328.804 311.185 330.046 309.821 331.511 308.728C333.768 306.94 336.159 305.329 338.663 303.909L338.851 303.832C339.245 305.21 339.401 306.645 339.311 308.075ZM358.728 293.124C358.555 294.227 358.312 295.317 357.999 296.388C356.856 300.058 355.493 303.656 353.92 307.163C353.603 307.805 353.249 308.427 352.86 309.028C352.799 309.123 352.725 309.21 352.642 309.286C352.196 309.727 351.773 309.703 351.548 309.127C351.298 308.445 351.109 307.742 350.985 307.027C350.919 306.542 350.886 306.053 350.885 305.563C350.945 302.173 351.943 298.866 353.768 296.009C354.433 294.765 355.383 293.695 356.541 292.889C356.924 292.651 357.338 292.467 357.772 292.344C358.428 292.16 358.831 292.463 358.722 293.12L358.728 293.124ZM371.973 310L376.734 304.441C376.928 306.506 373.421 310.627 371.971 310H371.973ZM387.173 306.259C386.837 306.452 386.473 306.591 386.125 306.769C385.809 306.933 385.705 306.769 385.696 306.496C385.691 306.308 385.716 306.121 385.768 305.94C386.38 303.708 387.627 301.701 389.357 300.163L389.48 300.1C389.885 301.233 389.876 302.473 389.455 303.6C389.034 304.727 388.228 305.67 387.18 306.26L387.173 306.259Z" fill="#CB6699"/>
    <path d="M116.506 204.224L110.691 139.003H174.591L168.767 204.214L142.6 211.464L116.506 204.224Z" fill="#1572B6"/>
    <path d="M142.639 205.923L163.784 200.063L168.758 144.337H142.639V205.923Z" fill="#33A9DC"/>
    <path d="M142.639 167.964H153.225L153.956 159.773H142.639V151.773H162.698L162.506 153.919L160.539 175.964H142.639V167.964Z" fill="white"/>
    <path d="M142.687 188.739L142.652 188.749L133.743 186.349L133.173 179.969H125.145L126.265 192.529L142.65 197.077L142.686 197.067L142.687 188.739Z" fill="#EBEBEB"/>
    <path d="M152.544 175.626L151.58 186.338L142.659 188.751V197.073L159.059 192.528L159.179 191.176L160.571 175.629L152.544 175.626Z" fill="white"/>
    <path d="M142.667 151.775V159.775H123.345L123.185 157.975L122.821 153.92L122.627 151.775H142.667ZM142.64 167.966V175.966H133.84L133.68 174.166L133.315 170.111L133.127 167.966H142.64Z" fill="#EBEBEB"/>
    <path d="M90.024 48.148C90.0524 47.0299 89.7799 45.9247 89.235 44.948C88.6842 44.0033 87.8867 43.2262 86.928 42.7C78.408 37.7893 69.8814 32.8783 61.348 27.967C60.3277 27.3253 59.1447 26.9898 57.9394 27.0002C56.7341 27.0107 55.5571 27.3667 54.548 28.026C51.156 30.018 34.155 39.761 29.106 42.7C28.1273 43.2262 27.317 44.0182 26.7686 44.9847C26.2202 45.9512 25.9558 47.0529 26.006 48.163V77.826C25.9869 78.9178 26.2446 79.9967 26.755 80.962C27.3118 81.9362 28.1231 82.7406 29.102 83.289C34.171 86.228 51.152 95.951 54.544 97.963C55.5512 98.6273 56.7289 98.9863 57.9353 98.9967C59.1418 99.0072 60.3255 98.6687 61.344 98.022C69.864 93.0887 78.3907 88.1777 86.924 83.289C87.9114 82.7519 88.7255 81.9448 89.271 80.962C89.7814 79.9967 90.0391 78.9178 90.02 77.826L90.024 48.148Z" fill="#9A4993"/>
    <path d="M58.0938 62.8811L26.7148 80.9481C27.2716 81.9223 28.0829 82.7267 29.0618 83.2751C34.1308 86.2141 51.1118 95.9371 54.5038 97.9481C55.5109 98.6125 56.6887 98.9716 57.8951 98.982C59.1016 98.9925 60.2854 98.6539 61.3038 98.0071C69.8238 93.0737 78.3505 88.1627 86.8838 83.2741C87.8713 82.737 88.6853 81.9299 89.2308 80.9471L58.0938 62.8811Z" fill="#6A1577"/>
    <path d="M48.8037 68.226C49.7311 69.8539 51.0742 71.2064 52.6956 72.1451C54.3171 73.0839 56.1587 73.5752 58.0323 73.5689C59.9059 73.5626 61.7442 73.0589 63.3593 72.1093C64.9744 71.1596 66.3083 69.7981 67.2247 68.1639L58.0927 62.8779L48.8037 68.226Z" fill="#6A1577"/>
    <path d="M90.0267 48.148C90.0551 47.0299 89.7826 45.9248 89.2377 44.948L58.0938 62.881L89.2747 80.947C89.7855 79.9817 90.0435 78.9029 90.0247 77.811L90.0267 48.148Z" fill="#813084"/>
    <path d="M67.2252 68.1641C66.083 70.205 64.298 71.8108 62.1481 72.7315C59.9982 73.6522 57.6042 73.8361 55.3389 73.2544C53.0737 72.6728 51.0644 71.3583 49.624 69.5157C48.1837 67.6731 47.3931 65.406 47.3755 63.0673C47.3579 60.7286 48.1142 58.4498 49.5267 56.5857C50.9391 54.7217 52.9284 53.3771 55.1846 52.7614C57.4409 52.1457 59.8374 52.2935 62.0009 53.1817C64.1644 54.0699 65.9734 55.6487 67.1462 57.6721L76.3962 52.3471C74.0499 48.2981 70.432 45.1372 66.1047 43.3555C61.7773 41.5738 56.9827 41.2711 52.4657 42.4943C47.9486 43.7176 43.962 46.3983 41.125 50.1201C38.288 53.8419 36.7595 58.3964 36.777 63.0762C36.7945 67.7559 38.3569 72.2989 41.2216 75.9994C44.0863 79.6999 48.0928 82.3508 52.6189 83.5403C57.145 84.7298 61.9372 84.3913 66.2511 82.5773C70.565 80.7634 74.1592 77.5756 76.4752 73.5091L67.2252 68.1641ZM78.9252 57.9481H76.8152V68.1481H78.9252V57.9481ZM83.5992 57.9481H81.4892V68.1481H83.5992V57.9481Z" fill="white"/>
    <path d="M85.3152 59.6641H75.1152V61.774H85.3152V59.6641ZM85.3152 64.3181H75.1152V66.4281H85.3152V64.3181Z" fill="white"/>
    <path d="M126.989 541.937V528.105C126.989 528.105 132.979 537.658 156.255 537.327C179.531 536.996 185.521 528.105 185.521 528.105V541.937C185.521 547.752 172.421 552.466 156.255 552.466C140.089 552.466 126.989 547.752 126.989 541.937ZM126.989 520.88V507.048C126.989 507.048 132.979 516.6 156.255 516.27C179.531 515.94 185.521 507.048 185.521 507.048V520.88C185.521 526.695 172.421 531.409 156.255 531.409C140.089 531.409 126.989 526.696 126.989 520.88ZM144.637 509.011C141.46 508.633 138.318 507.994 135.245 507.1C133.045 506.507 130.956 505.56 129.059 504.296C127.71 503.302 126.97 502.219 126.97 501.091V488.606C126.969 488.553 126.971 488.499 126.976 488.446C127.06 487.258 127.954 486.134 129.493 485.116C131.47 483.916 133.613 483.013 135.852 482.437C138.874 481.604 141.956 481.007 145.07 480.651C152.493 479.783 159.991 479.783 167.413 480.651C170.527 481.007 173.609 481.604 176.63 482.437C178.87 483.014 181.012 483.917 182.989 485.116C184.53 486.134 185.426 487.258 185.512 488.446C185.519 488.54 185.521 488.634 185.517 488.728V500.996C185.558 502.156 184.817 503.267 183.439 504.286C181.546 505.553 179.459 506.502 177.26 507.096C174.188 507.99 171.048 508.63 167.87 509.007C160.154 509.948 152.352 509.948 144.635 509.007L144.637 509.011Z" fill="#002B4F"/>
    <path d="M158.036 538.577C157.281 539.169 156.774 540.021 156.615 540.967C156.464 542.41 156.766 546.975 156.766 546.975L155.388 546.394C155.319 544.692 155.118 542.997 154.788 541.326C154.643 540.644 154.399 539.986 154.062 539.376C154.531 538.616 154.828 537.763 154.932 536.876C155.126 535.347 155.352 532.365 155.352 532.365C155.352 532.365 155.604 533.413 155.862 534.465C156.049 535.344 156.3 536.209 156.612 537.052C156.941 537.678 157.433 538.205 158.036 538.577Z" fill="#B8C4C2"/>
    <path d="M155.342 484.227C155.236 485.361 154.975 486.476 154.567 487.54C154.075 488.34 142.108 498.724 141.672 512.04C141.236 525.356 153.172 540.44 154.334 539.404C155.346 537.724 155.491 532.846 155.491 532.846L155.628 516.529V490.574L155.342 484.227Z" fill="#10AA50"/>
    <path d="M155.336 484.257C155.879 485.679 156.557 487.046 157.359 488.34C160.665 492.261 169.701 502.952 169.425 515.611C169.137 528.88 158.644 538.669 157.853 538.745C157.062 538.821 155.902 535.345 155.405 533.482C154.908 531.619 155.338 484.257 155.338 484.257H155.336Z" fill="#12924F"/>
    <path d="M259.762 48.171C259.787 47.0541 259.517 45.9504 258.979 44.971C258.423 44.0239 257.622 43.2439 256.661 42.713C248.133 37.7943 239.603 32.8807 231.071 27.972C230.05 27.3277 228.865 26.9914 227.657 27.0032C226.45 27.0151 225.271 27.3747 224.263 28.039C220.863 30.039 203.873 39.778 198.809 42.711C197.832 43.2382 197.024 44.0295 196.476 44.9944C195.927 45.9594 195.662 47.0592 195.709 48.168V77.835C195.686 78.9275 195.944 80.0077 196.458 80.972C197.013 81.9476 197.827 82.751 198.809 83.294C203.874 86.227 220.871 95.964 224.265 97.966C225.274 98.6306 226.452 98.9903 227.66 99.0022C228.868 99.0141 230.054 98.6776 231.075 98.033C239.602 93.1103 248.134 88.1963 256.669 83.291C257.652 82.7492 258.466 81.9467 259.022 80.972C259.536 80.0072 259.794 78.9268 259.771 77.834V48.171" fill="#A9B9CB"/>
    <path d="M227.833 62.906L196.453 80.974C197.009 81.9491 197.823 82.7519 198.806 83.294C203.871 86.227 220.868 95.964 224.262 97.966C225.271 98.6306 226.449 98.9903 227.657 99.0022C228.865 99.0141 230.051 98.6776 231.072 98.033C239.601 93.1103 248.132 88.196 256.665 83.29C257.648 82.7482 258.462 81.9457 259.018 80.971L227.833 62.906Z" fill="#7F8B99"/>
    <path d="M218.537 68.258C219.466 69.8845 220.81 71.2356 222.432 72.1732C224.054 73.1109 225.895 73.6016 227.768 73.5954C229.642 73.5892 231.48 73.0863 233.095 72.1379C234.711 71.1895 236.046 69.8296 236.964 68.197L227.831 62.907L218.537 68.258Z" fill="#7F8B99"/>
    <path d="M259.763 48.1709C259.788 47.054 259.518 45.9503 258.98 44.9709L227.833 62.9059L259.015 80.9709C259.529 80.0062 259.787 78.9258 259.764 77.8329V48.17" fill="#7F8B99"/>
    <path d="M236.966 68.1969C235.82 70.2328 234.034 71.833 231.885 72.7485C229.736 73.6639 227.344 73.8433 225.083 73.2587C222.821 72.6741 220.816 71.3583 219.38 69.516C217.943 67.6737 217.156 65.4083 217.141 63.0723C217.126 60.7364 217.883 58.4608 219.295 56.5999C220.707 54.7389 222.694 53.3969 224.948 52.7826C227.202 52.1683 229.596 52.3163 231.757 53.2034C233.918 54.0906 235.725 55.6672 236.897 57.6879L246.156 52.3559C243.81 48.2984 240.19 45.1291 235.858 43.3403C231.526 41.5514 226.725 41.2432 222.2 42.4634C217.674 43.6837 213.679 46.3641 210.833 50.0883C207.988 53.8126 206.452 58.3722 206.464 63.059C206.477 67.7457 208.036 72.2973 210.901 76.0067C213.765 79.7162 217.775 82.3758 222.306 83.5725C226.838 84.7693 231.637 84.4361 235.96 82.6248C240.283 80.8135 243.886 77.6255 246.211 73.5559L236.966 68.1989" fill="white"/>
    <path fill-rule="evenodd" clip-rule="evenodd" d="M199.82 384.399C199.846 384.497 199.86 384.598 199.86 384.699V400.249C199.86 400.449 199.807 400.645 199.707 400.818C199.607 400.991 199.463 401.134 199.29 401.233L186.234 408.75V423.65C186.234 423.85 186.181 424.046 186.082 424.218C185.982 424.391 185.839 424.535 185.667 424.634L158.42 440.318C158.356 440.352 158.289 440.379 158.22 440.4C158.194 440.409 158.17 440.424 158.143 440.431C157.952 440.482 157.752 440.482 157.562 440.431C157.531 440.422 157.502 440.405 157.473 440.394C157.408 440.374 157.346 440.348 157.286 440.317L130.041 424.631C129.868 424.532 129.724 424.389 129.624 424.216C129.524 424.043 129.471 423.847 129.471 423.647V376.983C129.471 376.882 129.484 376.781 129.511 376.683C129.52 376.65 129.539 376.621 129.551 376.583C129.57 376.523 129.594 376.464 129.623 376.407C129.647 376.373 129.673 376.339 129.701 376.307C129.731 376.261 129.764 376.217 129.801 376.175C129.836 376.145 129.874 376.116 129.913 376.09C129.952 376.057 129.994 376.026 130.038 375.999L143.663 368.151C143.835 368.052 144.031 368 144.23 368C144.429 368 144.624 368.052 144.797 368.151L158.42 375.999C158.463 376.03 158.505 376.064 158.545 376.099C158.634 376.151 158.707 376.227 158.756 376.317C158.783 376.349 158.809 376.383 158.833 376.417C158.862 376.474 158.887 376.533 158.907 376.593C158.922 376.626 158.935 376.659 158.947 376.693C158.973 376.791 158.987 376.892 158.987 376.993V406.129L170.34 399.592V384.692C170.34 384.593 170.354 384.494 170.38 384.397C170.39 384.363 170.408 384.333 170.42 384.297C170.44 384.237 170.465 384.178 170.494 384.121C170.517 384.086 170.543 384.053 170.571 384.021C170.601 383.975 170.634 383.931 170.671 383.889C170.706 383.859 170.743 383.83 170.782 383.804C170.821 383.768 170.863 383.735 170.907 383.704L184.536 375.866C184.708 375.767 184.904 375.715 185.103 375.715C185.302 375.715 185.497 375.767 185.67 375.866L199.294 383.71C199.338 383.741 199.381 383.774 199.422 383.81C199.457 383.838 199.499 383.864 199.531 383.895C199.567 383.938 199.6 383.982 199.631 384.028C199.659 384.06 199.685 384.093 199.708 384.128C199.737 384.185 199.762 384.244 199.782 384.304C199.797 384.337 199.811 384.37 199.822 384.404L199.82 384.399ZM197.588 399.593V386.657L192.821 389.404L186.234 393.194V406.129L197.589 399.592L197.588 399.593ZM183.967 422.993V410.047L177.488 413.747L158.988 424.304V437.371L183.967 422.993ZM131.738 378.95V422.993L156.72 437.37V424.299L143.673 416.918H143.667L143.437 416.742C143.403 416.705 143.371 416.665 143.343 416.623C143.312 416.588 143.284 416.551 143.258 416.512C143.234 416.467 143.214 416.419 143.198 416.37C143.176 416.329 143.158 416.287 143.144 416.242C143.132 416.188 143.124 416.132 143.121 416.076C143.112 416.034 143.107 415.991 143.104 415.948V385.484L136.512 381.69L131.744 378.948L131.738 378.95ZM144.228 370.45L132.876 376.986L144.224 383.52L155.574 376.985L144.225 370.452L144.228 370.45ZM150.128 411.227L156.72 407.433V378.947L151.952 381.692L145.369 385.484V413.973L150.128 411.227ZM185.1 378.163L173.75 384.697L185.1 391.231L196.448 384.696L185.1 378.163ZM183.967 393.197L177.378 389.407L172.61 386.662V399.595L179.195 403.386L183.967 406.132V393.197ZM157.848 422.346L174.496 412.846L182.818 408.097L171.477 401.567L158.42 409.078L146.52 415.93L157.848 422.346Z" fill="#FF2D20"/>
    <path d="M77.603 251.464L67.941 268.199L58.277 251.464H26.103L67.94 323.929L109.777 251.464H77.603Z" fill="#41B883"/>
    <path d="M77.6019 251.464L67.9399 268.199L58.2779 251.464H42.8369L67.9369 294.942L93.0419 251.464H77.6019Z" fill="#34495E"/>
    <path d="M302.101 82.6809C302.101 82.6809 299.351 84.2809 304.06 84.8209C309.027 85.5199 314.079 85.3064 318.968 84.1909C320.233 84.9458 321.559 85.5925 322.932 86.1239C308.832 92.1629 291.032 85.7739 302.101 82.6809ZM300.378 74.7989C300.378 74.7989 297.293 77.0829 302.006 77.5709C308.425 78.3327 314.925 78.0194 321.24 76.6439C322.093 77.4429 323.1 78.0577 324.2 78.4499C307.16 83.4339 288.181 78.8419 300.373 74.7949L300.378 74.7989Z" fill="#0074BD"/>
    <path d="M314.896 61.423C318.371 65.423 313.985 69.023 313.985 69.023C313.985 69.023 322.804 64.471 318.755 58.769C314.972 53.454 312.072 50.814 327.773 41.707C327.773 41.707 303.126 47.862 314.896 61.423Z" fill="#EA2D2E"/>
    <path d="M333.54 88.511C333.54 88.511 335.576 90.1899 331.297 91.4869C323.163 93.9509 297.435 94.694 290.29 91.587C287.723 90.469 292.539 88.919 294.054 88.592C294.866 88.3935 295.701 88.2994 296.536 88.312C293.679 86.301 278.071 92.263 288.609 93.973C317.346 98.631 340.993 91.873 333.54 88.511ZM303.424 66.63C303.424 66.63 290.339 69.738 298.791 70.868C302.36 71.346 309.472 71.236 316.102 70.68C321.518 70.225 326.953 69.253 326.953 69.253C325.811 69.7503 324.711 70.3392 323.663 71.014C310.372 74.514 284.703 72.882 292.094 69.308C295.605 67.5265 299.489 66.6084 303.425 66.63H303.424ZM326.898 79.751C340.407 72.733 334.161 65.988 329.798 66.897C329.274 66.9944 328.757 67.1331 328.254 67.312C328.54 66.9053 328.943 66.595 329.408 66.4219C338.033 63.3909 344.665 75.364 326.626 80.107C326.738 80.006 326.83 79.8853 326.898 79.751Z" fill="#0074BD"/>
    <path d="M318.755 27C318.755 27 326.235 34.485 311.655 45.99C299.965 55.222 308.99 60.49 311.655 66.501C304.831 60.345 299.825 54.925 303.183 49.88C308.112 42.48 321.775 38.887 318.755 27Z" fill="#EA2D2E"/>
    <path d="M304.752 98.7741C317.716 99.6031 337.63 98.3131 338.101 92.1741C338.101 92.1741 337.195 94.5001 327.386 96.3451C316.54 98.2055 305.471 98.3742 294.573 96.8451C294.573 96.8451 296.231 98.2181 304.752 98.7661V98.7741Z" fill="#0074BD"/>
    <path d="M370.562 204.225L364.747 139.003H428.647L422.823 204.215L396.657 211.464L370.562 204.225Z" fill="#6C7DB7"/>
    <path d="M396.696 205.924L417.84 200.062L422.815 144.336H396.696V205.924Z" fill="#9A9FC5"/>
    <path d="M388.352 195.721L380.308 193.342L376.652 152.33H416.739L414.565 176.664H386.802L388.352 195.725V195.721ZM385.402 160.575L386.155 168.775H407.34L408.08 160.575H385.402Z" fill="#EBEBEB"/>
    <path d="M396.696 176.659V168.77H407.34L408.08 160.57H396.696V152.33H416.74L414.565 176.659H396.696Z" fill="white"/>
    <path d="M285.877 204.226L280.062 139.004H343.962L338.141 204.215L311.971 211.469L285.877 204.226Z" fill="#27609E"/>
    <path d="M312.015 205.924L333.155 200.064L338.129 144.338H312.015V205.924Z" fill="#3C84D2"/>
    <path d="M333.868 167.964H322.593V159.774H334.579L335.289 151.774H314.232V175.964H325.138L324.175 186.338L314.233 188.148V196.487L331.652 192.523L333.868 167.964Z" fill="white"/>
    <path d="M294.331 151.775L297.751 193.475L305.716 195.63L302.363 151.775H294.331Z" fill="#EBEBEB"/>
    <path d="M309.715 151.775V159.775H287.539L287.045 151.775H309.715Z" fill="#EBEBEB"/>
    <path d="M88.9909 373.148C88.0306 375.451 86.7877 377.626 85.2909 379.622C82.0875 376.302 78.2504 373.658 74.0066 371.848C69.7629 370.038 65.1991 369.098 60.5854 369.083C55.9717 369.069 51.402 369.981 47.1471 371.764C42.8922 373.548 39.0386 376.168 35.8147 379.468C32.5907 382.769 30.0619 386.683 28.3781 390.978C26.6943 395.274 25.8898 399.863 26.0121 404.475C26.1345 409.088 27.1813 413.628 29.0905 417.828C30.9997 422.028 33.7325 425.803 37.1269 428.928L38.4079 430.065C43.2678 434.163 49.1669 436.836 55.4522 437.788C61.7375 438.741 68.1636 437.935 74.0191 435.46C79.8745 432.985 84.9308 428.938 88.628 423.766C92.3253 418.595 94.5192 412.502 94.9669 406.16C95.9639 397.48 93.3269 386.381 88.9909 373.148ZM42.1049 429.213C41.7391 429.662 41.2483 429.993 40.6945 430.163C40.1407 430.334 39.5488 430.336 38.9935 430.171C38.4383 430.005 37.9446 429.678 37.5749 429.232C37.2052 428.786 36.9761 428.24 36.9164 427.664C36.8568 427.087 36.9693 426.506 37.2398 425.994C37.5104 425.481 37.9267 425.061 38.4362 424.785C38.9458 424.509 39.5257 424.39 40.1027 424.444C40.6797 424.497 41.2278 424.721 41.6779 425.085C42.2671 425.586 42.6403 426.294 42.7199 427.063C42.7994 427.832 42.5791 428.602 42.1049 429.213ZM88.7779 418.896C80.3109 430.208 62.0979 426.366 50.5009 426.936C50.5009 426.936 48.4379 427.077 46.3739 427.362C46.3739 427.362 47.1569 427.007 48.1529 426.652C56.3349 423.806 60.1769 423.236 65.1529 420.675C74.4729 415.908 83.7939 405.45 85.6429 394.635C82.0899 405.022 71.2749 413.988 61.4569 417.616C54.6979 420.106 42.5269 422.525 42.5269 422.525L42.0269 422.239C33.7809 418.187 33.4959 400.255 48.5789 394.487C55.1959 391.926 61.4569 393.349 68.6429 391.641C76.2559 389.862 85.0779 384.171 88.6349 376.7C92.6199 388.729 97.4579 407.371 88.7779 418.896Z" fill="#6DB33F"/>
    <path d="M258.146 292.15C262.288 292.15 265.646 288.792 265.646 284.65C265.646 280.508 262.288 277.15 258.146 277.15C254.004 277.15 250.646 280.508 250.646 284.65C250.646 288.792 254.004 292.15 258.146 292.15Z" fill="#61DAFB"/>
    <path d="M271.136 292.103C281.56 273.337 283.794 255.391 276.126 252.018C268.458 248.645 253.79 261.118 243.364 279.886C232.938 298.654 230.7 316.6 238.364 319.979C246.028 323.358 260.696 310.886 271.125 292.122L271.136 292.103ZM245.011 292.122C255.44 310.886 270.111 323.357 277.771 319.978C285.431 316.599 283.198 298.65 272.771 279.885C262.344 261.12 247.677 248.644 240.009 252.018C232.341 255.392 234.575 273.337 244.999 292.103L245.011 292.122ZM258.079 299.654C279.562 299.654 296.979 292.894 296.971 284.554C296.963 276.214 279.557 269.464 258.071 269.463C236.585 269.462 219.165 276.224 219.165 284.559C219.165 292.894 236.579 299.653 258.065 299.659L258.079 299.654Z" stroke="#61DAFB" stroke-width="4"/>
    <path d="M164.466 253.168L130.566 265.259L135.737 310.089L164.466 326.003L193.204 310.089L198.375 265.259L164.466 253.168Z" fill="#DD0031"/>
    <path d="M164.471 253.168V298.107V326.007L193.204 310.093L198.375 265.263L164.471 253.168Z" fill="#C3002F"/>
    <path d="M164.476 261.216L143.276 308.741H151.176L155.437 298.107H173.427L177.688 308.741H185.588L164.476 261.216ZM170.667 291.552H158.276L164.476 276.657L170.667 291.552Z" fill="white"/>
    <path d="M77.1655 533.617C77.6515 529.572 77.5055 528.979 80.5185 529.634L81.2835 529.701C83.7172 529.803 86.1455 529.395 88.4115 528.501C92.2445 526.723 94.5165 523.753 90.7375 524.534C82.1165 526.312 81.5245 523.393 81.5245 523.393C90.6245 509.887 94.4325 492.742 91.1485 488.545C82.1925 477.098 66.6855 482.512 66.4265 482.654L66.3435 482.669C64.4496 482.289 62.5241 482.088 60.5925 482.069C57.3339 481.905 54.118 482.867 51.4855 484.795C51.4855 484.795 23.8215 473.395 25.1085 499.128C25.3825 504.602 32.9545 540.546 41.9855 529.689C45.2855 525.719 48.4765 522.362 48.4765 522.362C50.0825 523.448 52.0154 523.942 53.9455 523.762L54.0995 523.631C54.0534 524.147 54.0742 524.666 54.1615 525.177C51.8355 527.777 52.5185 528.233 47.8675 529.19C43.1615 530.16 45.9265 531.89 47.7305 532.338C49.9185 532.885 54.9815 533.66 58.4025 528.872L58.2665 529.418C59.1795 530.148 59.1175 534.666 59.2465 537.894C59.3755 541.122 59.5925 544.134 60.2465 545.91C60.9005 547.686 61.6805 552.26 67.7935 550.95C72.9025 549.855 76.8085 548.279 77.1645 533.621" fill="black"/>
    <path d="M77.1655 533.617C77.6515 529.572 77.5055 528.979 80.5185 529.634L81.2835 529.701C83.7172 529.803 86.1455 529.395 88.4115 528.501C92.2445 526.723 94.5165 523.753 90.7375 524.534C82.1165 526.312 81.5245 523.393 81.5245 523.393C90.6245 509.887 94.4325 492.742 91.1485 488.545C82.1925 477.098 66.6855 482.512 66.4265 482.654L66.3435 482.669C64.4496 482.289 62.5241 482.088 60.5925 482.069C57.3339 481.905 54.118 482.867 51.4855 484.795C51.4855 484.795 23.8215 473.395 25.1085 499.128C25.3825 504.602 32.9545 540.546 41.9855 529.689C45.2855 525.719 48.4765 522.362 48.4765 522.362C50.0825 523.448 52.0154 523.942 53.9455 523.762L54.0995 523.631C54.0534 524.147 54.0742 524.666 54.1615 525.177C51.8355 527.777 52.5185 528.233 47.8675 529.19C43.1615 530.16 45.9265 531.89 47.7305 532.338C49.9185 532.885 54.9815 533.66 58.4025 528.872L58.2665 529.418C59.1795 530.148 59.1175 534.666 59.2465 537.894C59.3755 541.122 59.5925 544.134 60.2465 545.91C60.9005 547.686 61.6805 552.26 67.7935 550.95C72.9025 549.855 76.8085 548.279 77.1645 533.621" stroke="black"/>
    <path d="M90.7425 524.534C82.1215 526.312 81.5285 523.393 81.5285 523.393C90.6285 509.886 94.4365 492.741 91.1525 488.544C82.1935 477.098 66.6855 482.511 66.4265 482.655L66.3435 482.67C64.4493 482.29 62.5234 482.089 60.5915 482.07C57.3333 481.906 54.1179 482.868 51.4855 484.795C51.4855 484.795 23.8205 473.395 25.1075 499.129C25.3815 504.603 32.9535 540.547 41.9845 529.69C45.2845 525.72 48.4745 522.363 48.4745 522.363C50.0805 523.449 52.0134 523.943 53.9435 523.763L54.0975 523.632C54.0517 524.148 54.0725 524.667 54.1595 525.178C51.8325 527.778 52.5165 528.234 47.8655 529.191C43.1595 530.161 45.9235 531.891 47.7295 532.339C49.9175 532.886 54.9805 533.661 58.4015 528.873L58.2655 529.419C59.1775 530.149 59.8175 534.168 59.7095 537.812C59.6015 541.456 59.5305 543.957 60.2485 545.912C60.9665 547.867 61.6825 552.262 67.7965 550.952C72.9055 549.857 75.5535 547.02 75.9215 542.287C76.1825 538.922 76.7745 539.42 76.8115 536.412L77.2855 534.988C77.8325 530.427 77.3725 528.956 80.5205 529.64L81.2855 529.707C83.7193 529.809 86.1475 529.401 88.4135 528.507C92.2455 526.729 94.5135 523.759 90.7395 524.54L90.7425 524.534Z" fill="#336791"/>
    <path d="M58.7723 527.148C58.5353 535.635 58.8323 544.18 59.6623 546.257C60.4923 548.334 62.2713 552.374 68.3863 551.064C73.4953 549.964 75.3533 547.849 76.1603 543.171C76.7543 539.729 77.8993 530.171 78.0463 528.212" stroke="white" stroke-linecap="round" stroke-linejoin="round"/>
    <path d="M51.4433 484.604C51.4433 484.604 23.7593 473.289 25.0433 499.02C25.3173 504.494 32.8893 540.439 41.9213 529.582C45.2213 525.612 48.2063 522.497 48.2063 522.497" stroke="white" stroke-linecap="round" stroke-linejoin="round"/>
    <path d="M66.3962 482.539C65.4382 482.839 81.7963 476.559 91.0963 488.439C94.3803 492.639 90.5743 509.781 81.4723 523.288" stroke="white" stroke-linecap="round" stroke-linejoin="round"/>
    <path d="M81.4635 523.287C81.4635 523.287 82.0565 526.207 90.6785 524.427C94.4555 523.647 92.1785 526.616 88.3515 528.396C85.2075 529.855 78.1585 530.229 78.0425 528.213C77.7425 523.013 81.7525 524.591 81.4635 523.287ZM81.4635 523.287C81.2025 522.113 79.4105 520.961 78.2255 518.087C77.1905 515.579 64.0345 496.346 81.8735 499.202C82.5275 499.067 77.2205 482.234 60.5265 481.96C43.8325 481.686 44.3835 502.486 44.3835 502.486" stroke="white" stroke-linecap="round" stroke-linejoin="bevel"/>
    <path d="M54.1044 525.066C51.7774 527.666 52.4614 528.122 47.8104 529.079C43.1044 530.049 45.8694 531.779 47.6734 532.227C49.8614 532.775 54.9244 533.55 58.3454 528.76C59.3874 527.302 58.3394 524.975 56.9084 524.381C56.4413 524.118 55.8918 524.043 55.3712 524.17C54.8506 524.297 54.3978 524.617 54.1044 525.066Z" stroke="white" stroke-linecap="round" stroke-linejoin="round"/>
    <path d="M53.9463 525.02C53.7123 523.492 54.4463 521.673 55.2383 519.545C56.4243 516.353 59.1623 513.16 56.9723 503.033C55.3403 495.487 44.3923 501.463 44.3863 502.486C44.6531 505.829 44.5918 509.19 44.2033 512.521C43.3183 518.848 48.2293 524.198 53.8833 523.651" stroke="white" stroke-linecap="round" stroke-linejoin="round"/>
    <path d="M51.3374 502.333C51.2884 502.682 51.9774 503.615 52.8754 503.74C53.2253 503.784 53.5803 503.716 53.8886 503.544C54.1968 503.373 54.4424 503.108 54.5894 502.787C54.6384 502.438 53.9494 502.053 53.0504 501.927C52.1514 501.801 51.3844 501.984 51.3374 502.333Z" fill="white" stroke="white"/>
    <path d="M78.6645 501.621C78.7135 501.97 78.0244 502.903 77.1264 503.028C76.7764 503.072 76.4213 503.004 76.1129 502.832C75.8044 502.661 75.5587 502.396 75.4115 502.075C75.3645 501.726 76.0525 501.341 76.9505 501.215C77.8485 501.089 78.6165 501.272 78.6645 501.621Z" fill="white" stroke="white"/>
    <path d="M81.8774 499.202C82.0254 501.943 81.2874 503.81 81.1934 506.729C81.0554 510.971 83.2154 515.829 79.9614 520.686" stroke="white" stroke-linecap="round" stroke-linejoin="round"/>
    <path d="M279.92 438H319.51C320.773 438 321.982 437.558 323.077 436.935C324.171 436.312 325.299 435.529 325.93 434.45C326.561 433.37 327.001 432.146 327 430.899C326.999 429.653 326.562 428.429 325.93 427.35L299.18 381.555C298.549 380.476 297.777 379.693 296.683 379.07C295.589 378.447 294.023 378.005 292.76 378.005C291.497 378.005 290.287 378.447 289.193 379.07C288.099 379.693 287.328 380.476 286.697 381.555L279.92 393.27L266.367 370.549C265.735 369.47 264.964 368.333 263.87 367.71C262.776 367.087 261.567 367 260.303 367C259.04 367 257.831 367.087 256.737 367.71C255.642 368.333 254.515 369.47 253.883 370.549L220.713 427.35C220.081 428.429 220.001 429.653 220 430.899C219.999 432.146 220.082 433.37 220.713 434.45C221.344 435.529 222.472 436.312 223.567 436.935C224.661 437.558 225.87 438 227.133 438H252.1C261.993 438 269.193 433.583 274.213 425.22L286.34 404.275L292.76 393.27L312.377 426.64H286.34L279.92 438ZM251.743 426.64H234.267L260.303 381.91L273.5 404.275L264.759 419.442C261.425 424.869 257.624 426.64 251.743 426.64L251.743 426.64Z" fill="#00DC82"/>
    <path d="M384 440C404.435 440 421 423.435 421 403C421 382.565 404.435 366 384 366C363.565 366 347 382.565 347 403C347 423.435 363.565 440 384 440Z" fill="black"/>
    <path d="M408.465 430.758L375.425 388.2H369.2V417.788H374.18V394.524L404.556 433.769C405.924 432.853 407.23 431.848 408.465 430.758Z" fill="url(#paint2_linear_148_838)"/>
    <path fill-rule="evenodd" clip-rule="evenodd" d="M394.278 388.2H399.211V417.8H394.278V388.2Z" fill="url(#paint3_linear_148_838)"/>
    <defs>
        <linearGradient id="paint0_linear_148_838" x1="398.872" y1="886.408" x2="469.295" y2="826.98" gradientUnits="userSpaceOnUse">
            <stop stop-color="#5A9FD4"/>
            <stop offset="1" stop-color="#306998"/>
        </linearGradient>
        <linearGradient id="paint1_linear_148_838" x1="495.682" y1="789.973" x2="470.24" y2="824.901" gradientUnits="userSpaceOnUse">
            <stop stop-color="#FFD43B"/>
            <stop offset="1" stop-color="#FFE873"/>
        </linearGradient>
        <linearGradient id="paint2_linear_148_838" x1="391.811" y1="413.895" x2="406.406" y2="431.984" gradientUnits="userSpaceOnUse">
            <stop stop-color="white"/>
            <stop offset="1" stop-color="white" stop-opacity="0"/>
        </linearGradient>
        <linearGradient id="paint3_linear_148_838" x1="396.744" y1="388.201" x2="396.662" y2="409.938" gradientUnits="userSpaceOnUse">
            <stop stop-color="white"/>
            <stop offset="1" stop-color="white" stop-opacity="0"/>
        </linearGradient>
    </defs>
</svg>
