<svg xmlns="http://www.w3.org/2000/svg" xmlns:xlink="http://www.w3.org/1999/xlink" width="530" height="349" viewBox="0 0 530 349">
  <defs>
    <linearGradient id="linear-gradient" x1="0.758" y1="16.144" x2="2.083" y2="15.015" gradientUnits="objectBoundingBox">
      <stop offset="0" stop-color="#5a9fd4"/>
      <stop offset="1" stop-color="#306998"/>
    </linearGradient>
    <linearGradient id="linear-gradient-2" x1="2.241" y1="13.881" x2="1.769" y2="14.539" gradientUnits="objectBoundingBox">
      <stop offset="0" stop-color="#ffd43b"/>
      <stop offset="1" stop-color="#ffe873"/>
    </linearGradient>
  </defs>
  <rect id="Rechteck_272" data-name="Rechteck 272" width="530" height="349" rx="12" fill="rgba(0,0,0,0.05)"/>
  <path id="Pfad_37" data-name="Pfad 37" d="M175.076,311.007a6.358,6.358,0,0,0-.783-3.2,6.116,6.116,0,0,0-2.318-2.258q-12.792-7.378-25.59-14.741a6.282,6.282,0,0,0-6.808.067c-3.4,2-20.39,11.739-25.454,14.672A5.915,5.915,0,0,0,111.018,311v29.667a6.386,6.386,0,0,0,.749,3.137,6.1,6.1,0,0,0,2.351,2.322c5.065,2.933,22.062,12.67,25.456,14.672a6.283,6.283,0,0,0,6.81.067q12.791-7.384,25.594-14.743a6.1,6.1,0,0,0,2.353-2.319,6.394,6.394,0,0,0,.749-3.138V311.006" transform="translate(0 -267)" fill="#5c8dbc"/>
  <path id="Pfad_38" data-name="Pfad 38" d="M143.147,325.742l-31.38,18.068a6.1,6.1,0,0,0,2.353,2.32c5.065,2.933,22.062,12.67,25.456,14.672a6.283,6.283,0,0,0,6.81.067q12.793-7.384,25.593-14.743a6.1,6.1,0,0,0,2.353-2.319l-31.185-18.065" transform="translate(0 -267)" fill="#1a4674"/>
  <path id="Pfad_39" data-name="Pfad 39" d="M133.851,331.094a10.591,10.591,0,0,0,18.427-.061l-9.133-5.29-9.294,5.351" transform="translate(0 -267)" fill="#1a4674"/>
  <path id="Pfad_40" data-name="Pfad 40" d="M175.077,311.007a6.358,6.358,0,0,0-.783-3.2l-31.147,17.935,31.184,18.065a6.394,6.394,0,0,0,.749-3.138V311.006" transform="translate(0 -267)" fill="#1b598e"/>
  <path id="Pfad_41" data-name="Pfad 41" d="M173.362,327.033h-2.437v2.437h-2.437v-2.437h-2.437V324.6h2.437v-2.437h2.437V324.6h2.437v2.437m-8.892,0h-2.437v2.437H159.6v-2.437h-2.437V324.6H159.6v-2.437h2.437V324.6h2.439v2.437" transform="translate(0 -267)" fill="#fff"/>
  <path id="Pfad_42" data-name="Pfad 42" d="M152.28,331.033a10.593,10.593,0,1,1-.069-10.509l9.259-5.332a21.274,21.274,0,1,0,.055,21.2l-9.245-5.357" transform="translate(0 -267)" fill="#fff"/>
  <path id="Pfad_55" data-name="Pfad 55" d="M32.005,467.061,26.19,401.839h63.9l-5.824,65.212L58.1,474.3Z" transform="translate(0 -267)" fill="#e44d26"/>
  <path id="Pfad_56" data-name="Pfad 56" d="M58.139,468.761,79.283,462.9l4.975-55.726H58.139Z" transform="translate(0 -267)" fill="#f16529"/>
  <path id="Pfad_57" data-name="Pfad 57" d="M58.139,431.362H47.553l-.731-8.19H58.139v-8H38.08l.192,2.146,1.966,22.044h17.9Zm0,20.775-.035.01-8.913-2.407-.569-6.379H40.591l1.121,12.56,16.39,4.551.037-.01Z" transform="translate(0 -267)" fill="#ebebeb"/>
  <path id="Pfad_58" data-name="Pfad 58" d="M58.111,431.362v8h9.848l-.928,10.374-8.922,2.408v8.323l16.4-4.545.121-1.35,1.88-21.059.195-2.148H58.111Zm0-16.191v8H77.433l.16-1.8.365-4.056.191-2.146Z" transform="translate(0 -267)" fill="#fff"/>
  <path id="Pfad_277" data-name="Pfad 277" d="M201.377,467.061l-5.815-65.222h63.9l-5.821,65.211-26.17,7.255Zm0,0" transform="translate(0 -267)" fill="#d4b830"/>
  <path id="Pfad_278" data-name="Pfad 278" d="M227.513,468.76l21.143-5.862,4.974-55.726H227.513Zm0,0" transform="translate(0 -267)" fill="#fdd83c"/>
  <g id="Gruppe_315" data-name="Gruppe 315" transform="translate(0 -267)">
    <path id="Pfad_279" data-name="Pfad 279" d="M249.368,430.8H238.093V422.61h11.986l.71-8H229.732V438.8h10.906l-.963,10.374-9.942,1.81v8.339l17.419-3.964Zm-24.006-16.191H207.5l.742,8h9.091v27.221l-4.455-.652-.57-6.38h-8.03l1.12,12.56c19.964,3.963.076,0,19.964,3.963Z" fill="#fff"/>
  </g>
  <path id="Pfad_64" data-name="Pfad 64" d="M48,1.988a49.054,49.054,0,0,0-8.208.7C32.518,3.972,31.2,6.66,31.2,11.618v6.546H48.376v2.182H24.752a10.725,10.725,0,0,0-10.73,8.71,32.1,32.1,0,0,0,0,17.457c1.221,5.086,4.137,8.708,9.129,8.708h5.906V47.373A10.915,10.915,0,0,1,39.788,36.7H56.945a8.654,8.654,0,0,0,8.588-8.728V11.618c0-4.656-3.927-8.153-8.588-8.93a53.655,53.655,0,0,0-8.95-.7ZM38.706,7.253a3.274,3.274,0,1,1-3.223,3.284A3.274,3.274,0,0,1,38.706,7.253Z" transform="translate(341.857 20.852)" fill="url(#linear-gradient)"/>
  <path id="Pfad_65" data-name="Pfad 65" d="M75.721,28.38v7.628A11.017,11.017,0,0,1,64.99,46.9H47.833a8.762,8.762,0,0,0-8.588,8.729V71.984c0,4.654,4.047,7.393,8.588,8.728a28.75,28.75,0,0,0,17.157,0c4.324-1.253,8.588-3.772,8.588-8.728V65.437H56.422V63.254H82.167c4.992,0,6.853-3.482,8.589-8.708,1.793-5.381,1.716-10.555,0-17.457-1.234-4.97-3.59-8.71-8.589-8.71H75.721ZM66.07,69.8a3.274,3.274,0,1,1-3.223,3.264A3.241,3.241,0,0,1,66.07,69.8Z" transform="translate(333.811 12.819)" fill="url(#linear-gradient-2)"/>
  <path id="Pfad_280" data-name="Pfad 280" d="M221.932,544.522a4.272,4.272,0,0,0,.249,1.249,15.345,15.345,0,0,0,3.325,5.978,39.409,39.409,0,0,0,7.373,6.469c2.306,1.658,4.659,3.278,6.974,4.924.4.282.773.607,1.2.954-.371.2-.68.377-1,.54a53.569,53.569,0,0,0-8.7,5.391,17.8,17.8,0,0,0-4.327,4.378c-1.794,2.834-2.429,5.853-1.092,9.076a5.358,5.358,0,0,0,1.827,2.356,2.7,2.7,0,0,0,.9.463c.816.192,1.648.318,2.475.47h2.341a14.561,14.561,0,0,0,7.074-2.587,15.522,15.522,0,0,0,6.533-9.328,16.465,16.465,0,0,0-.1-8.607q-.119-.4-.273-.783c-.1-.257-.218-.507-.357-.827l5.306-3.051.079.068c-.1.316-.2.63-.286.949a21.49,21.49,0,0,0-.9,7.036,13.5,13.5,0,0,0,2.36,7.057,3.423,3.423,0,0,0,5.359.058,12.36,12.36,0,0,0,1.226-1.939c.865-1.787,1.666-3.6,2.493-5.41l.144-.33c-.059.855-.129,1.606-.161,2.358a8.986,8.986,0,0,0,.421,3.457,2.388,2.388,0,0,0,2.022,1.8,2.542,2.542,0,0,0,1.9-.691,8.014,8.014,0,0,0,2.077-2.469c1.467-2.694,2.973-5.372,4.3-8.134,1.438-2.987,2.7-6.062,4.032-9.1l.221-.539c.316,1.24.536,2.455.941,3.6a34.066,34.066,0,0,0,1.688,3.9,1.167,1.167,0,0,1-.15,1.488c-1.741,2.1-3.452,4.224-5.164,6.346a14.25,14.25,0,0,0-1.072,1.457,2.855,2.855,0,0,0-.37,1.053,1.34,1.34,0,0,0,1.067,1.521,7.451,7.451,0,0,0,2.09.149,12.24,12.24,0,0,0,6.479-2.436,6.792,6.792,0,0,0,2.68-7.331,17.032,17.032,0,0,0-.731-2.372.876.876,0,0,1,.1-.924,75.516,75.516,0,0,0,5.264-8.928,1.836,1.836,0,0,1,.236-.372,23.185,23.185,0,0,0,2.662,7.557c-.7.678-1.4,1.293-2.031,1.971a13.587,13.587,0,0,0-3.218,5.088,6.012,6.012,0,0,0-.357,2.628,2.214,2.214,0,0,0,2.734,2.01,12.426,12.426,0,0,0,7.418-4.572,6.012,6.012,0,0,0,.849-5.489c-.145-.531-.317-1.053-.5-1.662.734-.228,1.449-.5,2.189-.67a19.4,19.4,0,0,1,11.346.664,8.563,8.563,0,0,1,4.944,4.3,4.959,4.959,0,0,1-1.892,6.73,4.222,4.222,0,0,0-.681.467.671.671,0,0,0-.158.517c.016.095.267.214.411.212a3.762,3.762,0,0,0,2.092-.865,6.443,6.443,0,0,0,2.967-4.49l.049-.145-.06-1.255c-.024-.073.018-.144.012-.2a9.864,9.864,0,0,0-4.023-6.7,14.674,14.674,0,0,0-8.681-2.923,19.6,19.6,0,0,0-7.536,1.16c-.692.251-1.378.548-2.074.828-.093-.169-.194-.331-.276-.5a14.1,14.1,0,0,1-1.773-4.546,10.163,10.163,0,0,1-.019-3.56c.272-1.134.627-2.248.962-3.366a.82.82,0,0,0-.5-1.158,2.2,2.2,0,0,0-.607-.2,9.343,9.343,0,0,0-3.991.3,1.143,1.143,0,0,0-.9.907c-.059.294-.178.576-.262.866a21.658,21.658,0,0,1-1.137,3.585c-1.384,2.882-2.965,5.656-4.582,8.409-.175.3-.36.589-.58.949a12.441,12.441,0,0,1-1.357-3.505,10.757,10.757,0,0,1-.019-4.228c.262-1.046.6-2.074.918-3.106a.719.719,0,0,0-.364-1.007,2.143,2.143,0,0,0-.732-.284,8.984,8.984,0,0,0-4.132.338,1.116,1.116,0,0,0-.767.839,32.354,32.354,0,0,1-1.226,3.793c-2.141,4.908-4.343,9.791-6.543,14.673-.459,1.019-1,2-1.515,3a6.957,6.957,0,0,1-.486.709.579.579,0,0,1-.181-.368,10.158,10.158,0,0,1,.049-1.88q.551-2.752,1.218-5.478c.363-1.5.785-2.99,1.187-4.481a1.406,1.406,0,0,0-.221-1.386,2.072,2.072,0,0,0-2.609-.316l-.33.187.064-.532a8.3,8.3,0,0,0-.124-3.4,2.708,2.708,0,0,0-2.845-2.163,6.109,6.109,0,0,0-2.016.384,15.249,15.249,0,0,0-6.4,5.06,2,2,0,0,1-.584.5c-2.233,1.238-4.472,2.46-6.711,3.687l-2.491,1.366c-.668-.637-1.276-1.3-1.965-1.86-2.1-1.716-4.243-3.39-6.362-5.087a25.077,25.077,0,0,1-5.09-5.062,9.062,9.062,0,0,1-1.767-4.935,11.583,11.583,0,0,1,1.77-6.453,24.755,24.755,0,0,1,5.874-6.426,54.418,54.418,0,0,1,7.723-5.123,58.254,58.254,0,0,1,11.847-5.228,32.736,32.736,0,0,1,13.087-1.489,13.452,13.452,0,0,1,5.037,1.462,5.2,5.2,0,0,1,2.646,2.868,7.17,7.17,0,0,1,.125,4.016,15.331,15.331,0,0,1-4.009,6.984,27.094,27.094,0,0,1-11.075,7.016,30.466,30.466,0,0,1-7.536,1.607,14.192,14.192,0,0,1-6.162-.742,8.017,8.017,0,0,1-3.395-2.3c-.165-.193-.377-.4-.685-.221a.585.585,0,0,0-.254.756,7.4,7.4,0,0,0,.588,1.418,8.08,8.08,0,0,0,2.688,2.545,13.152,13.152,0,0,0,6.683,1.834,33.621,33.621,0,0,0,10.537-1.343,25.85,25.85,0,0,0,12.644-7.628,19.422,19.422,0,0,0,5.341-11.131,10.771,10.771,0,0,0-1.006-6.13,11.082,11.082,0,0,0-4.835-4.727,20.467,20.467,0,0,0-9.519-2.473h-3.324a34.427,34.427,0,0,0-11.686,2.527,80.276,80.276,0,0,0-8.39,3.629A54.224,54.224,0,0,0,228.13,531.9a23.874,23.874,0,0,0-5.273,8.33q-.5,1.424-.857,2.891m21.483,27.791a12.266,12.266,0,0,1-4.37,8.488,9.931,9.931,0,0,1-4.989,2.5,3.665,3.665,0,0,1-2.079-.145,2.122,2.122,0,0,1-1.195-2.172,7.856,7.856,0,0,1,1.174-4,14.306,14.306,0,0,1,3.659-4.018,56.068,56.068,0,0,1,7.152-4.819l.188-.077a12.552,12.552,0,0,1,.46,4.243ZM262.9,555.961a25.96,25.96,0,0,1-.729,3.264A96.2,96.2,0,0,1,258.092,570a18.6,18.6,0,0,1-1.06,1.865,1.3,1.3,0,0,1-.218.258c-.446.441-.869.417-1.094-.159a12.151,12.151,0,0,1-.563-2.1,11.11,11.11,0,0,1-.1-1.464,18.348,18.348,0,0,1,2.883-9.554,8.932,8.932,0,0,1,2.773-3.12,4.835,4.835,0,0,1,1.231-.545c.656-.184,1.059.119.95.776Zm13.245,16.876,4.761-5.559C281.1,569.343,277.593,573.464,276.143,572.837Zm15.2-3.741c-.336.193-.7.332-1.048.51-.316.164-.42,0-.429-.273a1.84,1.84,0,0,1,.072-.556A11.968,11.968,0,0,1,293.529,563l.123-.063a5.1,5.1,0,0,1-2.3,6.16Z" transform="translate(0 -267)" fill="#cb6699" fill-rule="evenodd"/>
  <g id="Gruppe_310" data-name="Gruppe 310" transform="translate(0 -267)">
    <path id="Pfad_49" data-name="Pfad 49" d="M116.691,467.06l-5.815-65.221h63.9l-5.824,65.211L142.785,474.3Z" fill="#1572b6"/>
    <path id="Pfad_50" data-name="Pfad 50" d="M142.824,468.759l21.145-5.86,4.974-55.726H142.824Z" fill="#33a9dc"/>
    <path id="Pfad_51" data-name="Pfad 51" d="M142.824,430.8H153.41l.731-8.191H142.824v-8h20.059l-.192,2.146L160.724,438.8h-17.9Z" fill="#fff"/>
    <path id="Pfad_52" data-name="Pfad 52" d="M142.872,451.575l-.035.01-8.909-2.4-.57-6.38H125.33l1.12,12.56,16.385,4.548.036-.01Z" fill="#ebebeb"/>
    <path id="Pfad_53" data-name="Pfad 53" d="M152.729,438.462l-.964,10.712-8.921,2.413v8.322l16.4-4.545.12-1.352,1.392-15.547Z" fill="#fff"/>
    <path id="Pfad_54" data-name="Pfad 54" d="M142.852,414.611v8H123.53l-.16-1.8-.364-4.055-.194-2.145h20.04Zm-.027,16.191v8h-8.8l-.16-1.8-.365-4.055-.188-2.145Z" fill="#ebebeb"/>
  </g>
  <path id="Pfad_43" data-name="Pfad 43" d="M90.209,310.984a6.243,6.243,0,0,0-.789-3.2,6.028,6.028,0,0,0-2.307-2.248q-12.78-7.366-25.58-14.733a6.3,6.3,0,0,0-6.8.059c-3.392,1.992-20.393,11.735-25.442,14.674a5.9,5.9,0,0,0-3.1,5.463v29.663a6.467,6.467,0,0,0,.749,3.136,6.184,6.184,0,0,0,2.347,2.327c5.069,2.939,22.05,12.662,25.442,14.674a6.258,6.258,0,0,0,6.8.059q12.78-7.4,25.58-14.733a5.919,5.919,0,0,0,2.347-2.327,6.467,6.467,0,0,0,.749-3.136Z" transform="translate(0 -267)" fill="#9a4993"/>
  <path id="Pfad_44" data-name="Pfad 44" d="M58.279,325.717,26.9,343.784a6.184,6.184,0,0,0,2.347,2.327c5.069,2.939,22.05,12.662,25.442,14.673a6.257,6.257,0,0,0,6.8.059q12.78-7.4,25.58-14.733a5.919,5.919,0,0,0,2.347-2.327Z" transform="translate(0 -267)" fill="#6a1577"/>
  <path id="Pfad_45" data-name="Pfad 45" d="M48.989,331.062A10.58,10.58,0,0,0,67.41,331l-9.132-5.286Z" transform="translate(0 -267)" fill="#6a1577"/>
  <path id="Pfad_46" data-name="Pfad 46" d="M90.212,310.984a6.244,6.244,0,0,0-.789-3.2L58.279,325.717,89.46,343.783a6.467,6.467,0,0,0,.75-3.136Z" transform="translate(0 -267)" fill="#813084"/>
  <g id="Gruppe_34" data-name="Gruppe 34" transform="translate(0 -267)">
    <path id="Pfad_47" data-name="Pfad 47" d="M67.41,331a10.6,10.6,0,1,1-.079-10.492l9.25-5.325a21.241,21.241,0,1,0,.079,21.162Zm11.7-10.216H77v10.2h2.11Zm4.674,0h-2.11v10.2h2.11Z" fill="#fff"/>
    <path id="Pfad_48" data-name="Pfad 48" d="M85.5,322.5H75.3v2.11H85.5Zm0,4.654H75.3v2.11H85.5Z" fill="#fff"/>
  </g>
  <g id="Gruppe_36" data-name="Gruppe 36" transform="translate(0 -267)">
    <path id="Vereinigungsmenge_28" data-name="Vereinigungsmenge 28" d="M339.63,576.241V562.409s5.99,9.553,29.266,9.222,29.266-9.222,29.266-9.222v13.832c0,5.815-13.1,10.529-29.266,10.529S339.63,582.056,339.63,576.241Zm0-21.057V541.352s5.99,9.552,29.266,9.222,29.266-9.222,29.266-9.222v13.832c0,5.815-13.1,10.529-29.266,10.529S339.63,561,339.63,555.184Zm17.648-11.869a58.168,58.168,0,0,1-9.392-1.911A20.98,20.98,0,0,1,341.7,538.6c-1.349-.994-2.089-2.077-2.089-3.205V522.91a1.423,1.423,0,0,1,.006-.16c.084-1.188.978-2.312,2.517-3.33a23.584,23.584,0,0,1,6.359-2.679,60.621,60.621,0,0,1,9.218-1.786,96.18,96.18,0,0,1,22.343,0,60.664,60.664,0,0,1,9.217,1.786,23.627,23.627,0,0,1,6.359,2.679c1.541,1.018,2.437,2.142,2.523,3.33a2.658,2.658,0,0,1,.005.282V535.3c.041,1.16-.7,2.271-2.078,3.29a20.938,20.938,0,0,1-6.179,2.81,58.116,58.116,0,0,1-9.39,1.911,95.935,95.935,0,0,1-23.235,0Z" fill="#002b4f"/>
    <g id="Gruppe_35" data-name="Gruppe 35">
      <path id="Pfad_69" data-name="Pfad 69" d="M370.676,572.881a3.852,3.852,0,0,0-1.421,2.39c-.151,1.443.151,6.008.151,6.008l-1.378-.581a33.04,33.04,0,0,0-.6-5.068,7.048,7.048,0,0,0-.726-1.95,6.1,6.1,0,0,0,.87-2.5c.194-1.529.42-4.511.42-4.511s.252,1.048.51,2.1a18.724,18.724,0,0,0,.75,2.587,3.963,3.963,0,0,0,1.424,1.525Z" fill="#b8c4c2"/>
      <path id="Pfad_68" data-name="Pfad 68" d="M367.983,518.531a12.541,12.541,0,0,1-.775,3.313c-.492.8-12.459,11.184-12.895,24.5s11.5,28.4,12.662,27.364c1.012-1.68,1.157-6.558,1.157-6.558l.137-16.317V524.878Z" fill="#10aa50"/>
      <path id="Pfad_67" data-name="Pfad 67" d="M367.977,518.561A23.948,23.948,0,0,0,370,522.644c3.306,3.921,12.342,14.612,12.066,27.271-.288,13.269-10.781,23.058-11.572,23.134s-1.951-3.4-2.448-5.263-.067-49.225-.067-49.225Z" fill="#12924f"/>
    </g>
  </g>
  <g id="Gruppe_121" data-name="Gruppe 121" transform="translate(0 -267)">
    <path id="Pfad_138" data-name="Pfad 138" d="M259.947,311.007a6.358,6.358,0,0,0-.783-3.2,6.116,6.116,0,0,0-2.318-2.258q-12.792-7.378-25.59-14.741a6.282,6.282,0,0,0-6.808.067c-3.4,2-20.39,11.739-25.454,14.672a5.915,5.915,0,0,0-3.1,5.457v29.667a6.386,6.386,0,0,0,.749,3.137,6.1,6.1,0,0,0,2.351,2.322c5.065,2.933,22.062,12.67,25.456,14.672a6.283,6.283,0,0,0,6.81.067q12.791-7.384,25.594-14.742a6.1,6.1,0,0,0,2.353-2.319,6.394,6.394,0,0,0,.749-3.138V311.007" fill="#a9b9cb"/>
    <path id="Pfad_139" data-name="Pfad 139" d="M228.018,325.742l-31.38,18.068a6.1,6.1,0,0,0,2.353,2.32c5.065,2.933,22.062,12.67,25.456,14.672a6.283,6.283,0,0,0,6.81.067q12.793-7.384,25.593-14.743a6.1,6.1,0,0,0,2.353-2.319l-31.185-18.065" fill="#7f8b99"/>
    <path id="Pfad_140" data-name="Pfad 140" d="M218.722,331.094a10.591,10.591,0,0,0,18.427-.061l-9.133-5.29-9.294,5.351" fill="#7f8b99"/>
    <path id="Pfad_141" data-name="Pfad 141" d="M259.948,311.007a6.358,6.358,0,0,0-.783-3.2l-31.147,17.935L259.2,343.807a6.394,6.394,0,0,0,.749-3.138V311.006" fill="#7f8b99"/>
    <path id="Pfad_142" data-name="Pfad 142" d="M237.151,331.033a10.593,10.593,0,1,1-.069-10.509l9.259-5.332a21.274,21.274,0,1,0,.055,21.2l-9.245-5.357" fill="#fff"/>
  </g>
  <path id="Pfad_165" data-name="Pfad 165" d="M201.1,530.7a1.148,1.148,0,0,1,.04.3v15.55a1.134,1.134,0,0,1-.57.984l-13.056,7.517v14.9a1.137,1.137,0,0,1-.567.984L159.7,586.619a1.213,1.213,0,0,1-.2.082c-.026.009-.05.024-.077.031a1.14,1.14,0,0,1-.581,0c-.031-.009-.06-.026-.089-.037a1.176,1.176,0,0,1-.187-.077l-27.245-15.686a1.136,1.136,0,0,1-.57-.984V523.284a1.159,1.159,0,0,1,.04-.3c.009-.033.028-.062.04-.1a1.117,1.117,0,0,1,.072-.176,1.059,1.059,0,0,1,.078-.1,1.151,1.151,0,0,1,.1-.132,1.094,1.094,0,0,1,.112-.085.921.921,0,0,1,.125-.091l13.625-7.848a1.137,1.137,0,0,1,1.134,0L159.7,522.3a1.4,1.4,0,0,1,.125.1.563.563,0,0,1,.211.218,1.043,1.043,0,0,1,.077.1,1.182,1.182,0,0,1,.074.176,1.047,1.047,0,0,1,.04.1,1.148,1.148,0,0,1,.04.3V552.43l11.353-6.537v-14.9a1.146,1.146,0,0,1,.04-.295c.01-.034.028-.064.04-.1a1.276,1.276,0,0,1,.074-.176.949.949,0,0,1,.077-.1,1.166,1.166,0,0,1,.1-.132,1.1,1.1,0,0,1,.111-.085,1.149,1.149,0,0,1,.125-.1l13.629-7.838a1.136,1.136,0,0,1,1.134,0l13.624,7.844a1.25,1.25,0,0,1,.128.1c.035.028.077.054.109.085a1.329,1.329,0,0,1,.1.133.859.859,0,0,1,.077.1,1.124,1.124,0,0,1,.074.176.809.809,0,0,1,.04.1Zm-2.232,15.194V532.958l-4.767,2.747-6.587,3.79V552.43l11.355-6.537Zm-13.621,23.4V556.348l-6.479,3.7-18.5,10.557v13.067Zm-52.229-44.043v44.043L158,583.671V570.6l-13.047-7.381h-.006l-.23-.176a1.085,1.085,0,0,1-.094-.119,1.217,1.217,0,0,1-.085-.111.9.9,0,0,1-.06-.142.843.843,0,0,1-.054-.128,1.085,1.085,0,0,1-.023-.166.984.984,0,0,1-.017-.128V531.785l-6.592-3.794-4.768-2.742Zm12.49-8.5-11.352,6.536,11.348,6.534,11.35-6.535-11.349-6.533Zm5.9,40.777L158,553.734V525.248l-4.768,2.745-6.583,3.792v28.489Zm34.972-33.064-11.35,6.534,11.35,6.534,11.348-6.535Zm-1.133,15.034-6.589-3.79-4.768-2.745v12.933l6.585,3.791,4.772,2.746Zm-26.119,29.149,16.648-9.5,8.322-4.749-11.341-6.53L159.7,555.379l-11.9,6.852Z" transform="translate(0 -267)" fill="#ff2d20" fill-rule="evenodd"/>
  <g id="Gruppe_302" data-name="Gruppe 302" transform="translate(0 -267)">
    <g id="Gruppe_300" data-name="Gruppe 300">
      <path id="Pfad_177" data-name="Pfad 177" d="M77.788,514.3l-9.662,16.735L58.462,514.3H26.288l41.837,72.465L109.962,514.3Z" fill="#41b883"/>
    </g>
    <g id="Gruppe_301" data-name="Gruppe 301">
      <path id="Pfad_178" data-name="Pfad 178" d="M77.787,514.3l-9.662,16.735L58.463,514.3H43.022l25.1,43.478L93.227,514.3Z" fill="#34495e"/>
    </g>
  </g>
  <g id="Gruppe_303" data-name="Gruppe 303" transform="translate(0 -267)">
    <path id="Pfad_179" data-name="Pfad 179" d="M297.861,345.52s-2.75,1.6,1.959,2.14a41.208,41.208,0,0,0,14.908-.63,26.128,26.128,0,0,0,3.964,1.933c-14.1,6.039-31.9-.35-20.831-3.443Zm-1.723-7.882s-3.085,2.284,1.628,2.772A58.166,58.166,0,0,0,317,339.483a8.5,8.5,0,0,0,2.96,1.806c-17.04,4.984-36.019.392-23.827-3.655Z" fill="#0074bd"/>
    <path id="Pfad_180" data-name="Pfad 180" d="M310.656,324.262c3.475,4-.911,7.6-.911,7.6s8.819-4.552,4.77-10.254c-3.783-5.315-6.683-7.955,9.018-17.062,0,0-24.647,6.155-12.877,19.716Z" fill="#ea2d2e"/>
    <path id="Pfad_181" data-name="Pfad 181" d="M329.3,351.35s2.036,1.679-2.243,2.976c-8.134,2.464-33.862,3.207-41.007.1-2.567-1.118,2.249-2.668,3.764-2.995a9.836,9.836,0,0,1,2.482-.28c-2.857-2.011-18.465,3.951-7.927,5.661,28.737,4.658,52.384-2.1,44.931-5.462Zm-30.116-21.881s-13.085,3.108-4.633,4.238c3.569.478,10.681.368,17.311-.188,5.416-.455,10.851-1.427,10.851-1.427a23.1,23.1,0,0,0-3.29,1.761c-13.291,3.5-38.96,1.868-31.569-1.706a24.738,24.738,0,0,1,11.331-2.678Zm23.474,13.121c13.509-7.018,7.263-13.763,2.9-12.854a10.122,10.122,0,0,0-1.544.415,2.455,2.455,0,0,1,1.154-.89c8.625-3.031,15.257,8.942-2.782,13.685a1.225,1.225,0,0,0,.272-.356Z" fill="#0074bd"/>
    <path id="Pfad_182" data-name="Pfad 182" d="M314.515,289.839s7.48,7.485-7.1,18.99c-11.69,9.232-2.665,14.5,0,20.511-6.824-6.156-11.83-11.576-8.472-16.621,4.929-7.4,18.592-10.993,15.572-22.88Z" fill="#ea2d2e"/>
    <path id="Pfad_183" data-name="Pfad 183" d="M300.512,361.613c12.964.829,32.878-.461,33.349-6.6,0,0-.906,2.326-10.715,4.171a106.531,106.531,0,0,1-32.813.5s1.658,1.373,10.179,1.921Z" fill="#0074bd"/>
  </g>
  <g id="Gruppe_307" data-name="Gruppe 307" transform="translate(0 -267)">
    <g id="html5">
      <path id="Pfad_55-2" data-name="Pfad 55" d="M370.747,467.061l-5.815-65.222h63.9l-5.824,65.212L396.842,474.3Z" fill="#6c7db7"/>
      <path id="Pfad_56-2" data-name="Pfad 56" d="M396.881,468.76l21.144-5.862L423,407.172H396.881Z" fill="#9a9fc5"/>
    </g>
    <path id="Differenzmenge_5" data-name="Differenzmenge 5" d="M388.537,458.557l-8.044-2.379-3.656-41.012h40.087L414.75,439.5H386.987l1.55,19.061Zm-2.95-35.146.753,8.2h21.185l.74-8.2Z" fill="#ebebeb"/>
    <path id="Schnittmenge_5" data-name="Schnittmenge 5" d="M396.881,439.495v-7.889h10.644l.74-8.2H396.881v-8.24h20.044l-2.175,24.329Z" fill="#fff"/>
  </g>
  <g id="Gruppe_309" data-name="Gruppe 309" transform="translate(0 -267)">
    <path id="path13" d="M286.062,467.062l-5.815-65.222h63.9l-5.821,65.211-26.17,7.254Zm0,0" fill="#27609e"/>
    <path id="path15" d="M312.2,468.76,333.34,462.9l4.974-55.726H312.2Zm0,0" fill="#3c84d2"/>
    <path id="path18" d="M334.053,430.8H322.778V422.61h11.986l.71-8H314.417V438.8h10.906l-.963,10.374-9.942,1.81v8.339l17.419-3.964Z" fill="#fff"/>
    <g id="Gruppe_308" data-name="Gruppe 308">
      <path id="Vereinigungsmenge_31" data-name="Vereinigungsmenge 31" d="M294.516,414.611l3.42,41.7,7.965,2.155-3.353-43.855Z" fill="#ebebeb"/>
      <path id="Pfad_200" data-name="Pfad 200" d="M309.9,414.611v8H287.724l-.494-8Z" fill="#ebebeb"/>
    </g>
  </g>
</svg>
