<svg xmlns="http://www.w3.org/2000/svg" width="530" height="120" viewBox="0 0 530 120">
    <rect id="275" data-name="Rechteck 275" width="530" height="120" rx="12" fill="rgba(0,0,0,0.05)"/>
    <path id="Pfad_30" data-name="Pfad 30"
          d="M428.714,667.236a2.062,2.062,0,0,0-1.219.5,2.818,2.818,0,0,0-3.137.289c-1.481-.189-1.962.2-2.327.657-.325-.007-2.432-.329-3.4,1.091-2.428-.283-3.2,1.407-2.327,2.983-.5.757-1.01,1.5.15,2.945-.41.8-.156,1.674.812,2.729a2.3,2.3,0,0,0,1.145,2.546c-.168,1.544,1.438,2.443,1.918,2.763.184.9.569,1.75,2.4,2.219.3,1.342,1.4,1.574,2.473,1.855-3.53,2.021-6.557,4.68-6.536,11.2l-.517.909a10.947,10.947,0,0,0-1.995,16.55,30.676,30.676,0,0,0,1.551,4.983,12.178,12.178,0,0,0,7.686,9.681,26.048,26.048,0,0,0,7.348,4.108,12.284,12.284,0,0,0,9.032,3.992h.137a12.282,12.282,0,0,0,9.032-3.993,26.019,26.019,0,0,0,7.347-4.107,12.176,12.176,0,0,0,7.682-9.677,30.65,30.65,0,0,0,1.555-4.984,10.949,10.949,0,0,0-2-16.551l-.517-.908c.021-6.524-3.006-9.183-6.536-11.2,1.068-.281,2.171-.513,2.474-1.855,1.835-.47,2.219-1.319,2.4-2.219.48-.32,2.087-1.219,1.918-2.764a2.3,2.3,0,0,0,1.146-2.546c.967-1.054,1.22-1.926.81-2.729,1.161-1.441.646-2.189.15-2.945.869-1.576.1-3.266-2.327-2.983-.966-1.42-3.073-1.1-3.4-1.091-.365-.456-.846-.846-2.327-.657a2.819,2.819,0,0,0-3.133-.291c-1.313-1.021-2.183-.2-3.175.107-1.59-.513-1.954.189-2.735.475-1.734-.361-2.261.425-3.093,1.255l-.967-.019c-2.615,1.518-3.915,4.61-4.375,6.2-.461-1.59-1.757-4.682-4.372-6.2l-.967.018c-.832-.83-1.359-1.615-3.094-1.254-.781-.286-1.144-.987-2.735-.475a6.11,6.11,0,0,0-1.957-.607"
          transform="translate(0 -644)" fill="#050606"/>
    <path id="Pfad_31" data-name="Pfad 31"
          d="M423.559,673.917c6.939,3.523,10.973,6.374,13.183,8.8-1.131,4.468-7.036,4.672-9.2,4.546a1.614,1.614,0,0,0,.942-.818c-.542-.38-2.463-.04-3.8-.783a1.264,1.264,0,0,0,1-.581,11.023,11.023,0,0,1-3.435-1.4,1.959,1.959,0,0,0,1.4-.291,13.287,13.287,0,0,1-3.286-2c.586-.014,1.219-.006,1.4-.218a12.591,12.591,0,0,1-2.641-2.109c.821.1,1.168.013,1.367-.128a10.418,10.418,0,0,1-2.253-2.436,1.679,1.679,0,0,0,1.57-.018c-.267-.593-1.41-.943-2.068-2.328.642.061,1.323.138,1.459,0a6.781,6.781,0,0,0-1.311-2.564,23.671,23.671,0,0,0,3.361-.11l-.849-.854a6.8,6.8,0,0,1,3.712.364c.447-.348-.008-.787-.554-1.237a13.68,13.68,0,0,1,3.1.764c.5-.442-.323-.885-.72-1.328a8,8,0,0,1,3.25,1.255c.539-.508.031-.94-.332-1.382a7.98,7.98,0,0,1,2.733,1.727c.244-.325.62-.563.166-1.346a6.9,6.9,0,0,1,2.182,1.874c.584-.366.348-.866.351-1.327a21.552,21.552,0,0,1,2.364,2.437,2.047,2.047,0,0,0,.406-1.073c2.338,2.234,5.642,7.863.849,10.094a45.314,45.314,0,0,0-14.349-7.529m36.756,0c-6.939,3.524-10.973,6.374-13.183,8.8,1.132,4.468,7.036,4.672,9.2,4.546a1.613,1.613,0,0,1-.941-.818c.542-.38,2.463-.04,3.8-.783a1.263,1.263,0,0,1-1-.581,11.021,11.021,0,0,0,3.434-1.4,1.958,1.958,0,0,1-1.4-.291,13.3,13.3,0,0,0,3.287-2c-.587-.014-1.219-.006-1.4-.218a12.609,12.609,0,0,0,2.641-2.109c-.821.1-1.168.013-1.367-.128a10.416,10.416,0,0,0,2.252-2.436,1.678,1.678,0,0,1-1.569-.018c.267-.593,1.409-.943,2.068-2.328-.643.061-1.323.138-1.46,0a6.8,6.8,0,0,1,1.311-2.565,23.825,23.825,0,0,1-3.361-.109l.85-.854a6.8,6.8,0,0,0-3.712.363c-.448-.348.008-.787.553-1.237a13.69,13.69,0,0,0-3.1.764c-.5-.442.323-.885.72-1.328a8.011,8.011,0,0,0-3.25,1.255c-.538-.508-.031-.94.332-1.382a7.97,7.97,0,0,0-2.732,1.727c-.244-.325-.621-.563-.167-1.346a6.9,6.9,0,0,0-2.183,1.874c-.584-.366-.348-.866-.351-1.327a21.538,21.538,0,0,0-2.363,2.437,2.041,2.041,0,0,1-.406-1.073c-2.338,2.234-5.642,7.863-.849,10.094a45.236,45.236,0,0,1,14.349-7.53"
          transform="translate(0 -644)" fill="#63c54d"/>
    <path id="Pfad_32" data-name="Pfad 32"
          d="M450.328,719.418c.024,4.169-3.678,7.567-8.268,7.589s-8.332-3.34-8.356-7.51v-.079c-.024-4.17,3.677-7.568,8.268-7.59s8.332,3.34,8.356,7.51v.079m-12.96-21.567c3.444,2.222,4.065,7.261,1.387,11.253s-7.642,5.427-11.086,3.2-4.067-7.257-1.387-11.249,7.642-5.427,11.086-3.2m9.3-.4c-3.448,2.216-4.066,7.258-1.391,11.247s7.642,5.427,11.086,3.2,4.066-7.26,1.387-11.253-7.641-5.426-11.086-3.2m-26.3,4.059c3.718-.982,1.255,15.154-1.77,13.829-3.328-2.637-4.4-10.359,1.769-13.829m42.974-.2c-3.719-.982-1.256,15.154,1.77,13.83,3.328-2.637,4.4-10.359-1.77-13.83m-12.469-12.04c6.417-1.068,11.757,2.688,11.541,9.542-.207,2.628-13.907-9.15-11.541-9.542m-17.731-.2c-6.418-1.068-11.758,2.689-11.542,9.543.211,2.627,13.906-9.152,11.542-9.543m8.841-1.6c-3.83-.1-7.506,2.8-7.515,4.481-.01,2.043,3.028,4.134,7.542,4.187,4.608.032,7.548-1.674,7.564-3.782.016-2.388-4.192-4.923-7.59-4.886m.3,41.885c3.335-.14,7.816,1.06,7.823,2.66.056,1.55-4.064,5.051-8.051,4.984-4.129.175-8.177-3.332-8.124-4.547-.062-1.782,5.028-3.173,8.346-3.092m-12.357-9.463c2.377,2.822,3.461,7.778,1.477,9.239-1.877,1.116-6.435.657-9.676-3.928-2.184-3.847-1.9-7.761-.369-8.912,2.294-1.377,5.839.483,8.567,3.6M453.853,719c-2.573,2.968-4.006,8.381-2.129,10.124,1.794,1.355,6.611,1.165,10.169-3.7,2.583-3.266,1.718-8.719.242-10.168-2.192-1.671-5.339.467-8.283,3.74"
          transform="translate(0 -644)" fill="#c51850"/>
    <path id="Path_242" data-name="Path 242"
          d="M356.43,667.236a36,36,0,1,0,36,36A36,36,0,0,0,356.43,667.236Zm8.077,12.4a4.8,4.8,0,1,1,1.759,6.563,4.8,4.8,0,0,1-1.759-6.563Zm-8.077,2.723a20.917,20.917,0,0,1,5.578.759,6.749,6.749,0,0,0,9.05,5.233,20.814,20.814,0,0,1,6.2,13.542l-6.849.1a14.041,14.041,0,0,0-19.9-11.49l-3.34-5.984a20.809,20.809,0,0,1,9.261-2.163Zm-24.479,25.684a4.807,4.807,0,1,1,4.808-4.807,4.807,4.807,0,0,1-4.808,4.807Zm4.261.428a6.751,6.751,0,0,0,0-10.47,20.929,20.929,0,0,1,8.634-12.137l3.514,5.886a14.035,14.035,0,0,0,0,22.972l-3.514,5.888A20.912,20.912,0,0,1,336.212,708.471Zm34.86,20.125a4.8,4.8,0,1,1,2.241-2.917,4.8,4.8,0,0,1-2.241,2.917Zm-.014-10.472a6.747,6.747,0,0,0-9.049,5.232,20.864,20.864,0,0,1-14.832-1.4l3.34-5.985a14.038,14.038,0,0,0,19.9-11.488l6.851.1a20.814,20.814,0,0,1-6.21,13.541Z"
          transform="translate(0 -644)" fill="#dd4814"/>
    <g id="Group_314" data-name="Group 314" transform="translate(96 -644)">
        <path id="Pfad_33" data-name="Pfad 33" d="M26.288,666.77h34v34h-34Z" fill="#1976d2"/>
        <path id="Pfad_34" data-name="Pfad 34" d="M64.372,700.686V666.77H98.288v33.916Z" fill="#1976d2"/>
        <path id="Pfad_35" data-name="Pfad 35" d="M26.288,704.77h34v34h-34Z" fill="#1976d2"/>
        <path id="Pfad_36" data-name="Pfad 36" d="M64.288,738.77v-34h34v34Z" fill="#1976d2"/>
    </g>
    <path id="Pfad_184" data-name="Pfad 184"
          d="M299.294,728.244a13.987,13.987,0,0,0-1.574-4.019,18.9,18.9,0,0,0-6.155-5.978,42.611,42.611,0,0,0-7.638-3.8c-5.059-1.955-4.814-1.89-8.229-3.108-7.566-2.7-11.766-6.706-12.03-11.054-.127-2.106,1.929-8.967,10.406-7.336a25.639,25.639,0,0,1,5.791,1.776c1.729.781,6.774,3.228,8.542,6.711.134,1.537.675,2.131,2.837,3.152,1.626.768,3.267,1.6,3.414,3.493a.237.237,0,0,0,.224.207.225.225,0,0,0,.207-.139,2.564,2.564,0,0,1,2.5-1.437.217.217,0,0,0,.254-.1.225.225,0,0,0-.036-.271l-1.474-1.467a9.33,9.33,0,0,1-1.609-2.14q-.191-.349-.349-.714l-.2-.481a25.972,25.972,0,0,0-5.936-8.977,25.094,25.094,0,0,0-4.24-3.277,19.894,19.894,0,0,0-4.854-2.231l-.127.439a19.334,19.334,0,0,1,4.561,2.431,24.128,24.128,0,0,1,3.894,3.39,20.492,20.492,0,0,1,3.91,6.017l-3.41-4.247.094,1.47-2.8-3.154.173,1.477-2.715-2.193.233,1c-.612-.4-6.039-2.563-8.748-3.581s-8.061-6.037-6.517-12.39c0,0-2.53-.983-4.343-1.653q-2.671-.953-5.38-1.792c-3.6-1.127-7.216-2.155-10.853-3.115s-7.3-1.819-10.98-2.584a110.033,110.033,0,0,0-11.136-1.8l-.067.571a109.762,109.762,0,0,1,10.943,2.368q5.417,1.426,10.757,3.134t10.583,3.642q3.175,1.169,6.286,2.5c-2.1-.413-4.194-.74-6.293-1.013-3.788-.481-7.579-.785-11.374-.956s-7.59-.2-11.379-.058a86.945,86.945,0,0,0-11.318,1.088l.074.521a85.845,85.845,0,0,1,11.244-.314c3.75.115,7.494.4,11.216.817s7.427.971,11.083,1.689c2.255.447,4.5.966,6.687,1.578a46.261,46.261,0,0,0-5.164-.2,65.618,65.618,0,0,0-10.014.987,77.35,77.35,0,0,0-9.723,2.306,44.23,44.23,0,0,0-9.189,3.854l.2.356a43.468,43.468,0,0,1,9.3-3.048,75.8,75.8,0,0,1,9.669-1.487,63.138,63.138,0,0,1,9.7-.173,34.764,34.764,0,0,1,8.272,1.452,26.364,26.364,0,0,0,.875,3.077c-7.29,3.353-8.213,9.383-7.617,12.618.7,3.793,3.445,6.685,6.688,8.558a55.262,55.262,0,0,0,8.1,3.507,54.358,54.358,0,0,1,7.653,3.286,17.8,17.8,0,0,1,5.81,5.5c3.147,4.519,4.406,10.218,4.783,15.839l.625-.017c.014-5.693-.8-11.653-3.858-16.81a21.922,21.922,0,0,0-3.719-4.682,39.437,39.437,0,0,1,4.946,2.284,17.662,17.662,0,0,1,6.079,5.227,13.061,13.061,0,0,1,1.684,3.654,19.1,19.1,0,0,1,.564,4.062h.535a20.038,20.038,0,0,0-.348-4.243Z"
          transform="translate(0 -644)" fill="#3b9fd1"/>
    <path id="path2"
          d="M33.493,43.753c0,6.063-3.158,9.878-8.2,9.878s-8.2-3.837-8.2-9.878c0-6.084,3.158-9.9,8.2-9.9S33.493,37.669,33.493,43.753ZM40.53,22.364l-2.2.148c-1.251.085-1.8.53-1.8,1.335,0,.848.7,1.314,1.675,1.314a2.143,2.143,0,0,0,2.332-2.035ZM72.073,36.036A35.765,35.765,0,0,1,36.036,72.073,35.765,35.765,0,0,1,0,36.036,35.765,35.765,0,0,1,36.036,0,35.765,35.765,0,0,1,72.073,36.036ZM44.388,21.919c0,2.925,1.611,4.706,4.24,4.706,2.226,0,3.625-1.251,3.858-3.031H50.748a1.962,1.962,0,0,1-2.12,1.505c-1.484,0-2.4-1.208-2.4-3.18,0-1.95.912-3.116,2.4-3.116a2.013,2.013,0,0,1,2.12,1.547h1.738A3.551,3.551,0,0,0,48.628,17.3C46,17.276,44.388,19.057,44.388,21.919ZM20.159,17.467v8.988H21.94V20.944a1.988,1.988,0,0,1,1.908-2.1A1.582,1.582,0,0,1,25.586,20.5v5.957h1.738V20.774a1.842,1.842,0,0,1,1.908-1.929c1.166,0,1.738.594,1.738,1.844v5.766h1.781V20.244a2.677,2.677,0,0,0-2.883-2.968,2.917,2.917,0,0,0-2.735,1.611h-.148a2.534,2.534,0,0,0-2.48-1.611A2.506,2.506,0,0,0,22,18.887h-.127V17.446ZM36.651,43.753c0-7.822-4.367-12.74-11.362-12.74s-11.362,4.918-11.362,12.74,4.367,12.719,11.362,12.719S36.651,51.553,36.651,43.753Zm1.1-17.149a3.04,3.04,0,0,0,2.713-1.42h.148v1.272h1.717V20.308c0-1.887-1.272-3.01-3.54-3.01-2.056,0-3.5,1-3.688,2.5h1.717c.191-.657.89-1.017,1.887-1.017,1.208,0,1.844.551,1.844,1.547v.784l-2.438.148c-2.141.127-3.349,1.06-3.349,2.692C34.743,25.565,36.015,26.6,37.754,26.6ZM57.192,49.052c0-3.5-2.035-5.533-7.165-6.656L47.293,41.8c-3.37-.742-4.685-2.077-4.685-4.006,0-2.5,2.374-4.006,5.448-4.006,3.222,0,5.342,1.653,5.617,4.367h3.074c-.148-4.176-3.688-7.123-8.606-7.123-5.109,0-8.691,2.862-8.691,6.911,0,3.5,2.141,5.745,7.08,6.826l2.735.594c3.413.742,4.791,2.12,4.791,4.176,0,2.417-2.438,4.176-5.766,4.176-3.54,0-6-1.611-6.359-4.261H38.856c.3,4.261,3.879,7.017,9.263,7.017,5.49,0,9.073-2.862,9.073-7.419Z"
          transform="translate(22.072 22.733)" fill="#1d1d1f"/>
</svg>
