<svg width="530" height="122" viewBox="0 0 530 122" fill="none" xmlns="http://www.w3.org/2000/svg">
    <rect width="530" height="122" rx="17" fill="black" fill-opacity="0.2"/>
    <path d="M275.287 85.475C274.981 84.062 274.463 82.7061 273.752 81.456C272.224 79.0178 270.17 76.9725 267.748 75.478C265.394 73.959 262.898 72.686 260.297 71.678C255.362 69.723 255.601 69.788 252.27 68.57C244.889 65.87 240.792 61.864 240.535 57.516C240.411 55.41 242.417 48.549 250.686 50.18C252.63 50.5411 254.527 51.1373 256.335 51.956C258.021 52.737 262.942 55.184 264.667 58.667C264.798 60.204 265.326 60.798 267.434 61.819C269.021 62.587 270.621 63.419 270.765 65.312C270.772 65.3674 270.797 65.4185 270.837 65.4564C270.877 65.4942 270.929 65.5164 270.983 65.519C271.027 65.5189 271.069 65.5056 271.105 65.4808C271.141 65.4561 271.169 65.421 271.185 65.38C271.404 64.9174 271.754 64.5331 272.189 64.2768C272.624 64.0205 273.124 63.9042 273.624 63.943C273.67 63.9579 273.72 63.9562 273.765 63.938C273.81 63.9198 273.848 63.8862 273.872 63.843C273.896 63.8002 273.905 63.7504 273.899 63.7014C273.892 63.6524 273.871 63.607 273.837 63.572L272.399 62.105C271.778 61.4728 271.249 60.752 270.829 59.965C270.705 59.7324 270.591 59.4944 270.489 59.251L270.294 58.77C268.996 55.3961 267.024 52.3381 264.503 49.793C263.243 48.5525 261.856 47.4539 260.367 46.516C258.894 45.5575 257.301 44.8071 255.632 44.285L255.508 44.724C257.091 45.3266 258.587 46.1442 259.958 47.155C261.338 48.1425 262.612 49.279 263.756 50.545C265.363 52.3051 266.654 54.342 267.57 56.562L264.244 52.315L264.335 53.785L261.604 50.631L261.773 52.108L259.124 49.915L259.352 50.915C258.755 50.515 253.461 48.352 250.818 47.334C248.176 46.316 242.955 41.297 244.461 34.944C244.461 34.944 241.993 33.961 240.225 33.291C238.488 32.6557 236.738 32.0584 234.977 31.499C231.465 30.372 227.938 29.344 224.39 28.384C220.842 27.424 217.269 26.565 213.679 25.8C210.091 25.01 206.465 24.4092 202.816 24L202.751 24.571C206.346 25.1737 209.909 25.964 213.426 26.939C216.948 27.8897 220.446 28.9343 223.919 30.073C227.391 31.2117 230.833 32.4257 234.242 33.715C236.307 34.4944 238.351 35.3277 240.374 36.215C238.325 35.802 236.283 35.475 234.235 35.202C230.54 34.721 226.842 34.417 223.14 34.246C219.438 34.075 215.736 34.046 212.04 34.188C208.341 34.3033 204.653 34.6668 201 35.276L201.072 35.797C204.718 35.4466 208.382 35.3418 212.04 35.483C215.698 35.598 219.351 35.883 222.981 36.3C226.612 36.717 230.226 37.271 233.792 37.989C235.992 38.436 238.182 38.955 240.315 39.567C238.641 39.4042 236.959 39.3374 235.278 39.367C232.002 39.4392 228.736 39.7692 225.51 40.354C222.303 40.9123 219.135 41.6826 216.025 42.66C212.905 43.5945 209.898 44.8873 207.062 46.514L207.257 46.87C210.159 45.5071 213.202 44.4847 216.329 43.822C219.438 43.1187 222.588 42.622 225.76 42.335C228.905 42.0287 232.069 41.9709 235.222 42.162C237.96 42.31 240.669 42.7975 243.292 43.614C243.515 44.6564 243.8 45.684 244.145 46.691C237.034 50.044 236.134 56.074 236.715 59.309C237.398 63.102 240.075 65.994 243.239 67.867C245.777 69.2501 248.419 70.4229 251.14 71.374C253.707 72.272 256.203 73.3706 258.605 74.66C260.877 76.0288 262.815 77.9096 264.273 80.16C267.343 84.679 268.571 90.378 268.939 95.999L269.548 95.982C269.562 90.289 268.768 84.329 265.785 79.172C264.79 77.4488 263.569 75.8735 262.157 74.49C263.815 75.1364 265.427 75.8996 266.982 76.774C269.323 78.0274 271.352 79.8158 272.912 82.001C273.64 83.1248 274.194 84.3574 274.554 85.655C274.88 86.9849 275.064 88.3467 275.105 89.717H275.627C275.661 88.2944 275.547 86.872 275.287 85.474V85.475Z" fill="#3B9FD1"/>
    <path d="M108 24H142V58H108V24Z" fill="#1976D2"/>
    <path d="M146.084 57.916V24H180V57.916H146.084Z" fill="#1976D2"/>
    <path d="M108 62H142V96H108V62Z" fill="#1976D2"/>
    <path d="M146 96V62H180V96H146Z" fill="#1976D2"/>
    <path d="M73.9991 61.5779C73.9642 55.5943 76.6608 51.0846 82.1063 47.7594C79.0607 43.3725 74.4529 40.9598 68.3791 40.4948C62.6282 40.0385 56.3362 43.8639 54.0323 43.8639C51.5976 43.8639 46.0299 40.6527 41.6491 40.6527C32.6082 40.7931 23 47.8998 23 62.3588C23 66.6316 23.7767 71.0448 25.33 75.5895C27.407 81.5732 34.8946 96.2341 42.705 95.9972C46.7891 95.9006 49.6777 93.0843 54.9923 93.0843C60.1498 93.0843 62.8202 95.9972 67.3755 95.9972C75.2558 95.8831 82.0278 82.5559 84 76.5546C73.4319 71.5449 73.9991 61.885 73.9991 61.5779ZM64.8273 34.8182C69.2518 29.5364 68.8504 24.7284 68.7195 23C64.8099 23.2281 60.2894 25.676 57.715 28.6854C54.8788 31.9141 53.212 35.9061 53.5698 40.407C57.7936 40.7316 61.6508 38.547 64.8273 34.8182Z" fill="black"/>
    <path d="M332.5 96C352.106 96 368 80.1061 368 60.5C368 40.8939 352.106 25 332.5 25C312.894 25 297 40.8939 297 60.5C297 80.1061 312.894 96 332.5 96Z" fill="#0091E2"/>
    <path d="M354.361 56.9985C354.251 56.9084 353.245 56.1526 351.123 56.1526C350.562 56.1526 350 56.1942 349.446 56.2982C349.036 53.4763 346.707 52.1034 346.603 52.041L346.034 51.7082L345.66 52.249C345.188 52.9771 344.849 53.7744 344.647 54.6203C344.266 56.2289 344.495 57.7404 345.313 59.0301C344.329 59.5778 342.741 59.7165 342.422 59.7234H316.206C315.519 59.7234 314.965 60.2781 314.965 60.9646C314.937 63.2596 315.325 65.5407 316.109 67.6971C317.01 70.0684 318.355 71.8087 320.103 72.8765C322.058 74.076 325.24 74.7624 328.853 74.7624C330.482 74.7693 332.112 74.6168 333.713 74.3187C335.939 73.9096 338.081 73.133 340.051 72.0167C341.673 71.0737 343.136 69.8812 344.377 68.4736C346.45 66.1231 347.691 63.5022 348.613 61.1795H348.981C351.255 61.1795 352.656 60.2712 353.425 59.5085C353.938 59.0231 354.341 58.4338 354.597 57.7751L354.757 57.2967L354.361 56.9985ZM318.633 58.9677H322.148C322.314 58.9677 322.453 58.829 322.453 58.6626V55.5355C322.453 55.3691 322.314 55.2305 322.148 55.2235H318.633C318.466 55.2235 318.328 55.3622 318.328 55.5286V58.6626C318.328 58.8359 318.466 58.9677 318.633 58.9677ZM323.479 58.9677H326.995C327.161 58.9677 327.3 58.829 327.3 58.6626V55.5355C327.3 55.3691 327.161 55.2305 326.995 55.2235H323.479C323.306 55.2235 323.167 55.3622 323.167 55.5355V58.6626C323.167 58.8359 323.306 58.9677 323.479 58.9677ZM328.388 58.9746H331.904C332.07 58.9746 332.209 58.8359 332.209 58.6695V55.5425C332.209 55.3761 332.07 55.2374 331.904 55.2305H328.388C328.222 55.2305 328.083 55.3691 328.083 55.5355V58.6695C328.083 58.8359 328.222 58.9677 328.388 58.9746ZM333.249 58.9746H336.764C336.93 58.9746 337.069 58.8359 337.076 58.6695V55.5425C337.076 55.3691 336.937 55.2305 336.764 55.2305H333.249C333.082 55.2305 332.944 55.3691 332.944 55.5355V58.6695C332.944 58.8359 333.075 58.9746 333.249 58.9746ZM323.472 54.4678H326.988C327.154 54.4678 327.293 54.3291 327.293 54.1558V51.0287C327.293 50.8623 327.154 50.7236 326.988 50.7236H323.472C323.299 50.7236 323.167 50.8623 323.16 51.0287V54.1558C323.167 54.3291 323.306 54.4678 323.472 54.4678ZM328.388 54.4678H331.904C332.07 54.4678 332.209 54.3291 332.209 54.1558V51.0287C332.209 50.8623 332.07 50.7236 331.904 50.7236H328.388C328.222 50.7236 328.083 50.8623 328.083 51.0287V54.1558C328.083 54.3291 328.222 54.4678 328.388 54.4678ZM333.249 54.4678H336.764C336.937 54.4678 337.069 54.3291 337.076 54.1558V51.0287C337.076 50.8554 336.937 50.7236 336.764 50.7236H333.249C333.082 50.7236 332.944 50.8623 332.944 51.0287V54.1558C332.944 54.3291 333.075 54.4678 333.249 54.4678ZM333.249 49.9679H336.764C336.937 49.9679 337.076 49.8292 337.076 49.6559V46.5219C337.076 46.3555 336.937 46.2168 336.764 46.2168H333.249C333.082 46.2168 332.944 46.3555 332.944 46.5219V49.6559C332.944 49.8292 333.075 49.9679 333.249 49.9679ZM338.144 58.9746H341.659C341.826 58.9746 341.964 58.8359 341.964 58.6695V55.5425C341.964 55.3691 341.826 55.2374 341.659 55.2305H338.144C337.977 55.2305 337.839 55.3691 337.839 55.5355V58.6695C337.839 58.8359 337.977 58.9746 338.144 58.9746Z" fill="white"/>
    <path fill-rule="evenodd" clip-rule="evenodd" d="M410.46 24.0162C408.757 24.0162 407.265 24.3243 405.838 24.9405C404.443 25.5568 403.211 26.3838 402.124 27.4703L429.695 57.6973L457.201 27.4541C456.114 26.3676 454.882 25.5405 453.406 24.9243C452.06 24.3081 450.486 24 448.865 24C447.162 24 445.54 24.3568 444.096 25.0054C442.604 25.6541 441.388 26.627 440.253 27.7622L429.679 39.4703L418.975 27.7622C417.888 26.627 416.656 25.6703 415.131 25.0054C413.785 24.3568 412.163 24.0162 410.46 24.0162ZM429.679 62.2703L402.108 92.5459C403.195 93.6 404.427 94.4595 405.822 95.0757C407.265 95.6919 408.757 96 410.363 96C412.147 96 413.688 95.6108 415.131 94.9946C416.656 94.2973 417.969 93.373 419.056 92.2378L429.679 80.5297L440.285 92.2378C441.372 93.373 442.604 94.2973 444.08 94.9946C445.524 95.6108 447.097 96 448.848 96C450.47 96 452.043 95.6919 453.389 95.0757C454.881 94.4595 456.098 93.5838 457.184 92.5459L429.679 62.2703Z" fill="white"/>
    <path fill-rule="evenodd" clip-rule="evenodd" d="M397.178 33.0973C395.426 33.1459 393.723 33.4865 392.199 34.1513C390.626 34.8 389.28 35.7243 388.096 36.8595L409.147 60L388.096 83.1081C389.28 84.2919 390.626 85.2 392.199 85.8973C393.723 86.5946 395.426 86.9027 397.178 86.9838C399.059 86.9027 400.811 86.5946 402.416 85.8C404.038 85.054 405.433 84.0486 406.601 82.7838L427.36 60L406.617 37.2486C405.352 36.0324 403.989 35.027 402.384 34.2324C400.762 33.4865 399.059 33.1459 397.178 33.0973ZM462.001 33.0973C460.12 33.1459 458.466 33.4865 456.844 34.2324C455.222 35.0108 453.828 36.0162 452.611 37.2486L431.949 60L452.611 82.8C453.828 84.0649 455.238 85.0703 456.844 85.8162C458.466 86.5946 460.12 86.9027 462.001 87C463.883 86.9189 465.488 86.6108 467.029 85.9135C468.683 85.2162 469.948 84.2919 471.132 83.1243L450.13 60L471.132 36.8595C469.948 35.7243 468.683 34.8 467.029 34.1513C465.505 33.4865 463.883 33.1459 462.001 33.0973Z" fill="#E57000"/>
</svg>
