<svg xmlns="http://www.w3.org/2000/svg" xmlns:xlink="http://www.w3.org/1999/xlink" width="530" height="120" viewBox="0 0 530 120">
  <defs>
    <clipPath id="clip-path">
      <path id="Rechteck_152" data-name="Rechteck 152" d="M-3,192H80.273v72H-3Z" fill="none"/>
    </clipPath>
    <linearGradient id="linear-gradient" x1="0.06" y1="0.842" x2="0.979" y2="0.842" gradientUnits="objectBoundingBox">
      <stop offset="0" stop-color="#2972e2"/>
      <stop offset="1" stop-color="#26c7fc"/>
    </linearGradient>
    <linearGradient id="linear-gradient-2" x1="0.329" y1="0.565" x2="1.045" y2="0.565" gradientUnits="objectBoundingBox">
      <stop offset="0" stop-color="#26c4fb"/>
      <stop offset="1" stop-color="#2977e3"/>
    </linearGradient>
    <linearGradient id="linear-gradient-3" x1="-0.051" y1="0.57" x2="1.077" y2="0.441" xlink:href="#linear-gradient-2"/>
    <linearGradient id="linear-gradient-4" x1="-0.029" y1="0.657" x2="0.975" y2="0.657" xlink:href="#linear-gradient"/>
    <linearGradient id="linear-gradient-5" x1="0.729" y1="0.363" x2="0.724" y2="1.032" xlink:href="#linear-gradient-2"/>
    <linearGradient id="linear-gradient-6" x1="-0.011" y1="0.733" x2="0.542" y2="0.271" xlink:href="#linear-gradient-2"/>
    <linearGradient id="linear-gradient-7" x1="-0.016" y1="0.963" x2="0.807" y2="0.963" xlink:href="#linear-gradient-2"/>
    <linearGradient id="linear-gradient-8" x1="-0.052" y1="0.621" x2="0.952" y2="0.621" gradientUnits="objectBoundingBox">
      <stop offset="0" stop-color="#279ff0"/>
      <stop offset="1" stop-color="#8de1fd"/>
    </linearGradient>
    <linearGradient id="linear-gradient-9" x1="-0.024" y1="0.652" x2="0.975" y2="0.652" xlink:href="#linear-gradient-8"/>
    <linearGradient id="linear-gradient-10" x1="-0.063" y1="0.616" x2="0.941" y2="0.616" xlink:href="#linear-gradient-8"/>
    <linearGradient id="linear-gradient-11" x1="-0.015" y1="0.668" x2="0.973" y2="0.668" xlink:href="#linear-gradient-2"/>
    <linearGradient id="linear-gradient-12" x1="-0.023" y1="0.723" x2="0.981" y2="0.723" xlink:href="#linear-gradient-8"/>
    <linearGradient id="linear-gradient-13" x1="-0.018" y1="0.598" x2="0.988" y2="0.598" xlink:href="#linear-gradient-2"/>
    <linearGradient id="linear-gradient-14" x1="-0.035" y1="0.844" x2="0.973" y2="0.707" xlink:href="#linear-gradient"/>
    <linearGradient id="linear-gradient-15" x1="0.015" y1="0.621" x2="0.966" y2="0.621" xlink:href="#linear-gradient"/>
    <linearGradient id="linear-gradient-16" x1="-0.047" y1="0.705" x2="0.975" y2="0.705" xlink:href="#linear-gradient"/>
    <linearGradient id="linear-gradient-17" x1="0.902" y1="0.339" x2="0.384" y2="0.745" xlink:href="#linear-gradient"/>
    <linearGradient id="linear-gradient-18" x1="0.691" y1="3.868" x2="0.663" y2="0.363" xlink:href="#linear-gradient-2"/>
    <linearGradient id="linear-gradient-19" x1="0.109" y1="0.833" x2="0.927" y2="0.233" xlink:href="#linear-gradient-2"/>
    <linearGradient id="linear-gradient-20" x1="-0.018" y1="0.607" x2="0.986" y2="0.607" xlink:href="#linear-gradient-2"/>
    <linearGradient id="linear-gradient-21" x1="-0.019" y1="0.581" x2="0.985" y2="0.581" xlink:href="#linear-gradient-2"/>
    <linearGradient id="linear-gradient-22" x1="0.47" y1="0.409" x2="0.694" y2="0.794" xlink:href="#linear-gradient-8"/>
    <linearGradient id="linear-gradient-23" x1="0.395" y1="0.373" x2="0.981" y2="0.545" xlink:href="#linear-gradient-2"/>
    <linearGradient id="linear-gradient-24" x1="-0.027" y1="0.559" x2="0.977" y2="0.559" xlink:href="#linear-gradient-2"/>
    <linearGradient id="linear-gradient-25" x1="-0.032" y1="0.55" x2="0.973" y2="0.55" xlink:href="#linear-gradient"/>
    <linearGradient id="linear-gradient-26" x1="0.318" y1="0.454" x2="1.065" y2="0.609" xlink:href="#linear-gradient-2"/>
    <linearGradient id="linear-gradient-27" x1="-0.037" y1="0.543" x2="0.967" y2="0.543" xlink:href="#linear-gradient"/>
    <linearGradient id="linear-gradient-28" x1="0.301" y1="0.549" x2="1.082" y2="0.543" xlink:href="#linear-gradient-2"/>
    <linearGradient id="linear-gradient-29" x1="-0.054" y1="0.541" x2="0.945" y2="0.541" xlink:href="#linear-gradient-2"/>
    <linearGradient id="linear-gradient-30" x1="0.23" y1="-0.119" x2="1.02" y2="0.866" xlink:href="#linear-gradient-2"/>
  </defs>
  <rect id="Rechteck_275" data-name="Rechteck 275" width="530" height="120" rx="12" fill="rgba(0,0,0,0.05)"/>
  <path id="Pfad_30" data-name="Pfad 30" d="M428.714,667.236a2.062,2.062,0,0,0-1.219.5,2.818,2.818,0,0,0-3.137.289c-1.481-.189-1.962.2-2.327.657-.325-.007-2.432-.329-3.4,1.091-2.428-.283-3.2,1.407-2.327,2.983-.5.757-1.01,1.5.15,2.945-.41.8-.156,1.674.812,2.729a2.3,2.3,0,0,0,1.145,2.546c-.168,1.544,1.438,2.443,1.918,2.763.184.9.569,1.75,2.4,2.219.3,1.342,1.4,1.574,2.473,1.855-3.53,2.021-6.557,4.68-6.536,11.2l-.517.909a10.947,10.947,0,0,0-1.995,16.55,30.676,30.676,0,0,0,1.551,4.983,12.178,12.178,0,0,0,7.686,9.681,26.048,26.048,0,0,0,7.348,4.108,12.284,12.284,0,0,0,9.032,3.992h.137a12.282,12.282,0,0,0,9.032-3.993,26.019,26.019,0,0,0,7.347-4.107,12.176,12.176,0,0,0,7.682-9.677,30.65,30.65,0,0,0,1.555-4.984,10.949,10.949,0,0,0-2-16.551l-.517-.908c.021-6.524-3.006-9.183-6.536-11.2,1.068-.281,2.171-.513,2.474-1.855,1.835-.47,2.219-1.319,2.4-2.219.48-.32,2.087-1.219,1.918-2.764a2.3,2.3,0,0,0,1.146-2.546c.967-1.054,1.22-1.926.81-2.729,1.161-1.441.646-2.189.15-2.945.869-1.576.1-3.266-2.327-2.983-.966-1.42-3.073-1.1-3.4-1.091-.365-.456-.846-.846-2.327-.657a2.819,2.819,0,0,0-3.133-.291c-1.313-1.021-2.183-.2-3.175.107-1.59-.513-1.954.189-2.735.475-1.734-.361-2.261.425-3.093,1.255l-.967-.019c-2.615,1.518-3.915,4.61-4.375,6.2-.461-1.59-1.757-4.682-4.372-6.2l-.967.018c-.832-.83-1.359-1.615-3.094-1.254-.781-.286-1.144-.987-2.735-.475a6.11,6.11,0,0,0-1.957-.607" transform="translate(0 -644)" fill="#050606"/>
  <path id="Pfad_31" data-name="Pfad 31" d="M423.559,673.917c6.939,3.523,10.973,6.374,13.183,8.8-1.131,4.468-7.036,4.672-9.2,4.546a1.614,1.614,0,0,0,.942-.818c-.542-.38-2.463-.04-3.8-.783a1.264,1.264,0,0,0,1-.581,11.023,11.023,0,0,1-3.435-1.4,1.959,1.959,0,0,0,1.4-.291,13.287,13.287,0,0,1-3.286-2c.586-.014,1.219-.006,1.4-.218a12.591,12.591,0,0,1-2.641-2.109c.821.1,1.168.013,1.367-.128a10.418,10.418,0,0,1-2.253-2.436,1.679,1.679,0,0,0,1.57-.018c-.267-.593-1.41-.943-2.068-2.328.642.061,1.323.138,1.459,0a6.781,6.781,0,0,0-1.311-2.564,23.671,23.671,0,0,0,3.361-.11l-.849-.854a6.8,6.8,0,0,1,3.712.364c.447-.348-.008-.787-.554-1.237a13.68,13.68,0,0,1,3.1.764c.5-.442-.323-.885-.72-1.328a8,8,0,0,1,3.25,1.255c.539-.508.031-.94-.332-1.382a7.98,7.98,0,0,1,2.733,1.727c.244-.325.62-.563.166-1.346a6.9,6.9,0,0,1,2.182,1.874c.584-.366.348-.866.351-1.327a21.552,21.552,0,0,1,2.364,2.437,2.047,2.047,0,0,0,.406-1.073c2.338,2.234,5.642,7.863.849,10.094a45.314,45.314,0,0,0-14.349-7.529m36.756,0c-6.939,3.524-10.973,6.374-13.183,8.8,1.132,4.468,7.036,4.672,9.2,4.546a1.613,1.613,0,0,1-.941-.818c.542-.38,2.463-.04,3.8-.783a1.263,1.263,0,0,1-1-.581,11.021,11.021,0,0,0,3.434-1.4,1.958,1.958,0,0,1-1.4-.291,13.3,13.3,0,0,0,3.287-2c-.587-.014-1.219-.006-1.4-.218a12.609,12.609,0,0,0,2.641-2.109c-.821.1-1.168.013-1.367-.128a10.416,10.416,0,0,0,2.252-2.436,1.678,1.678,0,0,1-1.569-.018c.267-.593,1.409-.943,2.068-2.328-.643.061-1.323.138-1.46,0a6.8,6.8,0,0,1,1.311-2.565,23.825,23.825,0,0,1-3.361-.109l.85-.854a6.8,6.8,0,0,0-3.712.363c-.448-.348.008-.787.553-1.237a13.69,13.69,0,0,0-3.1.764c-.5-.442.323-.885.72-1.328a8.011,8.011,0,0,0-3.25,1.255c-.538-.508-.031-.94.332-1.382a7.97,7.97,0,0,0-2.732,1.727c-.244-.325-.621-.563-.167-1.346a6.9,6.9,0,0,0-2.183,1.874c-.584-.366-.348-.866-.351-1.327a21.538,21.538,0,0,0-2.363,2.437,2.041,2.041,0,0,1-.406-1.073c-2.338,2.234-5.642,7.863-.849,10.094a45.236,45.236,0,0,1,14.349-7.53" transform="translate(0 -644)" fill="#63c54d"/>
  <path id="Pfad_32" data-name="Pfad 32" d="M450.328,719.418c.024,4.169-3.678,7.567-8.268,7.589s-8.332-3.34-8.356-7.51v-.079c-.024-4.17,3.677-7.568,8.268-7.59s8.332,3.34,8.356,7.51v.079m-12.96-21.567c3.444,2.222,4.065,7.261,1.387,11.253s-7.642,5.427-11.086,3.2-4.067-7.257-1.387-11.249,7.642-5.427,11.086-3.2m9.3-.4c-3.448,2.216-4.066,7.258-1.391,11.247s7.642,5.427,11.086,3.2,4.066-7.26,1.387-11.253-7.641-5.426-11.086-3.2m-26.3,4.059c3.718-.982,1.255,15.154-1.77,13.829-3.328-2.637-4.4-10.359,1.769-13.829m42.974-.2c-3.719-.982-1.256,15.154,1.77,13.83,3.328-2.637,4.4-10.359-1.77-13.83m-12.469-12.04c6.417-1.068,11.757,2.688,11.541,9.542-.207,2.628-13.907-9.15-11.541-9.542m-17.731-.2c-6.418-1.068-11.758,2.689-11.542,9.543.211,2.627,13.906-9.152,11.542-9.543m8.841-1.6c-3.83-.1-7.506,2.8-7.515,4.481-.01,2.043,3.028,4.134,7.542,4.187,4.608.032,7.548-1.674,7.564-3.782.016-2.388-4.192-4.923-7.59-4.886m.3,41.885c3.335-.14,7.816,1.06,7.823,2.66.056,1.55-4.064,5.051-8.051,4.984-4.129.175-8.177-3.332-8.124-4.547-.062-1.782,5.028-3.173,8.346-3.092m-12.357-9.463c2.377,2.822,3.461,7.778,1.477,9.239-1.877,1.116-6.435.657-9.676-3.928-2.184-3.847-1.9-7.761-.369-8.912,2.294-1.377,5.839.483,8.567,3.6M453.853,719c-2.573,2.968-4.006,8.381-2.129,10.124,1.794,1.355,6.611,1.165,10.169-3.7,2.583-3.266,1.718-8.719.242-10.168-2.192-1.671-5.339.467-8.283,3.74" transform="translate(0 -644)" fill="#c51850"/>
  <path id="Pfad_242" data-name="Pfad 242" d="M356.43,667.236a36,36,0,1,0,36,36A36,36,0,0,0,356.43,667.236Zm8.077,12.4a4.8,4.8,0,1,1,1.759,6.563,4.8,4.8,0,0,1-1.759-6.563Zm-8.077,2.723a20.917,20.917,0,0,1,5.578.759,6.749,6.749,0,0,0,9.05,5.233,20.814,20.814,0,0,1,6.2,13.542l-6.849.1a14.041,14.041,0,0,0-19.9-11.49l-3.34-5.984a20.809,20.809,0,0,1,9.261-2.163Zm-24.479,25.684a4.807,4.807,0,1,1,4.808-4.807,4.807,4.807,0,0,1-4.808,4.807Zm4.261.428a6.751,6.751,0,0,0,0-10.47,20.929,20.929,0,0,1,8.634-12.137l3.514,5.886a14.035,14.035,0,0,0,0,22.972l-3.514,5.888A20.912,20.912,0,0,1,336.212,708.471Zm34.86,20.125a4.8,4.8,0,1,1,2.241-2.917,4.8,4.8,0,0,1-2.241,2.917Zm-.014-10.472a6.747,6.747,0,0,0-9.049,5.232,20.864,20.864,0,0,1-14.832-1.4l3.34-5.985a14.038,14.038,0,0,0,19.9-11.488l6.851.1a20.814,20.814,0,0,1-6.21,13.541Z" transform="translate(0 -644)" fill="#dd4814"/>
  <g id="Gruppe_314" data-name="Gruppe 314" transform="translate(0 -644)">
    <path id="Pfad_33" data-name="Pfad 33" d="M26.288,666.77h34v34h-34Z" fill="#1976d2"/>
    <path id="Pfad_34" data-name="Pfad 34" d="M64.372,700.686V666.77H98.288v33.916Z" fill="#1976d2"/>
    <path id="Pfad_35" data-name="Pfad 35" d="M26.288,704.77h34v34h-34Z" fill="#1976d2"/>
    <path id="Pfad_36" data-name="Pfad 36" d="M64.288,738.77v-34h34v34Z" fill="#1976d2"/>
  </g>
  <g id="Bildlaufgruppe_1" data-name="Bildlaufgruppe 1" transform="translate(122.076 -169.23)" clip-path="url(#clip-path)">
    <path id="Pfad_243" data-name="Pfad 243" d="M35.341,259.443c-4.6-1.533-10.546-3.467-10.655-3.467-.082,0-.178.172-.33.6q-.122.318-.214.647a.459.459,0,0,1-.087.172c-.1.137.243.308-4.941-2.475-3.851-2.068-3.951-2.117-4.074-2.016-.052.044-.5.646-.993,1.337l-.9,1.258-.1-.229c-.1-.24-1.781-5.02-3.3-9.394-.489-1.406-.918-2.556-.952-2.556a39.333,39.333,0,0,0-3.243,2.25c-.971.706-1.778,1.274-1.792,1.263s.546-1.3,1.24-2.862c2.219-4.994,2.38-5.381,2.24-5.381-.022,0-1.114.55-2.427,1.222s-2.39,1.206-2.39,1.186.39-1.236.867-2.7.873-2.707.873-2.758c0-.113.062-.132-1.834.553-.837.3-1.545.541-1.573.531-.053-.019.747-.9,4.023-4.435a19.934,19.934,0,0,0,2.768-3.34c1.913-2.912,3.483-5.362,3.483-5.434,0-.044-.067-.063-.156-.045l-1.637.361c-.816.179-1.528.317-1.582.3s1.768-1.184,4.05-2.607c8.544-5.327,10.27-6.378,10.731-6.536a.982.982,0,0,0,.317-.144c0-.019-.726-.013-1.612.015s-1.6.036-1.578.018c.041-.038,7.962-6.194,11.27-8.757,2.663-2.064,4.994-3.838,5.457-4.154a1.016,1.016,0,0,1,.728-.224c.224,0,2.494.14,5.05.312,11.771.791,15.962,1.089,16.1,1.145.08.034,1.54,1.792,3.243,3.9l3.1,3.843,2.859,1.318c1.573.725,2.865,1.323,2.87,1.329s.23.4.059.189l.2.224c.378.432,6.445,8.555,6.475,8.668s-.763,6.907-.845,7.284c-.028.132-4.052,4.033-4.052,4.39-.013-.013.085-1.555.216-3.427a26.2,26.2,0,0,0,.282-4.042l-.352-.639-.3-.04c-.331-.044-6.3-.426-14.205-.907-2.8-.171-5.354-.329-5.67-.352l-.572-.041v.217c0,.228.668,6.079,1.6,14.013l.555,4.727-.243.351c-.134.193-.786,1.1-1.449,2.021L50.725,247.8l.176.317.176.317-1.538,1.915A23.493,23.493,0,0,0,48,252.381a6.018,6.018,0,0,0,.327.892l.327.773-.23.181c-.126.1-1.14.78-2.252,1.511l-2.022,1.33.018.235c.01.129.114.622.23,1.094a7.065,7.065,0,0,1,.187.884c-.028.028-2.579-.312-5.248-.7-.93-.134-1.73-.245-1.777-.245-.066,0-.075.209-.05.9a3.108,3.108,0,0,1-.025.9c-.034,0-1-.319-2.143-.7Z" fill="#297be5"/>
    <path id="Pfad_244" data-name="Pfad 244" d="M83.739,231.432l15.483,1.087-4.942,3.659Z" transform="translate(-21.964 -9.985)" fill="url(#linear-gradient)"/>
    <path id="Pfad_245" data-name="Pfad 245" d="M59.791,235.255,68.27,254.74,54.187,234.893Z" transform="translate(-14.481 -10.861)" fill="url(#linear-gradient-2)"/>
    <path id="Pfad_246" data-name="Pfad 246" d="M67.711,235.053,70.019,254.7l-9-20.2Z" transform="translate(-16.21 -10.762)" fill="url(#linear-gradient-3)"/>
    <path id="Pfad_247" data-name="Pfad 247" d="M64.994,222.573l15.319,6.6-8.862-8.6Z" transform="translate(-17.218 -7.237)" fill="url(#linear-gradient-4)"/>
    <path id="Pfad_248" data-name="Pfad 248" d="M85.26,236.294l-9.273-4.354-27.874,2.016Z" transform="translate(-12.943 -10.114)" fill="url(#linear-gradient-5)"/>
    <path id="Pfad_249" data-name="Pfad 249" d="M10.222,231.174l15.342-9.507,39.85-2.6Z" transform="translate(-3.348 -6.853)" fill="url(#linear-gradient-6)"/>
    <path id="Pfad_250" data-name="Pfad 250" d="M58.445,212.532S28.634,219.7,26.8,220.123l1.527-.224-1.509.224,35-1.533-1.867-3.281Z" transform="translate(-7.547 -5.199)" fill="url(#linear-gradient-7)"/>
    <path id="Pfad_251" data-name="Pfad 251" d="M92.941,219.868l-7.433,8.448,1.6-11.139Z" transform="translate(-22.412 -6.375)" fill="url(#linear-gradient-8)"/>
    <path id="Pfad_252" data-name="Pfad 252" d="M99.683,229.8l-6.833-9.111-7.4,8.4Z" transform="translate(-22.397 -7.266)" fill="url(#linear-gradient-9)"/>
    <path id="Pfad_253" data-name="Pfad 253" d="M97.058,244.894l.6-8.348,4.942-3.659-.917,7.512-4.62,4.495" transform="translate(-25.337 -10.353)" fill="url(#linear-gradient-10)"/>
    <path id="Pfad_254" data-name="Pfad 254" d="M82.849,214.535l-6.308-7.792-7.841,4.39Z" transform="translate(-18.156 -3.733)" fill="url(#linear-gradient-11)"/>
    <path id="Pfad_255" data-name="Pfad 255" d="M49.979,204.752l14.308,5.8,7.555-4.309Z" transform="translate(-13.416 -3.229)" fill="url(#linear-gradient-12)"/>
    <path id="Pfad_256" data-name="Pfad 256" d="M26.8,218.156l17.308-13.4,14.4,5.84Z" transform="translate(-7.546 -3.23)" fill="url(#linear-gradient-13)"/>
    <path id="Pfad_257" data-name="Pfad 257" d="M82.957,216l-10.515,2.655-3.316-6.115Z" transform="translate(-18.264 -5.202)" fill="url(#linear-gradient-14)"/>
    <path id="Pfad_258" data-name="Pfad 258" d="M83.9,217.177l-11.044,2.671,9.446,8.468Z" transform="translate(-19.209 -6.375)" fill="url(#linear-gradient-15)"/>
    <path id="Pfad_259" data-name="Pfad 259" d="M65.82,228.947l14.488.879-15.339-6.687Z" transform="translate(-17.211 -7.885)" fill="url(#linear-gradient-16)"/>
    <path id="Pfad_260" data-name="Pfad 260" d="M51.983,228.933l-41.993,8.9L51.1,223.108Z" transform="translate(-3.29 -7.877)" fill="url(#linear-gradient-17)"/>
    <path id="Pfad_261" data-name="Pfad 261" d="M48.562,233.694l13.255-2.806,14.614.83Z" transform="translate(-13.057 -9.847)" fill="url(#linear-gradient-18)"/>
    <path id="Pfad_262" data-name="Pfad 262" d="M51.091,223.145l-36.8,8.144-4.3,6.557Z" transform="translate(-3.29 -7.886)" fill="url(#linear-gradient-19)"/>
    <path id="Pfad_263" data-name="Pfad 263" d="M36.554,234.65,7.8,240.759l-6.472,6.976Z" transform="translate(-1.095 -10.8)" fill="url(#linear-gradient-20)"/>
    <path id="Pfad_264" data-name="Pfad 264" d="M3.927,252.069,37.213,234.65,5.877,246.289Z" transform="translate(-1.754 -10.8)" fill="url(#linear-gradient-21)"/>
    <path id="Pfad_265" data-name="Pfad 265" d="M5.606,258l3.865-8.6L37.638,234.65Z" transform="translate(-2.18 -10.8)" fill="url(#linear-gradient-22)"/>
    <path id="Pfad_266" data-name="Pfad 266" d="M17.035,266.543l-4.39-12.614L39.421,234.65Z" transform="translate(-3.962 -10.8)" fill="url(#linear-gradient-23)"/>
    <path id="Pfad_267" data-name="Pfad 267" d="M66.822,254.646l-2.886,3.989L48.5,234.65Z" transform="translate(-13.041 -10.8)" fill="url(#linear-gradient-24)"/>
    <path id="Pfad_268" data-name="Pfad 268" d="M61.128,263.165,48.5,234.65l15.826,24.591Z" transform="translate(-13.041 -10.8)" fill="url(#linear-gradient-25)"/>
    <path id="Pfad_269" data-name="Pfad 269" d="M30.219,268.485l-8.982-4.829L41.6,234.65Z" transform="translate(-6.138 -10.8)" fill="url(#linear-gradient-26)"/>
    <path id="Pfad_270" data-name="Pfad 270" d="M61.914,264.939,48.5,234.65l8.73,33.33Z" transform="translate(-13.041 -10.8)" fill="url(#linear-gradient-27)"/>
    <path id="Pfad_271" data-name="Pfad 271" d="M44.834,234.65l2.236,36.416-13.048-4.257Z" transform="translate(-9.375 -10.8)" fill="url(#linear-gradient-28)"/>
    <path id="Pfad_272" data-name="Pfad 272" d="M48.5,234.65l2.115,34.56,7.244,1.029Z" transform="translate(-13.041 -10.8)" fill="url(#linear-gradient-29)"/>
    <path id="Pfad_273" data-name="Pfad 273" d="M41.623,210.842c7.248-3.326,13.692,6.87,17.528,2.727-1.673,2.673-5.566,2.916-8.281,2.926,0,0-4.166-.1-3.62-3.6-.9-1.484-3.75-1.453-5.627-2.053Z"/>
    <path id="Pfad_274" data-name="Pfad 274" d="M48.416,211.879a2.209,2.209,0,1,0,3.43,1.26,1.849,1.849,0,0,1-1.682,1.419,2.016,2.016,0,0,1-1.8-2.181,2.628,2.628,0,0,1,.052-.5Z" fill="#fff"/>
    <path id="Pfad_275" data-name="Pfad 275" d="M67.885,215.689s-2.508.627-2.195,2.038C65.69,217.727,66.709,217.649,67.885,215.689Z"/>
    <path id="Pfad_276" data-name="Pfad 276" d="M53.057,234.95l13.776,19.74L48.474,234.657Z" transform="translate(-13.035 -10.802)" fill="url(#linear-gradient-30)"/>
  </g>
  <path id="Pfad_184" data-name="Pfad 184" d="M299.294,728.244a13.987,13.987,0,0,0-1.574-4.019,18.9,18.9,0,0,0-6.155-5.978,42.611,42.611,0,0,0-7.638-3.8c-5.059-1.955-4.814-1.89-8.229-3.108-7.566-2.7-11.766-6.706-12.03-11.054-.127-2.106,1.929-8.967,10.406-7.336a25.639,25.639,0,0,1,5.791,1.776c1.729.781,6.774,3.228,8.542,6.711.134,1.537.675,2.131,2.837,3.152,1.626.768,3.267,1.6,3.414,3.493a.237.237,0,0,0,.224.207.225.225,0,0,0,.207-.139,2.564,2.564,0,0,1,2.5-1.437.217.217,0,0,0,.254-.1.225.225,0,0,0-.036-.271l-1.474-1.467a9.33,9.33,0,0,1-1.609-2.14q-.191-.349-.349-.714l-.2-.481a25.972,25.972,0,0,0-5.936-8.977,25.094,25.094,0,0,0-4.24-3.277,19.894,19.894,0,0,0-4.854-2.231l-.127.439a19.334,19.334,0,0,1,4.561,2.431,24.128,24.128,0,0,1,3.894,3.39,20.492,20.492,0,0,1,3.91,6.017l-3.41-4.247.094,1.47-2.8-3.154.173,1.477-2.715-2.193.233,1c-.612-.4-6.039-2.563-8.748-3.581s-8.061-6.037-6.517-12.39c0,0-2.53-.983-4.343-1.653q-2.671-.953-5.38-1.792c-3.6-1.127-7.216-2.155-10.853-3.115s-7.3-1.819-10.98-2.584a110.033,110.033,0,0,0-11.136-1.8l-.067.571a109.762,109.762,0,0,1,10.943,2.368q5.417,1.426,10.757,3.134t10.583,3.642q3.175,1.169,6.286,2.5c-2.1-.413-4.194-.74-6.293-1.013-3.788-.481-7.579-.785-11.374-.956s-7.59-.2-11.379-.058a86.945,86.945,0,0,0-11.318,1.088l.074.521a85.845,85.845,0,0,1,11.244-.314c3.75.115,7.494.4,11.216.817s7.427.971,11.083,1.689c2.255.447,4.5.966,6.687,1.578a46.261,46.261,0,0,0-5.164-.2,65.618,65.618,0,0,0-10.014.987,77.35,77.35,0,0,0-9.723,2.306,44.23,44.23,0,0,0-9.189,3.854l.2.356a43.468,43.468,0,0,1,9.3-3.048,75.8,75.8,0,0,1,9.669-1.487,63.138,63.138,0,0,1,9.7-.173,34.764,34.764,0,0,1,8.272,1.452,26.364,26.364,0,0,0,.875,3.077c-7.29,3.353-8.213,9.383-7.617,12.618.7,3.793,3.445,6.685,6.688,8.558a55.262,55.262,0,0,0,8.1,3.507,54.358,54.358,0,0,1,7.653,3.286,17.8,17.8,0,0,1,5.81,5.5c3.147,4.519,4.406,10.218,4.783,15.839l.625-.017c.014-5.693-.8-11.653-3.858-16.81a21.922,21.922,0,0,0-3.719-4.682,39.437,39.437,0,0,1,4.946,2.284,17.662,17.662,0,0,1,6.079,5.227,13.061,13.061,0,0,1,1.684,3.654,19.1,19.1,0,0,1,.564,4.062h.535a20.038,20.038,0,0,0-.348-4.243Z" transform="translate(0 -644)" fill="#3b9fd1"/>
</svg>
