<svg xmlns="http://www.w3.org/2000/svg" xmlns:xlink="http://www.w3.org/1999/xlink" style="margin:auto;background: #f1f2f300;display:block;position:relative;border-radius: 24px;" width="2000" height="300" preserveAspectRatio="xMidYMid" viewBox="0 0 2000 300">
  <g transform="translate(1000,150) scale(1,1) translate(-1000,-150)">
    <linearGradient id="ldbk-git0pbnxxcs" x1="-0.1" y1="0" x2="1.1" y2="1">
      <animate attributeName="y2" repeatCount="indefinite" dur="20s" keyTimes="0;0.5;1" values="-0.5;0.5;-0.5" keySplines="0.5 0 0.5 1;0.5 0 0.5 1" calcMode="spline"/>
      <stop stop-color="#06229e" offset="0"/>
      <stop stop-color="#1e77ec" offset="1"/>
    </linearGradient>
    <rect x="0" y="0" width="2000" height="300" fill="url(#ldbk-git0pbnxxcs)"/>
  </g>

  <g transform="translate(1120,150) scale(1,1) translate(-1000,-150)">
    <defs>
      <filter id="blur-s3um2il2j3-1" x="-1" y="-1" width="3" height="3">
        <feGaussianBlur stdDeviation="8.6"/>
      </filter>
      <filter id="blur-s3um2il2j3-2" x="-1" y="-1" width="3" height="3">
        <feGaussianBlur stdDeviation="4.3"/>
      </filter>
      <filter id="blur-s3um2il2j3-3" x="-1" y="-1" width="3" height="3">
        <feGaussianBlur stdDeviation="2.8666666666666667"/>
      </filter>
      <filter id="blur-s3um2il2j3-4" x="-1" y="-1" width="3" height="3">
        <feGaussianBlur stdDeviation="2.15"/>
      </filter>
      <filter id="blur-s3um2il2j3-5" x="-1" y="-1" width="3" height="3">
        <feGaussianBlur stdDeviation="1.72"/>
      </filter>
    </defs>
    <circle cx="200" cy="0" transform="translate(0 30)" r="8.882948377782046" fill="#538dc8" opacity="0.26599999999999996" filter="url(#blur-s3um2il2j3-2)">
      <animateTransform attributeName="transform" type="translate" begin="-38.57228984932794s" dur="49.99999999999999s" repeatCount="indefinite" keyTimes="0;1" values="0 508.88294837778204;0 -8.882948377782046"/>
    </circle>
    <circle cx="1500" cy="0" transform="translate(0 400)" r="7.745578053213896" fill="#ddeeff" opacity="0.26599999999999996" filter="url(#blur-s3um2il2j3-2)">
      <animateTransform attributeName="transform" type="translate" begin="-19.67853735603565s" dur="49.99999999999999s" repeatCount="indefinite" keyTimes="0;1" values="0 507.7455780532139;0 -7.745578053213896"/>
    </circle>
    <circle cx="1300" cy="0" transform="translate(0 200)" r="11.06478337322844" fill="#538dc8" opacity="0.30400000000000005" filter="url(#blur-s3um2il2j3-3)">
      <animateTransform attributeName="transform" type="translate" begin="-21.47243572333339s" dur="33.33333333333333s" repeatCount="indefinite" keyTimes="0;1" values="0 511.06478337322847;0 -11.06478337322844"/>
    </circle>
    <circle cx="1500" cy="0" transform="translate(0 80)" r="10.458321398924799" fill="#bbddff" opacity="0.30400000000000005" filter="url(#blur-s3um2il2j3-3)">
      <animateTransform attributeName="transform" type="translate" begin="-29.779152358590704s" dur="33.33333333333333s" repeatCount="indefinite" keyTimes="0;1" values="0 510.4583213989248;0 -10.458321398924799"/>
    </circle>
    <circle cx="1200" cy="0" transform="translate(0 50)" r="14.928432787839295" fill="#ddeeff" opacity="0.323" filter="url(#blur-s3um2il2j3-4)">
      <animateTransform attributeName="transform" type="translate" begin="-23.778220159927933s" dur="24.999999999999996s" repeatCount="indefinite" keyTimes="0;1" values="0 514.9284327878393;0 -14.928432787839295"/>
    </circle>
    <circle cx="100" cy="0" transform="translate(0 250)" r="9.828707292218528" fill="#538dc8" opacity="0.30400000000000005" filter="url(#blur-s3um2il2j3-3)">
      <animateTransform attributeName="transform" type="translate" begin="-0.11744021109014734s" dur="33.33333333333333s" repeatCount="indefinite" keyTimes="0;1" values="0 509.82870729221855;0 -9.828707292218528"/>
    </circle>
    <circle cx="300" cy="0" transform="translate(0 300)" r="14.70131943456839" fill="#bbddff" opacity="0.323" filter="url(#blur-s3um2il2j3-4)">
      <animateTransform attributeName="transform" type="translate" begin="-12.670251283324594s" dur="24.999999999999996s" repeatCount="indefinite" keyTimes="0;1" values="0 514.7013194345684;0 -14.70131943456839"/>
    </circle>
    <circle cx="1450" cy="0" transform="translate(0 211)" r="9.960148376161051" fill="#ddeeff" opacity="0.30400000000000005" filter="url(#blur-s3um2il2j3-3)">
      <animateTransform attributeName="transform" type="translate" begin="-14.073521657037737s" dur="34s" repeatCount="indefinite" keyTimes="0;1" values="0 509.96014837616104;0 -9.960148376161051"/>
    </circle>
    <circle cx="790" cy="0" transform="translate(0 432)" r="5.0840669837855845" fill="#bbddff" opacity="0.15200000000000002" filter="url(#blur-s3um2il2j3-1)">
      <animateTransform attributeName="transform" type="translate" begin="-3.029152097099552s" dur="80s" repeatCount="indefinite" keyTimes="0;1" values="0 505.0840669837856;0 -5.0840669837855845"/>
    </circle>
    <circle cx="900" cy="0" transform="translate(0 270)" r="11.796352320466884" fill="#bbddff" opacity="0.30400000000000005" filter="url(#blur-s3um2il2j3-3)">
      <animateTransform attributeName="transform" type="translate" begin="-21.85861350371256s" dur="60s" repeatCount="indefinite" keyTimes="0;1" values="0 511.7963523204669;0 -11.796352320466884"/>
    </circle>
  </g>
  
  <g transform="translate(840,119) scale(1,1)" id="svgGroup" stroke-linecap="round" fill-rule="evenodd" font-size="9pt" stroke="#000" stroke-width="0.25mm" fill="black" style="stroke: #fff;stroke-width:0.25mm;fill: white;"><path d="M 33.402 41.4 L 34.002 43.6 A 33.484 33.484 0 0 0 32.322 43.366 Q 31.174 43.234 29.852 43.15 Q 27.502 43 25.202 42.9 A 123.322 123.322 0 0 0 23.561 42.839 Q 22.264 42.8 21.202 42.8 Q 17.043 42.8 13.823 43.466 A 24.501 24.501 0 0 0 13.002 43.65 Q 9.502 44.5 7.152 46.15 A 11.913 11.913 0 0 0 4.994 48.072 A 9.808 9.808 0 0 0 3.652 50.05 A 10.569 10.569 0 0 0 2.549 53.985 A 12.875 12.875 0 0 0 2.502 55.1 Q 2.502 57.4 3.202 59.3 Q 3.902 61.2 5.352 62.6 A 8.979 8.979 0 0 0 7.639 64.188 A 11.392 11.392 0 0 0 9.002 64.75 A 12.933 12.933 0 0 0 11.099 65.263 Q 12.558 65.5 14.302 65.5 A 22.957 22.957 0 0 0 18.415 65.148 A 17.408 17.408 0 0 0 22.252 64 Q 25.702 62.5 28.052 59.7 A 18.37 18.37 0 0 0 31.022 54.684 A 21.902 21.902 0 0 0 31.602 53.05 A 26.422 26.422 0 0 0 32.66 47.674 A 32.5 32.5 0 0 0 32.802 44.6 A 75.987 75.987 0 0 0 32.654 39.706 Q 32.372 35.35 31.552 32.2 A 15.92 15.92 0 0 0 30.371 29.012 Q 29.127 26.555 27.102 25.1 Q 24.669 23.352 20.676 22.932 A 25.647 25.647 0 0 0 18.002 22.8 Q 14.402 22.8 11.102 24.25 A 19.054 19.054 0 0 0 7.808 26.133 Q 6.362 27.151 4.915 28.506 A 32.81 32.81 0 0 0 4.502 28.9 L 2.802 27.3 A 27.333 27.333 0 0 1 6.743 24.011 A 22.798 22.798 0 0 1 9.602 22.35 A 17.192 17.192 0 0 1 14.666 20.826 A 22.376 22.376 0 0 1 17.902 20.6 A 28.303 28.303 0 0 1 21.417 20.806 Q 23.822 21.108 25.752 21.85 A 12.32 12.32 0 0 1 30.205 24.736 A 12.046 12.046 0 0 1 31.052 25.7 Q 32.895 28.038 33.89 31.67 A 25.58 25.58 0 0 1 34.102 32.5 A 33.555 33.555 0 0 1 34.768 36.346 Q 34.997 38.301 35.069 40.524 A 64.341 64.341 0 0 1 35.102 42.6 L 35.102 66.5 L 32.602 66.5 L 32.602 55.1 Q 31.902 57.7 30.352 59.95 A 15.745 15.745 0 0 1 27.381 63.16 A 18.609 18.609 0 0 1 26.352 63.95 A 18.489 18.489 0 0 1 21.908 66.266 A 21.564 21.564 0 0 1 20.752 66.65 Q 17.602 67.6 13.802 67.6 A 19.376 19.376 0 0 1 9.744 67.202 Q 5.937 66.386 3.552 63.9 Q 0.002 60.2 0.002 55 A 13.159 13.159 0 0 1 0.45 51.506 A 11.161 11.161 0 0 1 1.502 48.95 A 13.019 13.019 0 0 1 4.923 45.048 A 15.5 15.5 0 0 1 5.752 44.45 A 18.892 18.892 0 0 1 9.58 42.489 A 24.089 24.089 0 0 1 12.252 41.65 A 30.363 30.363 0 0 1 16.74 40.882 A 39.5 39.5 0 0 1 20.602 40.7 A 138.369 138.369 0 0 1 22.294 40.711 Q 23.183 40.722 24.168 40.744 A 229.293 229.293 0 0 1 24.452 40.75 A 107.689 107.689 0 0 1 27.789 40.881 A 123.256 123.256 0 0 1 28.952 40.95 A 60.216 60.216 0 0 1 32.065 41.227 A 51.455 51.455 0 0 1 33.402 41.4 Z M 50.602 60.5 L 52.802 58.7 L 53.402 58.2 L 53.902 58.7 A 0.92 0.92 0 0 0 53.8 58.937 Q 53.703 59.301 53.96 59.69 A 1.633 1.633 0 0 0 54.002 59.75 Q 54.395 60.291 55.562 61.364 A 38.812 38.812 0 0 0 55.602 61.4 A 16.522 16.522 0 0 0 59.72 63.947 A 18.716 18.716 0 0 0 60.202 64.15 A 13.687 13.687 0 0 0 63.028 64.933 Q 64.344 65.158 65.841 65.193 A 23.89 23.89 0 0 0 66.402 65.2 Q 70.533 65.2 73.479 63.985 A 11.95 11.95 0 0 0 75.052 63.2 Q 78.402 61.2 80.052 57.75 Q 81.702 54.3 81.702 50 Q 81.702 46.2 80.102 43.55 A 11.978 11.978 0 0 0 76.178 39.595 A 14.315 14.315 0 0 0 75.602 39.25 A 18.417 18.417 0 0 0 72.196 37.765 A 25.347 25.347 0 0 0 68.652 36.9 Q 64.602 36.2 59.702 36.3 L 59.702 33.9 A 30.269 30.269 0 0 0 64.172 33.585 A 22.65 22.65 0 0 0 68.252 32.6 A 22.146 22.146 0 0 0 71.591 31.141 A 16.657 16.657 0 0 0 74.502 29.15 A 17.298 17.298 0 0 0 76.819 26.753 A 13.958 13.958 0 0 0 78.302 24.45 A 12.705 12.705 0 0 0 79.235 22.092 A 9.633 9.633 0 0 0 79.602 19.5 A 15.878 15.878 0 0 0 79.433 17.12 Q 79.237 15.832 78.816 14.745 A 9.331 9.331 0 0 0 78.652 14.35 Q 77.702 12.2 76.002 10.85 A 11.154 11.154 0 0 0 72.606 9.023 A 12.953 12.953 0 0 0 72.052 8.85 A 16.706 16.706 0 0 0 68.519 8.243 A 19.772 19.772 0 0 0 67.202 8.2 Q 64.702 8.2 62.352 8.9 Q 60.002 9.6 57.902 10.9 Q 55.802 12.2 54.102 14.1 L 52.602 12.2 Q 55.411 9.308 58.186 7.816 A 15.262 15.262 0 0 1 59.352 7.25 A 17.21 17.21 0 0 1 63.576 6.058 A 23.076 23.076 0 0 1 67.102 5.8 A 22.291 22.291 0 0 1 71.024 6.129 A 16.245 16.245 0 0 1 75.102 7.4 Q 78.502 9 80.402 12.1 A 12.358 12.358 0 0 1 81.912 15.939 Q 82.253 17.494 82.296 19.284 A 21.667 21.667 0 0 1 82.302 19.8 A 12.075 12.075 0 0 1 81.102 24.997 A 14.74 14.74 0 0 1 80.552 26.05 A 16.946 16.946 0 0 1 76.494 30.775 A 19.747 19.747 0 0 1 75.752 31.35 A 19.771 19.771 0 0 1 69.286 34.47 A 22.533 22.533 0 0 1 68.802 34.6 Q 72.802 34.9 76.352 36.9 Q 79.902 38.9 82.152 42.35 Q 84.402 45.8 84.402 50.3 A 20.682 20.682 0 0 1 83.697 55.784 A 17.895 17.895 0 0 1 82.402 59.15 Q 80.402 63.1 76.452 65.35 Q 72.502 67.6 66.702 67.6 A 25.34 25.34 0 0 1 62.267 67.23 A 18.485 18.485 0 0 1 57.652 65.8 A 21.497 21.497 0 0 1 52.242 62.144 A 25.988 25.988 0 0 1 50.602 60.5 Z M 134.102 11.2 L 132.502 13.1 L 131.902 13.7 L 131.402 13.3 A 0.919 0.919 0 0 0 131.469 12.956 Q 131.469 12.6 131.202 12.2 Q 130.898 11.745 130.076 11.059 A 18.643 18.643 0 0 0 129.502 10.6 Q 128.402 9.7 127.152 9.05 Q 125.902 8.4 124.502 8.05 Q 123.102 7.7 121.602 7.7 Q 118.402 7.7 115.602 8.95 A 14.574 14.574 0 0 0 111.683 11.556 A 17.777 17.777 0 0 0 110.502 12.75 A 20.08 20.08 0 0 0 108.181 15.928 A 27.224 27.224 0 0 0 106.552 19.15 A 33.195 33.195 0 0 0 105.17 23.078 Q 104.48 25.484 104.002 28.3 Q 103.102 33.6 103.002 40.3 A 29.138 29.138 0 0 1 104.897 37.536 A 38.45 38.45 0 0 1 106.852 35.2 Q 109.202 32.6 112.402 30.85 A 14.422 14.422 0 0 1 118.957 29.109 A 17.064 17.064 0 0 1 119.502 29.1 A 17.573 17.573 0 0 1 124.786 29.883 A 16.444 16.444 0 0 1 125.702 30.2 Q 128.602 31.3 130.852 33.55 A 14.454 14.454 0 0 1 133.522 37.283 A 18.029 18.029 0 0 1 134.352 39.2 Q 135.524 42.388 135.597 46.63 A 33.039 33.039 0 0 1 135.602 47.2 A 28.111 28.111 0 0 1 135.13 52.48 A 20.654 20.654 0 0 1 133.302 57.95 A 19.204 19.204 0 0 1 130.273 62.367 A 16.448 16.448 0 0 1 127.152 65 Q 123.302 67.5 118.802 67.5 A 17.281 17.281 0 0 1 113.536 66.727 A 14.602 14.602 0 0 1 108.752 64.15 A 17.445 17.445 0 0 1 104.732 59.432 Q 103.513 57.383 102.633 54.838 A 30.508 30.508 0 0 1 102.502 54.45 A 38.239 38.239 0 0 1 101.066 48.387 Q 100.589 45.351 100.454 41.881 A 71.913 71.913 0 0 1 100.402 39.1 A 72.925 72.925 0 0 1 100.803 31.22 Q 101.22 27.387 102.072 24.119 A 36.138 36.138 0 0 1 103.252 20.4 A 33.615 33.615 0 0 1 105.664 15.302 Q 107.272 12.565 109.275 10.584 A 18.572 18.572 0 0 1 110.902 9.15 A 17.335 17.335 0 0 1 116.266 6.249 Q 118.735 5.453 121.402 5.5 Q 124.647 5.575 127.01 6.363 A 11.577 11.577 0 0 1 128.452 6.95 Q 131.202 8.3 134.102 11.2 Z M 233.002 32.1 L 233.002 0 L 235.402 0 L 236.202 0 L 236.202 0.7 A 0.99 0.99 0 0 0 235.668 1.212 A 1.606 1.606 0 0 0 235.552 1.55 A 2.725 2.725 0 0 0 235.504 1.831 Q 235.421 2.519 235.502 3.9 L 235.602 59.4 Q 235.602 61.2 235.752 62.95 A 12.335 12.335 0 0 0 236.286 65.603 A 14.404 14.404 0 0 0 236.602 66.5 L 234.002 66.4 A 7.649 7.649 0 0 1 233.671 65.4 Q 233.534 64.878 233.434 64.263 A 17.581 17.581 0 0 1 233.302 63.25 Q 233.102 61.3 233.052 59.4 Q 233.002 57.5 233.002 56.3 A 12.44 12.44 0 0 1 232.06 58.594 Q 231.517 59.629 230.749 60.698 A 22.52 22.52 0 0 1 230.302 61.3 A 15.837 15.837 0 0 1 226.804 64.608 A 19.561 19.561 0 0 1 225.052 65.7 A 13.75 13.75 0 0 1 221.19 67.104 Q 219.305 67.5 217.102 67.5 Q 213.502 67.5 210.102 66.05 A 16.569 16.569 0 0 1 204.748 62.348 A 19.557 19.557 0 0 1 204.052 61.6 A 20.054 20.054 0 0 1 201.339 57.613 A 26.829 26.829 0 0 1 199.802 54.05 Q 198.202 49.5 198.202 43.4 A 37.722 37.722 0 0 1 198.48 38.689 Q 198.889 35.441 199.902 32.85 A 22.444 22.444 0 0 1 201.88 28.914 A 17.402 17.402 0 0 1 204.452 25.75 A 18.852 18.852 0 0 1 209.061 22.442 A 17.33 17.33 0 0 1 210.752 21.7 Q 214.202 20.4 217.802 20.4 Q 221.402 20.4 224.502 22 Q 227.602 23.6 229.852 26.25 Q 232.102 28.9 233.002 32.1 Z M 285.902 43.3 L 251.202 43.3 A 42.226 42.226 0 0 0 251.509 47.767 Q 251.796 50.049 252.341 52.028 A 24.728 24.728 0 0 0 252.552 52.75 A 22.479 22.479 0 0 0 254.12 56.594 A 17.696 17.696 0 0 0 256.102 59.6 Q 258.402 62.4 261.702 63.8 A 17.608 17.608 0 0 0 266.617 65.063 A 21.997 21.997 0 0 0 269.102 65.2 A 21.76 21.76 0 0 0 271.928 65.025 Q 273.433 64.828 274.727 64.408 A 13.253 13.253 0 0 0 274.902 64.35 Q 277.402 63.5 279.402 61.95 Q 281.402 60.4 283.102 58.5 L 285.002 59.9 Q 283.102 62.2 280.702 63.95 Q 278.302 65.7 275.402 66.6 Q 272.502 67.5 269.102 67.5 A 22.076 22.076 0 0 1 264.22 66.98 A 18.267 18.267 0 0 1 260.802 65.85 Q 257.102 64.2 254.402 61.15 Q 251.702 58.1 250.252 53.8 A 27.391 27.391 0 0 1 249.01 48.073 A 34.904 34.904 0 0 1 248.802 44.2 A 38.307 38.307 0 0 1 249.142 38.971 A 28.372 28.372 0 0 1 250.252 34.05 Q 251.702 29.6 254.302 26.6 A 17.784 17.784 0 0 1 259.055 22.682 A 16.802 16.802 0 0 1 260.302 22.05 A 17.429 17.429 0 0 1 266.957 20.514 A 20.225 20.225 0 0 1 267.702 20.5 A 20.583 20.583 0 0 1 273.017 21.17 A 18.494 18.494 0 0 1 274.952 21.8 Q 278.302 23.1 280.752 25.65 Q 283.202 28.2 284.602 32.1 Q 286.002 36 286.002 41.2 L 286.002 42.25 A 2.369 2.369 0 0 1 285.997 42.386 Q 285.984 42.607 285.935 43.025 A 34.408 34.408 0 0 1 285.902 43.3 Z M 319.002 66.5 L 316.202 66.5 L 297.702 21.6 L 300.402 21.6 L 318.202 64.6 L 317.202 64.6 L 328.102 39.7 Q 330.164 35.059 331.562 31.194 A 88.275 88.275 0 0 0 332.002 29.95 Q 333.502 25.6 334.402 21.6 L 337.202 21.6 A 71.438 71.438 0 0 1 335.678 27.006 A 86.492 86.492 0 0 1 334.502 30.4 Q 332.802 35 330.202 40.8 L 319.002 66.5 Z M 217.602 65.2 A 15.743 15.743 0 0 0 221.06 64.836 A 12.28 12.28 0 0 0 224.252 63.65 A 13.717 13.717 0 0 0 228.523 59.989 A 16.324 16.324 0 0 0 229.102 59.2 Q 231.102 56.3 232.102 52.3 A 32.784 32.784 0 0 0 232.91 47.515 A 42.607 42.607 0 0 0 233.102 43.4 Q 233.102 38.281 232.047 34.584 A 17.051 17.051 0 0 0 230.652 31.1 A 19.878 19.878 0 0 0 228.57 27.973 Q 226.815 25.838 224.652 24.65 Q 221.398 22.863 218.439 22.714 A 10.659 10.659 0 0 0 217.902 22.7 Q 214.602 22.7 211.552 23.9 A 15.981 15.981 0 0 0 206.206 27.398 A 18.24 18.24 0 0 0 206.052 27.55 Q 203.602 30 202.202 33.85 Q 200.966 37.249 200.821 41.857 A 39.606 39.606 0 0 0 200.802 43.1 A 43.562 43.562 0 0 0 201.08 48.177 Q 201.61 52.684 203.152 55.9 A 19.38 19.38 0 0 0 205.309 59.436 A 13.782 13.782 0 0 0 209.352 63 Q 213.202 65.2 217.602 65.2 Z M 119.102 65.1 A 10.801 10.801 0 0 0 124.292 63.755 A 12.422 12.422 0 0 0 124.302 63.75 A 13.621 13.621 0 0 0 128.062 60.724 A 16.111 16.111 0 0 0 128.702 59.95 A 19.811 19.811 0 0 0 131.254 55.569 A 23.172 23.172 0 0 0 131.752 54.3 A 19.648 19.648 0 0 0 132.821 49.276 A 23.634 23.634 0 0 0 132.902 47.3 A 24.698 24.698 0 0 0 132.671 43.842 A 18.06 18.06 0 0 0 131.852 40.4 A 15.936 15.936 0 0 0 130.556 37.572 A 12.591 12.591 0 0 0 128.952 35.4 Q 127.102 33.4 124.552 32.4 A 14.515 14.515 0 0 0 120.694 31.488 A 17.814 17.814 0 0 0 118.902 31.4 A 10.683 10.683 0 0 0 115.164 32.093 A 12.775 12.775 0 0 0 114.302 32.45 A 19.196 19.196 0 0 0 110.563 34.72 A 21.899 21.899 0 0 0 109.902 35.25 Q 107.802 37 106.152 39.3 Q 104.502 41.6 103.502 44 A 30.72 30.72 0 0 0 104.346 51.069 A 33.957 33.957 0 0 0 104.402 51.3 Q 105.302 55 107.202 58.15 Q 109.102 61.3 112.102 63.25 Q 114.956 65.105 118.714 65.105 A 15.519 15.519 0 0 0 119.102 65.1 Z M 251.402 41 L 283.502 41 Q 283.502 36.692 282.448 33.393 A 18.085 18.085 0 0 0 282.352 33.1 Q 281.202 29.7 279.152 27.4 Q 277.102 25.1 274.252 23.95 A 16.082 16.082 0 0 0 268.768 22.812 A 18.559 18.559 0 0 0 268.102 22.8 A 19.398 19.398 0 0 0 264.45 23.128 A 14.777 14.777 0 0 0 261.052 24.2 Q 258.002 25.6 255.902 28.1 A 17.416 17.416 0 0 0 252.844 33.489 A 19.903 19.903 0 0 0 252.702 33.9 A 26.073 26.073 0 0 0 251.52 39.477 A 30.219 30.219 0 0 0 251.402 41 Z M 164.479 66.876 A 2.79 2.79 0 0 0 166.502 67.7 A 2.561 2.561 0 0 0 167.66 67.431 A 3.041 3.041 0 0 0 168.452 66.85 A 3.38 3.38 0 0 0 168.478 66.823 A 2.79 2.79 0 0 0 169.302 64.8 A 2.561 2.561 0 0 0 169.033 63.642 A 3.041 3.041 0 0 0 168.452 62.85 A 3.512 3.512 0 0 0 168.263 62.674 A 2.625 2.625 0 0 0 166.502 62 A 3.364 3.364 0 0 0 166.464 62 A 2.79 2.79 0 0 0 164.452 62.85 A 3.512 3.512 0 0 0 164.276 63.039 A 2.625 2.625 0 0 0 163.602 64.8 A 3.364 3.364 0 0 0 163.602 64.837 A 2.79 2.79 0 0 0 164.452 66.85 A 3.38 3.38 0 0 0 164.479 66.876 Z" vector-effect="non-scaling-stroke"/></g></svg>
