<svg xmlns="http://www.w3.org/2000/svg" xmlns:xlink="http://www.w3.org/1999/xlink" style="margin:auto;background:#f1f2f3;display:block;z-index:1;position:relative" width="2000" height="500" preserveAspectRatio="xMidYMid" viewBox="0 0 2000 500">
  <g transform="translate(1000,250) scale(1,1) translate(-1000,-250)">
    <linearGradient id="ldbk-git0pbnxxcs" x1="-0.1" y1="0" x2="1.1" y2="1">
      <animate attributeName="y2" repeatCount="indefinite" dur="20s" keyTimes="0;0.5;1" values="-0.5;0.5;-0.5" keySplines="0.5 0 0.5 1;0.5 0 0.5 1" calcMode="spline"/>
      <stop stop-color="#1b2dc5" offset="0"/>
      <stop stop-color="#56d4ff" offset="1"/>
    </linearGradient>
    <rect x="0" y="0" width="2000" height="500" fill="url(#ldbk-git0pbnxxcs)"/>
  </g>

  <g transform="translate(1100,250) scale(1,1) translate(-1000,-250)">
    <defs>
      <filter id="blur-s3um2il2j3-1" x="-1" y="-1" width="3" height="3">
        <feGaussianBlur stdDeviation="8.6"/>
      </filter>
      <filter id="blur-s3um2il2j3-2" x="-1" y="-1" width="3" height="3">
        <feGaussianBlur stdDeviation="4.3"/>
      </filter>
      <filter id="blur-s3um2il2j3-3" x="-1" y="-1" width="3" height="3">
        <feGaussianBlur stdDeviation="2.8666666666666667"/>
      </filter>
      <filter id="blur-s3um2il2j3-4" x="-1" y="-1" width="3" height="3">
        <feGaussianBlur stdDeviation="2.15"/>
      </filter>
      <filter id="blur-s3um2il2j3-5" x="-1" y="-1" width="3" height="3">
        <feGaussianBlur stdDeviation="1.72"/>
      </filter>
    </defs>
    <circle cx="673.80055567705" cy="0" transform="translate(0 243.2914051802867)" r="8.882948377782046" fill="#538dc8" opacity="0.26599999999999996" filter="url(#blur-s3um2il2j3-2)">
      <animateTransform attributeName="transform" type="translate" begin="-38.57228984932794s" dur="49.99999999999999s" repeatCount="indefinite" keyTimes="0;1" values="0 508.88294837778204;0 -8.882948377782046"/>
    </circle>
    <circle cx="1647.2319094499017" cy="0" transform="translate(0 470.931931797132)" r="7.745578053213896" fill="#ddeeff" opacity="0.26599999999999996" filter="url(#blur-s3um2il2j3-2)">
      <animateTransform attributeName="transform" type="translate" begin="-19.67853735603565s" dur="49.99999999999999s" repeatCount="indefinite" keyTimes="0;1" values="0 507.7455780532139;0 -7.745578053213896"/>
    </circle>
    <circle cx="24.559224317101336" cy="0" transform="translate(0 366.2784561222452)" r="11.06478337322844" fill="#538dc8" opacity="0.30400000000000005" filter="url(#blur-s3um2il2j3-3)">
      <animateTransform attributeName="transform" type="translate" begin="-21.47243572333339s" dur="33.33333333333333s" repeatCount="indefinite" keyTimes="0;1" values="0 511.06478337322847;0 -11.06478337322844"/>
    </circle>
    <circle cx="1700.8292033353327" cy="0" transform="translate(0 297.98651739092054)" r="10.458321398924799" fill="#bbddff" opacity="0.30400000000000005" filter="url(#blur-s3um2il2j3-3)">
      <animateTransform attributeName="transform" type="translate" begin="-29.779152358590704s" dur="33.33333333333333s" repeatCount="indefinite" keyTimes="0;1" values="0 510.4583213989248;0 -10.458321398924799"/>
    </circle>
    <circle cx="1684.1094735541576" cy="0" transform="translate(0 233.75617099952484)" r="14.928432787839295" fill="#ddeeff" opacity="0.323" filter="url(#blur-s3um2il2j3-4)">
      <animateTransform attributeName="transform" type="translate" begin="-23.778220159927933s" dur="24.999999999999996s" repeatCount="indefinite" keyTimes="0;1" values="0 514.9284327878393;0 -14.928432787839295"/>
    </circle>
    <circle cx="510.1584118089946" cy="0" transform="translate(0 356.4841934989049)" r="9.828707292218528" fill="#538dc8" opacity="0.30400000000000005" filter="url(#blur-s3um2il2j3-3)">
      <animateTransform attributeName="transform" type="translate" begin="-0.11744021109014734s" dur="33.33333333333333s" repeatCount="indefinite" keyTimes="0;1" values="0 509.82870729221855;0 -9.828707292218528"/>
    </circle>
    <circle cx="1524.4044246190472" cy="0" transform="translate(0 400.99258590555706)" r="14.70131943456839" fill="#bbddff" opacity="0.323" filter="url(#blur-s3um2il2j3-4)">
      <animateTransform attributeName="transform" type="translate" begin="-12.670251283324594s" dur="24.999999999999996s" repeatCount="indefinite" keyTimes="0;1" values="0 514.7013194345684;0 -14.70131943456839"/>
    </circle>
    <circle cx="1374.3860909695745" cy="0" transform="translate(0 401.590380056315)" r="9.960148376161051" fill="#ddeeff" opacity="0.30400000000000005" filter="url(#blur-s3um2il2j3-3)">
      <animateTransform attributeName="transform" type="translate" begin="-14.073521657037737s" dur="33.33333333333333s" repeatCount="indefinite" keyTimes="0;1" values="0 509.96014837616104;0 -9.960148376161051"/>
    </circle>
    <circle cx="237.3847950275749" cy="0" transform="translate(0 131.61475194223902)" r="5.0840669837855845" fill="#bbddff" opacity="0.15200000000000002" filter="url(#blur-s3um2il2j3-1)">
      <animateTransform attributeName="transform" type="translate" begin="-3.029152097099552s" dur="99.99999999999999s" repeatCount="indefinite" keyTimes="0;1" values="0 505.0840669837856;0 -5.0840669837855845"/>
    </circle>
    <circle cx="526.4755151068954" cy="0" transform="translate(0 345.74803128626917)" r="11.796352320466884" fill="#bbddff" opacity="0.30400000000000005" filter="url(#blur-s3um2il2j3-3)">
      <animateTransform attributeName="transform" type="translate" begin="-21.85861350371256s" dur="33.33333333333333s" repeatCount="indefinite" keyTimes="0;1" values="0 511.7963523204669;0 -11.796352320466884"/>
    </circle>
  </g>
  
  <g transform="translate(750,210) scale(1,1)" id="svgGroup" stroke-linecap="round" fill-rule="evenodd" font-size="9pt" stroke="#000" stroke-width="0.25mm" fill="black" style="stroke: #fff;stroke-width:0.25mm;fill: white;"><path d="M 309.6 66.5 L 307.7 66.5 L 297.7 4.2 L 300.5 4.2 L 308.8 59.4 L 318.9 8.8 L 321.1 8.8 L 329.9 58.5 L 338.3 4.2 L 340.8 4.2 L 330.9 66.5 L 329.2 66.5 L 320 14.5 L 309.6 66.5 Z M 0 66.5 L 0 4.2 L 2.6 4.2 L 3.4 4.2 L 3.4 4.9 A 0.99 0.99 0 0 0 2.866 5.412 A 1.606 1.606 0 0 0 2.75 5.75 A 2.725 2.725 0 0 0 2.703 6.031 Q 2.619 6.719 2.7 8.1 L 2.7 31 L 34.4 31 L 34.4 4.2 L 36.9 4.2 L 37.7 4.2 L 37.7 4.9 A 0.99 0.99 0 0 0 37.166 5.412 A 1.606 1.606 0 0 0 37.05 5.75 A 2.725 2.725 0 0 0 37.003 6.031 Q 36.919 6.719 37 8.1 L 37 66.5 L 34.3 66.5 L 34.3 33.4 L 2.7 33.4 L 2.7 66.5 L 0 66.5 Z M 135.1 66.5 L 102.9 66.5 L 102.9 64.2 L 117.8 64.2 L 117.8 2.3 L 103.5 2.3 L 103.5 0 L 120.3 0 L 120.3 64.2 L 135.1 64.2 L 135.1 66.5 Z M 185.1 66.5 L 152.9 66.5 L 152.9 64.2 L 167.8 64.2 L 167.8 2.3 L 153.5 2.3 L 153.5 0 L 170.3 0 L 170.3 64.2 L 185.1 64.2 L 185.1 66.5 Z M 485.1 66.5 L 452.9 66.5 L 452.9 64.2 L 467.8 64.2 L 467.8 2.3 L 453.5 2.3 L 453.5 0 L 470.3 0 L 470.3 64.2 L 485.1 64.2 L 485.1 66.5 Z M 534.3 32.1 L 534.3 0 L 536.7 0 L 537.5 0 L 537.5 0.7 A 0.99 0.99 0 0 0 536.966 1.212 A 1.606 1.606 0 0 0 536.85 1.55 A 2.725 2.725 0 0 0 536.803 1.831 Q 536.719 2.519 536.8 3.9 L 536.9 59.4 Q 536.9 61.2 537.05 62.95 A 12.335 12.335 0 0 0 537.584 65.603 A 14.404 14.404 0 0 0 537.9 66.5 L 535.3 66.4 A 7.649 7.649 0 0 1 534.969 65.4 Q 534.832 64.878 534.732 64.263 A 17.581 17.581 0 0 1 534.6 63.25 Q 534.4 61.3 534.35 59.4 Q 534.3 57.5 534.3 56.3 A 12.44 12.44 0 0 1 533.358 58.594 Q 532.815 59.629 532.047 60.698 A 22.52 22.52 0 0 1 531.6 61.3 A 15.837 15.837 0 0 1 528.102 64.608 A 19.561 19.561 0 0 1 526.35 65.7 A 13.75 13.75 0 0 1 522.488 67.104 Q 520.603 67.5 518.4 67.5 Q 514.8 67.5 511.4 66.05 A 16.569 16.569 0 0 1 506.046 62.348 A 19.557 19.557 0 0 1 505.35 61.6 A 20.054 20.054 0 0 1 502.637 57.613 A 26.829 26.829 0 0 1 501.1 54.05 Q 499.5 49.5 499.5 43.4 A 37.722 37.722 0 0 1 499.778 38.689 Q 500.187 35.441 501.2 32.85 A 22.444 22.444 0 0 1 503.179 28.914 A 17.402 17.402 0 0 1 505.75 25.75 A 18.852 18.852 0 0 1 510.359 22.442 A 17.33 17.33 0 0 1 512.05 21.7 Q 515.5 20.4 519.1 20.4 Q 522.7 20.4 525.8 22 Q 528.9 23.6 531.15 26.25 Q 533.4 28.9 534.3 32.1 Z M 87.2 43.3 L 52.5 43.3 A 42.226 42.226 0 0 0 52.808 47.767 Q 53.094 50.049 53.639 52.028 A 24.728 24.728 0 0 0 53.85 52.75 A 22.479 22.479 0 0 0 55.418 56.594 A 17.696 17.696 0 0 0 57.4 59.6 Q 59.7 62.4 63 63.8 A 17.608 17.608 0 0 0 67.916 65.063 A 21.997 21.997 0 0 0 70.4 65.2 A 21.76 21.76 0 0 0 73.226 65.025 Q 74.731 64.828 76.025 64.408 A 13.253 13.253 0 0 0 76.2 64.35 Q 78.7 63.5 80.7 61.95 Q 82.7 60.4 84.4 58.5 L 86.3 59.9 Q 84.4 62.2 82 63.95 Q 79.6 65.7 76.7 66.6 Q 73.8 67.5 70.4 67.5 A 22.076 22.076 0 0 1 65.518 66.98 A 18.267 18.267 0 0 1 62.1 65.85 Q 58.4 64.2 55.7 61.15 Q 53 58.1 51.55 53.8 A 27.391 27.391 0 0 1 50.308 48.073 A 34.904 34.904 0 0 1 50.1 44.2 A 38.307 38.307 0 0 1 50.44 38.971 A 28.372 28.372 0 0 1 51.55 34.05 Q 53 29.6 55.6 26.6 A 17.784 17.784 0 0 1 60.353 22.682 A 16.802 16.802 0 0 1 61.6 22.05 A 17.429 17.429 0 0 1 68.255 20.514 A 20.225 20.225 0 0 1 69 20.5 A 20.583 20.583 0 0 1 74.315 21.17 A 18.494 18.494 0 0 1 76.25 21.8 Q 79.6 23.1 82.05 25.65 Q 84.5 28.2 85.9 32.1 Q 87.3 36 87.3 41.2 L 87.3 42.25 A 2.369 2.369 0 0 1 87.295 42.386 Q 87.282 42.607 87.233 43.025 A 34.408 34.408 0 0 1 87.2 43.3 Z M 406.9 66.6 L 406.9 21.6 L 409.6 21.6 L 409.3 34.9 L 408.5 35 A 17.517 17.517 0 0 1 410.354 29.684 A 16.548 16.548 0 0 1 410.75 29 Q 412.4 26.3 414.8 24.4 Q 417.2 22.5 420 21.5 Q 422.8 20.5 425.6 20.5 Q 428.6 20.5 432.127 21.599 A 31.295 31.295 0 0 1 432.6 21.75 Q 436.4 23 438.8 25.5 L 437.4 27.4 L 436.9 28.1 L 436.3 27.6 A 0.843 0.843 0 0 0 436.359 27.36 Q 436.392 26.98 436.05 26.6 A 4.056 4.056 0 0 0 435.768 26.321 Q 435.253 25.852 434.2 25.1 A 14.681 14.681 0 0 0 431.981 23.904 A 11.79 11.79 0 0 0 430.2 23.3 Q 428.2 22.8 426.1 22.8 A 16.47 16.47 0 0 0 421.296 23.485 A 14.932 14.932 0 0 0 419.3 24.25 Q 416.2 25.7 414 28.25 A 17.884 17.884 0 0 0 410.999 33.194 A 20.831 20.831 0 0 0 410.6 34.25 A 21.907 21.907 0 0 0 409.446 40.158 A 25.645 25.645 0 0 0 409.4 41.7 L 409.4 66.6 L 406.9 66.6 Z M 214.116 66.775 A 21.631 21.631 0 0 0 219 67.3 A 22.266 22.266 0 0 0 223.118 66.935 A 16.212 16.212 0 0 0 229.45 64.35 A 17.204 17.204 0 0 0 232.881 61.204 A 19.814 19.814 0 0 0 235.9 56.15 A 27.319 27.319 0 0 0 237.617 50.106 A 36.786 36.786 0 0 0 238.1 44 Q 238.1 37 235.9 31.75 A 22.091 22.091 0 0 0 235.143 30.127 A 17.822 17.822 0 0 0 229.45 23.55 A 15.971 15.971 0 0 0 223.884 21.125 A 21.631 21.631 0 0 0 219 20.6 A 22.266 22.266 0 0 0 214.882 20.965 A 16.212 16.212 0 0 0 208.55 23.55 A 17.204 17.204 0 0 0 205.119 26.696 A 19.814 19.814 0 0 0 202.1 31.75 A 27.399 27.399 0 0 0 200.352 38.016 A 37.749 37.749 0 0 0 199.9 44 A 37.171 37.171 0 0 0 200.321 49.722 A 27.543 27.543 0 0 0 202.1 56.15 A 22.091 22.091 0 0 0 202.857 57.773 A 17.822 17.822 0 0 0 208.55 64.35 A 15.971 15.971 0 0 0 214.116 66.775 Z M 364.116 66.775 A 21.631 21.631 0 0 0 369 67.3 A 22.266 22.266 0 0 0 373.118 66.935 A 16.212 16.212 0 0 0 379.45 64.35 A 17.204 17.204 0 0 0 382.881 61.204 A 19.814 19.814 0 0 0 385.9 56.15 A 27.319 27.319 0 0 0 387.617 50.106 A 36.786 36.786 0 0 0 388.1 44 Q 388.1 37 385.9 31.75 A 22.091 22.091 0 0 0 385.143 30.127 A 17.822 17.822 0 0 0 379.45 23.55 A 15.971 15.971 0 0 0 373.884 21.125 A 21.631 21.631 0 0 0 369 20.6 A 22.266 22.266 0 0 0 364.882 20.965 A 16.212 16.212 0 0 0 358.55 23.55 A 17.204 17.204 0 0 0 355.119 26.696 A 19.814 19.814 0 0 0 352.1 31.75 A 27.399 27.399 0 0 0 350.352 38.016 A 37.749 37.749 0 0 0 349.9 44 A 37.171 37.171 0 0 0 350.321 49.722 A 27.543 27.543 0 0 0 352.1 56.15 A 22.091 22.091 0 0 0 352.857 57.773 A 17.822 17.822 0 0 0 358.55 64.35 A 15.971 15.971 0 0 0 364.116 66.775 Z M 219 65 A 18.172 18.172 0 0 0 223.283 64.52 A 13.448 13.448 0 0 0 228.2 62.25 A 15.947 15.947 0 0 0 232.922 56.565 A 20.02 20.02 0 0 0 233.75 54.7 A 27.357 27.357 0 0 0 235.34 48.231 A 34.914 34.914 0 0 0 235.6 43.9 Q 235.6 37.4 233.5 32.7 A 19.133 19.133 0 0 0 231.045 28.594 A 15.434 15.434 0 0 0 227.7 25.45 A 14.439 14.439 0 0 0 220.829 22.99 A 18.283 18.283 0 0 0 219 22.9 A 17.343 17.343 0 0 0 214.443 23.474 A 13.813 13.813 0 0 0 209.95 25.6 A 16.056 16.056 0 0 0 204.939 31.58 A 19.806 19.806 0 0 0 204.3 33 A 25.304 25.304 0 0 0 202.777 38.676 A 34.565 34.565 0 0 0 202.4 43.9 A 35.381 35.381 0 0 0 202.804 49.378 A 25.664 25.664 0 0 0 204.3 54.95 A 18.024 18.024 0 0 0 206.727 59.276 A 15.028 15.028 0 0 0 209.9 62.35 A 13.946 13.946 0 0 0 215.639 64.715 A 19.001 19.001 0 0 0 219 65 Z M 369 65 A 18.172 18.172 0 0 0 373.283 64.52 A 13.448 13.448 0 0 0 378.2 62.25 A 15.947 15.947 0 0 0 382.922 56.565 A 20.02 20.02 0 0 0 383.75 54.7 A 27.357 27.357 0 0 0 385.34 48.231 A 34.914 34.914 0 0 0 385.6 43.9 Q 385.6 37.4 383.5 32.7 A 19.133 19.133 0 0 0 381.045 28.594 A 15.434 15.434 0 0 0 377.7 25.45 A 14.439 14.439 0 0 0 370.829 22.99 A 18.283 18.283 0 0 0 369 22.9 A 17.343 17.343 0 0 0 364.443 23.474 A 13.813 13.813 0 0 0 359.95 25.6 A 16.056 16.056 0 0 0 354.939 31.58 A 19.806 19.806 0 0 0 354.3 33 A 25.304 25.304 0 0 0 352.777 38.676 A 34.565 34.565 0 0 0 352.4 43.9 A 35.381 35.381 0 0 0 352.804 49.378 A 25.664 25.664 0 0 0 354.3 54.95 A 18.024 18.024 0 0 0 356.727 59.276 A 15.028 15.028 0 0 0 359.9 62.35 A 13.946 13.946 0 0 0 365.639 64.715 A 19.001 19.001 0 0 0 369 65 Z M 518.9 65.2 A 15.743 15.743 0 0 0 522.358 64.836 A 12.28 12.28 0 0 0 525.55 63.65 A 13.717 13.717 0 0 0 529.821 59.989 A 16.324 16.324 0 0 0 530.4 59.2 Q 532.4 56.3 533.4 52.3 A 32.784 32.784 0 0 0 534.209 47.515 A 42.607 42.607 0 0 0 534.4 43.4 Q 534.4 38.281 533.345 34.584 A 17.051 17.051 0 0 0 531.95 31.1 A 19.878 19.878 0 0 0 529.868 27.973 Q 528.113 25.838 525.95 24.65 Q 522.696 22.863 519.737 22.714 A 10.659 10.659 0 0 0 519.2 22.7 Q 515.9 22.7 512.85 23.9 A 15.981 15.981 0 0 0 507.504 27.398 A 18.24 18.24 0 0 0 507.35 27.55 Q 504.9 30 503.5 33.85 Q 502.264 37.249 502.119 41.857 A 39.606 39.606 0 0 0 502.1 43.1 A 43.562 43.562 0 0 0 502.378 48.177 Q 502.908 52.684 504.45 55.9 A 19.38 19.38 0 0 0 506.607 59.436 A 13.782 13.782 0 0 0 510.65 63 Q 514.5 65.2 518.9 65.2 Z M 52.7 41 L 84.8 41 Q 84.8 36.692 83.746 33.393 A 18.085 18.085 0 0 0 83.65 33.1 Q 82.5 29.7 80.45 27.4 Q 78.4 25.1 75.55 23.95 A 16.082 16.082 0 0 0 70.066 22.812 A 18.559 18.559 0 0 0 69.4 22.8 A 19.398 19.398 0 0 0 65.748 23.128 A 14.777 14.777 0 0 0 62.35 24.2 Q 59.3 25.6 57.2 28.1 A 17.416 17.416 0 0 0 54.142 33.489 A 19.903 19.903 0 0 0 54 33.9 A 26.073 26.073 0 0 0 52.818 39.477 A 30.219 30.219 0 0 0 52.7 41 Z" vector-effect="non-scaling-stroke"/></g></svg>
